<?xml version="1.0" encoding="UTF-8"?>
<!DOCTYPE svg PUBLIC "-//W3C//DTD SVG 1.1//EN" "http://www.w3.org/Graphics/SVG/1.1/DTD/svg11.dtd">
<!-- Creator: CorelDRAW X7 -->
<svg xmlns="http://www.w3.org/2000/svg" xml:space="preserve" width="4in" height="4in" version="1.1" style="shape-rendering:geometricPrecision; text-rendering:geometricPrecision; image-rendering:optimizeQuality; fill-rule:evenodd; clip-rule:evenodd"
viewBox="0 0 4000 4000"
 xmlns:xlink="http://www.w3.org/1999/xlink">
 <defs>
  <style type="text/css">
   <![CDATA[
    .str2 {stroke:#00AEEC;stroke-width:13.8898;stroke-opacity:0.180392}
    .str1 {stroke:#00AEEC;stroke-width:13.8898;stroke-opacity:0.380392}
    .str0 {stroke:#00AEEC;stroke-width:13.8898}
    .fil0 {fill:#0036FA;fill-rule:nonzero}
    .fil14 {fill:#424649;fill-rule:nonzero}
    .fil7 {fill:#4275F0;fill-rule:nonzero}
    .fil4 {fill:#809EDD;fill-rule:nonzero}
    .fil20 {fill:#828ABF;fill-rule:nonzero}
    .fil15 {fill:#C12372;fill-rule:nonzero}
    .fil18 {fill:#CACFD6;fill-rule:nonzero}
    .fil12 {fill:#DB466E;fill-rule:nonzero}
    .fil9 {fill:#E2B187;fill-rule:nonzero}
    .fil17 {fill:#E69C90;fill-rule:nonzero}
    .fil13 {fill:#EDBA8E;fill-rule:nonzero}
    .fil16 {fill:white;fill-rule:nonzero}
    .fil2 {fill:#0036FA;fill-rule:nonzero;fill-opacity:0.180392}
    .fil21 {fill:#606060;fill-rule:nonzero;fill-opacity:0.219608}
    .fil22 {fill:#E6B850;fill-rule:nonzero;fill-opacity:0.219608}
    .fil10 {fill:#AF703F;fill-rule:nonzero;fill-opacity:0.278431}
    .fil11 {fill:#A172AE;fill-rule:nonzero;fill-opacity:0.309804}
    .fil8 {fill:#E2B187;fill-rule:nonzero;fill-opacity:0.309804}
    .fil1 {fill:#0036FA;fill-rule:nonzero;fill-opacity:0.380392}
    .fil5 {fill:#4F7CC6;fill-rule:nonzero;fill-opacity:0.400000}
    .fil6 {fill:#4275F0;fill-rule:nonzero;fill-opacity:0.501961}
    .fil19 {fill:#828ABF;fill-rule:nonzero;fill-opacity:0.611765}
    .fil3 {fill:#BDCAFB;fill-rule:nonzero;fill-opacity:0.800000}
   ]]>
  </style>
 </defs>
 <g id="Layer_x0020_1">
  <metadata id="CorelCorpID_0Corel-Layer"/>
  <g id="_809110256">
   <g>
    <g>
     <path class="fil0 str0" d="M2000 3419c-379,0 -735,-148 -1003,-416 -268,-268 -416,-624 -416,-1003 0,-379 148,-735 416,-1003 268,-268 624,-416 1003,-416 379,0 735,148 1003,416 268,268 416,624 416,1003 0,379 -148,735 -416,1003 -268,268 -624,416 -1003,416zm0 -2834l0 0c-378,0 -733,147 -1000,415 -268,267 -415,622 -415,1000 0,378 147,733 415,1000 267,268 622,415 1000,415 378,0 733,-147 1000,-415 268,-267 415,-622 415,-1000 0,-378 -147,-733 -415,-1000 -267,-268 -622,-415 -1000,-415z"/>
    </g>
    <g>
     <path class="fil0 str0" d="M2000 3588c-214,0 -422,-42 -618,-125 -189,-80 -359,-195 -505,-340 -145,-146 -260,-316 -340,-505 -83,-196 -125,-404 -125,-618 0,-214 42,-422 125,-618 80,-189 195,-359 340,-505 146,-145 316,-260 505,-340 196,-83 404,-125 618,-125 214,0 422,42 618,125 189,80 359,195 505,340 145,146 260,316 340,505 83,196 125,404 125,618 0,214 -42,422 -125,618 -80,189 -195,359 -340,505 -146,145 -316,260 -505,340 -196,83 -404,125 -618,125zm0 -3171l0 0c-214,0 -421,42 -616,124 -189,80 -358,194 -504,339 -145,146 -259,315 -339,504 -82,195 -124,402 -124,616 0,214 42,421 124,616 80,189 194,358 339,504 146,145 315,259 504,339 195,82 402,124 616,124 214,0 421,-42 616,-124 189,-80 358,-194 504,-339 145,-146 259,-315 339,-504 82,-195 124,-402 124,-616 0,-214 -42,-421 -124,-616 -80,-189 -194,-358 -339,-504 -146,-145 -315,-259 -504,-339 -195,-82 -402,-124 -616,-124z"/>
    </g>
    <g>
     <path class="fil0 str0" d="M2000 3122c-151,0 -298,-30 -437,-88 -133,-57 -253,-138 -356,-241 -103,-103 -184,-223 -241,-356 -58,-139 -88,-286 -88,-437 0,-151 30,-298 88,-437 57,-133 138,-253 241,-356 103,-103 223,-184 356,-241 139,-58 286,-88 437,-88 151,0 298,30 437,88 133,57 253,138 356,241 103,103 184,223 241,356 58,139 88,286 88,437 0,151 -30,298 -88,437 -57,133 -138,253 -241,356 -103,103 -223,184 -356,241 -139,58 -286,88 -437,88zm0 -2241l0 0c-151,0 -298,30 -435,88 -134,57 -253,137 -356,240 -103,103 -183,222 -240,356 -58,137 -88,284 -88,435 0,151 30,298 88,435 57,134 137,253 240,356 103,103 222,183 356,240 137,58 284,88 435,88 151,0 298,-30 435,-88 134,-57 253,-137 356,-240 103,-103 183,-222 240,-356 58,-137 88,-284 88,-435 0,-151 -30,-298 -88,-435 -57,-134 -137,-253 -240,-356 -103,-103 -222,-183 -356,-240 -137,-58 -284,-88 -435,-88z"/>
    </g>
    <g>
     <path class="fil1 str1" d="M2000 3787c-241,0 -475,-47 -696,-140 -213,-90 -404,-219 -568,-383 -164,-164 -293,-355 -383,-568 -93,-221 -140,-455 -140,-696 0,-241 47,-475 140,-696 90,-213 219,-404 383,-568 164,-164 355,-293 568,-383 221,-93 455,-140 696,-140 241,0 475,47 696,140 213,90 404,219 568,383 164,164 293,355 383,568 93,221 140,455 140,696 0,241 -47,475 -140,696 -90,213 -219,404 -383,568 -164,164 -355,293 -568,383 -221,93 -455,140 -696,140zm0 -3569l0 0c-241,0 -474,47 -694,140 -212,90 -403,218 -566,382 -164,163 -292,354 -382,566 -93,220 -140,453 -140,694 0,241 47,474 140,694 90,212 218,403 382,566 163,164 354,292 566,382 220,93 453,140 694,140 241,0 474,-47 694,-140 212,-90 403,-218 566,-382 164,-163 292,-354 382,-566 93,-220 140,-453 140,-694 0,-241 -47,-474 -140,-694 -90,-212 -218,-403 -382,-566 -163,-164 -354,-292 -566,-382 -220,-93 -453,-140 -694,-140z"/>
    </g>
    <g>
     <path class="fil2 str2" d="M2000 4000c-270,0 -532,-53 -779,-157 -238,-101 -452,-245 -635,-429 -184,-183 -328,-397 -429,-635 -104,-247 -157,-509 -157,-779 0,-270 53,-532 157,-779 101,-238 245,-452 429,-635 183,-184 397,-328 635,-429 247,-104 509,-157 779,-157 270,0 532,53 779,157 238,101 452,245 635,429 184,183 328,397 429,635 104,247 157,509 157,779 0,270 -53,532 -157,779 -101,238 -245,452 -429,635 -183,184 -397,328 -635,429 -247,104 -509,157 -779,157zm0 -3995l0 0c-269,0 -530,53 -776,157 -238,101 -451,244 -634,428 -184,183 -327,396 -428,634 -104,246 -157,507 -157,776 0,269 53,530 157,776 101,238 244,451 428,634 183,184 396,327 634,428 246,104 507,157 776,157 269,0 530,-53 776,-157 238,-101 451,-244 634,-428 184,-183 327,-396 428,-634 104,-246 157,-507 157,-776 0,-269 -53,-530 -157,-776 -101,-238 -244,-451 -428,-634 -183,-184 -396,-327 -634,-428 -246,-104 -507,-157 -776,-157z"/>
    </g>
    <g>
     <path class="fil0 str0" d="M2000 3847c-249,0 -491,-49 -719,-145 -220,-93 -417,-227 -587,-396 -169,-170 -303,-367 -396,-587 -96,-228 -145,-470 -145,-719 0,-249 49,-491 145,-719 93,-220 227,-417 396,-587 170,-169 367,-303 587,-396 228,-96 470,-145 719,-145 249,0 491,49 719,145 220,93 417,227 587,396 169,170 303,367 396,587 96,228 145,470 145,719 0,249 -49,491 -145,719 -93,220 -227,417 -396,587 -170,169 -367,303 -587,396 -228,96 -470,145 -719,145zm0 -3689l0 0c-249,0 -490,49 -717,145 -219,93 -416,226 -585,395 -169,169 -302,366 -395,585 -96,227 -145,468 -145,717 0,249 49,490 145,717 93,219 226,416 395,585 169,169 366,302 585,395 227,96 468,145 717,145 249,0 490,-49 717,-145 219,-93 416,-226 585,-395 169,-169 302,-366 395,-585 96,-227 145,-468 145,-717 0,-249 -49,-490 -145,-717 -93,-219 -226,-416 -395,-585 -169,-169 -366,-302 -585,-395 -227,-96 -468,-145 -717,-145z"/>
    </g>
   </g>
   <g>
    <path class="fil3" d="M1983 582c0,55 -45,100 -100,100 -56,0 -100,-45 -100,-100 0,-55 44,-100 100,-100 55,0 100,45 100,100z"/>
   </g>
   <g>
    <g>
     <path class="fil4" d="M1955 651c-6,-11 -14,-17 -21,-16 -11,1 -36,-3 -36,-3 -2,-4 -2,-9 -2,-14 12,-8 21,-24 23,-44 2,-1 5,-4 6,-8 2,-6 1,-11 -2,-12 -1,0 -3,0 -4,1 0,-27 -1,-49 -36,-49 -34,0 -37,21 -37,48 -1,0 -2,-1 -3,-1 -3,1 -5,6 -5,11 1,5 4,10 7,9 1,0 1,0 1,0 2,19 10,36 21,44 1,5 1,11 -1,15 0,0 -25,4 -36,3 -6,-1 -15,5 -21,15 19,20 45,32 74,32 28,0 54,-12 72,-31z"/>
    </g>
   </g>
   <g>
    <path class="fil3" d="M1261 3318c0,84 -69,152 -153,152 -84,0 -152,-68 -152,-152 0,-84 68,-152 152,-152 84,0 153,68 153,152z"/>
   </g>
   <g>
    <g>
     <path class="fil4" d="M1218 3423c-8,-17 -21,-27 -32,-25 -16,1 -54,-4 -54,-4 -3,-6 -3,-14 -2,-22 17,-11 30,-37 33,-67 4,-1 9,-6 10,-12 3,-8 1,-16 -4,-17 -1,-1 -3,0 -5,1 0,-42 -1,-74 -56,-74 -51,0 -55,31 -55,73 -2,-1 -3,-2 -5,-2 -5,1 -8,8 -7,16 1,9 6,15 11,14 0,0 1,0 1,0 3,30 15,54 32,67 1,8 1,16 -2,23 0,0 -38,5 -54,4 -10,-2 -23,8 -32,24 28,30 67,48 111,48 44,0 83,-18 110,-47z"/>
    </g>
   </g>
   <g>
    <path class="fil3" d="M3657 1630c0,63 -51,113 -113,113 -62,0 -113,-50 -113,-113 0,-62 51,-113 113,-113 62,0 113,51 113,113z"/>
   </g>
   <g>
    <g>
     <path class="fil4" d="M3626 1708c-7,-12 -16,-19 -24,-18 -12,1 -40,-3 -40,-3 -3,-5 -3,-11 -2,-16 13,-9 23,-28 25,-50 3,-1 6,-5 7,-9 2,-6 1,-12 -3,-13 -1,0 -2,0 -4,1 1,-31 0,-55 -41,-55 -38,0 -41,23 -41,54 -1,-1 -3,-1 -4,-1 -3,0 -6,6 -5,12 1,6 4,11 8,10 0,0 1,0 1,0 2,22 11,40 24,50 1,6 0,12 -2,17 0,0 -28,4 -40,3 -8,-1 -17,5 -24,18 21,22 50,35 83,35 32,0 61,-13 82,-35z"/>
    </g>
   </g>
   <g>
    <g>
     <path class="fil4" d="M569 2574c0,27 -21,48 -48,48 -26,0 -48,-21 -48,-48 0,-26 22,-48 48,-48 27,0 48,22 48,48z"/>
    </g>
    <g>
     <path class="fil4" d="M3635 2117c0,27 -21,48 -47,48 -27,0 -48,-21 -48,-48 0,-26 21,-47 48,-47 26,0 47,21 47,47z"/>
    </g>
    <g>
     <path class="fil4" d="M2463 496c-11,13 -29,15 -42,5 -13,-10 -15,-29 -5,-42 10,-13 29,-15 42,-5 13,11 15,29 5,42z"/>
    </g>
    <g>
     <path class="fil4" d="M2308 3382c3,17 -8,32 -25,35 -16,3 -31,-8 -34,-24 -3,-17 8,-32 24,-35 17,-3 32,8 35,24z"/>
    </g>
    <g>
     <path class="fil4" d="M1777 3822c3,16 -8,31 -24,34 -16,3 -32,-8 -35,-24 -2,-16 8,-32 25,-35 16,-2 31,8 34,25z"/>
    </g>
    <g>
     <path class="fil4" d="M3843 2339c3,16 -8,31 -24,34 -17,3 -32,-8 -35,-24 -3,-17 8,-32 25,-35 16,-3 31,8 34,25z"/>
    </g>
    <g>
     <path class="fil4" d="M829 577c3,16 -8,32 -24,35 -17,2 -32,-9 -35,-25 -3,-16 8,-32 25,-34 16,-3 31,8 34,24z"/>
    </g>
   </g>
   <g>
    <path class="fil3" d="M239 1726c0,41 -34,74 -74,74 -41,0 -74,-33 -74,-74 0,-41 33,-74 74,-74 40,0 74,33 74,74z"/>
   </g>
   <g>
    <g>
     <path class="fil4" d="M218 1777c-4,-8 -11,-13 -16,-12 -8,1 -26,-2 -26,-2 -1,-3 -2,-7 -1,-11 8,-5 15,-18 16,-32 2,-1 4,-3 5,-6 1,-4 0,-8 -2,-8 -1,-1 -1,-1 -2,0 0,-20 -1,-36 -27,-36 -25,0 -27,15 -27,36 -1,-1 -2,-1 -3,-1 -2,0 -4,4 -3,8 0,4 3,7 5,6 0,0 1,0 1,0 1,15 7,27 15,33 1,4 1,8 -1,11 0,0 -18,3 -26,2 -5,-1 -11,4 -15,11 13,15 32,24 54,24 21,0 40,-9 53,-23z"/>
    </g>
   </g>
   <path class="fil3" d="M3313 2039c0,-714 -579,-1293 -1293,-1293 -714,0 -1293,579 -1293,1293 0,312 110,598 294,821l1998 0c183,-223 294,-509 294,-821z"/>
   <g>
    <path class="fil5" d="M2678 1998c0,0 -33,17 -41,32 -7,15 8,110 8,110l192 152c0,0 52,396 -76,503 -128,107 -600,-375 -600,-375l134 -170 125 -40 21 -91c0,0 -134,-64 -26,-282 108,-218 0,0 0,0l263 161z"/>
    <path class="fil6" d="M2435 1801l-67 -12c0,0 24,37 91,22 67,-16 -24,-10 -24,-10z"/>
    <g>
     <path class="fil7" d="M2967 2308c-75,-183 -160,-217 -160,-217 0,0 3,-4 7,-10 35,15 65,42 84,74 1,2 5,0 4,-3 -20,-32 -50,-60 -85,-75 2,-3 4,-6 6,-10 26,6 52,16 76,27 2,2 5,-2 2,-3 -24,-12 -49,-22 -76,-28 47,-76 146,-286 -145,-310 18,-20 43,-32 68,-41 3,-1 2,-5 -1,-5 -25,9 -50,22 -69,41 3,-13 7,-26 12,-38 1,-2 -3,-4 -4,-1 -6,13 -10,27 -13,41 -4,-4 -15,-13 -30,-25 -8,-12 -17,-23 -26,-33 -50,-51 -120,-68 -189,-62 -2,0 -2,1 -2,2 -42,0 -85,12 -125,45 -48,41 -55,103 -43,163 1,10 3,19 4,25 7,45 27,88 51,126 -30,5 -84,23 -73,87 16,88 88,198 2,210 -85,11 -126,207 176,390 303,182 590,9 471,-135 0,0 153,-53 78,-235zm-698 -428l0 0c16,45 40,85 62,109 0,0 -5,0 -13,2 -22,-35 -39,-71 -49,-111zm346 -183l0 0c5,6 11,12 16,18 -43,-32 -110,-73 -181,-81 62,-2 121,17 165,63z"/>
    </g>
    <g>
     <path class="fil7" d="M2429 2259l-28 -49c0,0 -79,8 -108,42 -29,33 -213,369 -213,369 0,0 -79,38 -144,70 16,10 35,29 45,65 58,-21 133,-53 160,-72 0,0 177,-136 196,-227 20,-92 92,-198 92,-198z"/>
    </g>
    <path class="fil8" d="M2248 2589c-15,-20 -42,-81 47,-199 48,-64 70,-59 79,-35 -15,32 -29,68 -37,102 -8,40 -48,90 -89,132z"/>
    <path class="fil9" d="M1936 2691c-82,40 -175,86 -181,89 -9,4 -86,-20 -96,-15 -10,5 -63,34 -82,39 -19,4 48,14 77,0 29,-15 39,14 63,19 24,5 38,10 53,0 0,0 111,-31 211,-67 -10,-36 -29,-55 -45,-65z"/>
    <g>
     <path class="fil9" d="M2479 2090c0,0 14,53 -49,116l-33 63 72 82 72 24 154 -179 -67 -43 -19 -198 -130 135z"/>
    </g>
    <path class="fil10" d="M2478 2124c31,-3 125,-19 128,-88 1,-46 -46,-23 -86,11l-35 36c-2,3 -4,6 -6,9 1,4 2,16 -1,32z"/>
    <path class="fil11" d="M2691 2375c0,0 -82,106 -73,310 0,0 -254,88 -362,82 -108,-5 14,74 14,74 0,0 305,23 445,-74 141,-97 -24,-392 -24,-392z"/>
    <g>
     <path class="fil12" d="M2455 2177c0,0 28,82 173,-24 0,0 90,48 115,63 55,34 66,28 81,81l-129 425 44 168 -463 1 41 -187c4,-48 -14,-93 -48,-125 -66,-64 23,-170 93,-363 6,-16 93,-39 93,-39z"/>
    </g>
    <path class="fil13" d="M2280 2777l-120 -51 -49 -37c-4,-2 -7,-3 -11,-3l-58 5c-2,0 -4,1 -6,3 -10,7 -43,32 -35,32 10,0 29,-4 44,-14 0,0 43,0 48,-5 0,0 19,19 29,24 9,5 5,0 5,0l-65 20c-3,1 -6,3 -8,6 -8,12 -30,44 -38,51 0,0 24,10 43,-19 19,-29 72,-29 77,-24 0,0 -67,39 -86,77 0,0 9,24 24,5 29,-37 67,-48 82,-53l-28 31c-3,4 -3,10 1,14l27 22c0,0 4,-19 -5,-28l24 -25c0,0 26,53 105,22l0 -53z"/>
    <path class="fil13" d="M2490 2739c-103,22 -218,40 -218,40l2 51c105,2 190,-4 257,-14 -2,-40 -22,-63 -41,-77z"/>
    <path class="fil13" d="M2804 2253c-63,-27 -115,121 -115,121 -68,140 -51,324 -51,324 -23,13 -83,28 -148,41 19,14 39,37 41,77 139,-21 198,-56 198,-56 58,-87 137,-480 75,-507z"/>
    <path class="fil10" d="M2409 1808c0,0 50,21 96,-67 0,0 12,143 107,140l-28 -25c0,0 11,101 74,64 63,-36 -129,-228 -129,-228l-128 46 8 70z"/>
    <g>
     <path class="fil13" d="M2505 1725c0,0 -134,101 -116,256 8,70 24,92 52,113 34,25 145,9 174,-47l16 -46c0,0 27,25 55,-12 27,-36 21,-94 -18,-67l24 -73 -24 -64 -163 -60z"/>
    </g>
    <path class="fil7" d="M2691 1792l-98 -48 -137 -34c0,0 -167,58 -91,92 67,29 124,-38 137,-55 -1,21 1,54 20,82 16,23 42,40 77,48 -2,47 55,56 55,56l25 -19 49 -15 -37 -107zm-167 35l0 0c-11,-17 -16,-35 -18,-51 15,56 93,96 93,96 0,0 0,1 0,2 -34,-8 -59,-24 -75,-47z"/>
    <path class="fil14" d="M2599 1693c0,0 37,-16 74,57 0,0 45,106 0,204l-10 0c0,0 19,-180 -64,-261z"/>
    <path class="fil15" d="M2715 1963c0,24 -19,43 -42,43 -24,0 -43,-19 -43,-43 0,-23 19,-43 43,-43 23,0 42,20 42,43z"/>
    <path class="fil14" d="M2520 1928c-2,10 -7,17 -10,16 -4,-1 -4,-9 -2,-19 3,-10 7,-17 11,-16 3,1 4,9 1,19z"/>
    <path class="fil14" d="M2438 1912c-1,10 -4,18 -8,17 -3,0 -5,-8 -4,-18 1,-10 4,-18 7,-18 4,0 6,9 5,19z"/>
    <path class="fil16" d="M2429 2036c0,0 56,16 100,-28 0,0 0,52 -72,60 0,0 -12,0 -28,-32z"/>
    <path class="fil7" d="M2421 1864c0,-3 2,-5 4,-7 2,-3 4,-5 7,-6 3,-1 6,-2 9,-1 2,0 3,1 5,1 1,1 2,2 3,3l0 1c-2,0 -3,1 -4,1 -2,0 -3,0 -4,0 -2,0 -3,0 -4,0 -1,0 -2,0 -3,0 -3,0 -5,1 -7,3 -2,1 -4,3 -6,5l0 0z"/>
    <path class="fil7" d="M2544 1864c-1,-3 -3,-5 -4,-7 -2,-3 -5,-5 -8,-6 -3,-1 -6,-2 -9,-1 -1,0 -3,1 -4,1 -2,1 -3,2 -4,3l0 1c2,0 3,1 5,1 1,0 2,0 4,0 1,0 2,0 3,0 1,0 3,0 4,0 2,0 4,1 6,3 3,1 4,3 6,5l1 0z"/>
    <path class="fil17" d="M2454 1998c0,0 -42,-16 -32,-22 7,-5 25,-32 32,-48 1,-2 4,-2 4,0 1,17 3,49 -4,70z"/>
    <g>
     <path class="fil14" d="M2691 1963c0,10 -8,18 -18,18 -10,0 -19,-8 -19,-18 0,-10 9,-18 19,-18 10,0 18,8 18,18z"/>
     <g>
      <path class="fil14" d="M2634 2051l-138 0 0 -7 134 0c6,-10 34,-66 37,-72l6 3c-4,7 -37,72 -38,75l-1 1z"/>
     </g>
     <path class="fil14" d="M2508 2047c0,4 -8,8 -18,8 -10,0 -19,-4 -19,-8 0,-4 9,-8 19,-8 10,0 18,4 18,8z"/>
    </g>
    <path class="fil18" d="M3072 2902l-2100 0c-15,0 -28,-12 -28,-28 0,-15 13,-27 28,-27l2100 0c15,0 27,12 27,27 0,16 -12,28 -27,28z"/>
    <path class="fil19" d="M1609 2521c0,0 -58,225 0,289 58,64 -320,-24 -320,-24 0,0 52,-186 195,-265 143,-79 0,0 0,0l67 43 58 -43z"/>
    <g>
     <path class="fil20" d="M1108 2180l18 522c1,32 28,58 60,58l751 0c34,0 61,-28 60,-62l-18 -523c-1,-32 -28,-58 -60,-58l-751 0c-34,0 -61,29 -60,63z"/>
    </g>
    <path class="fil20" d="M1484 2521l125 0c0,0 -189,305 -20,326l-261 0c0,0 -51,-122 156,-326z"/>
    <path class="fil16" d="M1527 2309c0,-6 0,-12 2,-17 -1,0 -2,0 -2,0 -36,0 -65,29 -65,64 0,36 29,65 65,65 33,0 60,-26 64,-58 -3,0 -6,0 -10,0 -30,0 -54,-24 -54,-54z"/>
   </g>
   <g>
    <g>
     <path class="fil4" d="M2373 660l1135 0c20,0 36,16 36,36l0 286c0,12 -6,23 -16,30l-181 122c-10,7 -22,-2 -19,-13l37 -120 -992 0c-20,0 -36,-16 -36,-36l0 -269c0,-20 16,-36 36,-36z"/>
    </g>
    <polygon class="fil21" points="3346,1001 3346,1001 3463,1001 3345,1067 3365,1001 "/>
    <path class="fil16" d="M2474 751l949 0c8,0 15,-7 15,-15 0,-9 -7,-15 -15,-15l-949 0c-8,0 -15,6 -15,15 0,8 7,15 15,15z"/>
    <path class="fil16" d="M2474 828l949 0c8,0 15,-7 15,-15 0,-8 -7,-15 -15,-15l-949 0c-8,0 -15,7 -15,15 0,8 7,15 15,15z"/>
    <path class="fil16" d="M2959 905l468 0c6,0 11,-4 11,-10l0 -9c0,-6 -5,-11 -11,-11l-468 0c-5,0 -10,5 -10,11l0 9c0,6 5,10 10,10z"/>
   </g>
   <g>
    <path class="fil4" d="M1905 3491l236 0c9,0 16,7 16,16l0 124c0,5 -3,10 -7,13l-79 53c-4,3 -10,-1 -8,-5l16 -53 -174 0c-9,0 -16,-7 -16,-15l0 -117c0,-9 7,-16 16,-16z"/>
   </g>
   <g>
    <path class="fil4" d="M3586 1178l144 0c5,0 10,5 10,10l0 76c0,3 -2,6 -4,8l-49 32c-2,2 -5,0 -4,-3l9 -32 -106 0c-5,0 -9,-4 -9,-10l0 -71c0,-5 4,-10 9,-10z"/>
   </g>
   <g>
    <g>
     <path class="fil4" d="M3157 1059l-1235 0c-21,0 -39,18 -39,39l0 312c0,13 7,25 18,32l197 134c10,7 24,-3 20,-15l-40 -130 1079 0c22,0 39,-18 39,-39l0 -294c0,-21 -17,-39 -39,-39z"/>
    </g>
    <polygon class="fil22" points="2099,1431 2099,1431 1971,1431 2100,1502 2078,1431 "/>
    <path class="fil16" d="M3047 1159l-1032 0c-9,0 -17,-8 -17,-17 0,-9 8,-16 17,-16l1032 0c9,0 16,7 16,16 0,9 -7,17 -16,17z"/>
    <path class="fil16" d="M3047 1243l-1032 0c-9,0 -17,-8 -17,-17 0,-9 8,-16 17,-16l1032 0c9,0 16,7 16,16 0,9 -7,17 -16,17z"/>
    <path class="fil16" d="M2519 1327l-509 0c-6,0 -12,-5 -12,-12l0 -10c0,-6 6,-11 12,-11l509 0c7,0 12,5 12,11l0 10c0,7 -5,12 -12,12z"/>
   </g>
  </g>
 </g>
</svg>
