<?xml version="1.0" encoding="UTF-8"?>
<!DOCTYPE svg PUBLIC "-//W3C//DTD SVG 1.1//EN" "http://www.w3.org/Graphics/SVG/1.1/DTD/svg11.dtd">
<!-- Creator: CorelDRAW X7 -->
<svg xmlns="http://www.w3.org/2000/svg" xml:space="preserve" width="5in" height="5in" version="1.1" style="shape-rendering:geometricPrecision; text-rendering:geometricPrecision; image-rendering:optimizeQuality; fill-rule:evenodd; clip-rule:evenodd"
viewBox="0 0 5000 5000"
 xmlns:xlink="http://www.w3.org/1999/xlink"
 data-name="&lt;Layer&gt;">
 <defs>
  <style type="text/css">
   <![CDATA[
    .fil19 {fill:#010C38;fill-rule:nonzero}
    .fil18 {fill:#030E49;fill-rule:nonzero}
    .fil35 {fill:#0A1FC4;fill-rule:nonzero}
    .fil36 {fill:#0F21BD;fill-rule:nonzero}
    .fil24 {fill:#182FCF;fill-rule:nonzero}
    .fil30 {fill:#97AAFD;fill-rule:nonzero}
    .fil22 {fill:#DBD8C8;fill-rule:nonzero}
    .fil27 {fill:#DD0A57;fill-rule:nonzero}
    .fil28 {fill:#E2286B;fill-rule:nonzero}
    .fil17 {fill:#EF7531;fill-rule:nonzero}
    .fil21 {fill:#F29546;fill-rule:nonzero}
    .fil20 {fill:#F4EFE2;fill-rule:nonzero}
    .fil29 {fill:#FFBF00;fill-rule:nonzero}
    .fil25 {fill:#FFC389;fill-rule:nonzero}
    .fil32 {fill:#FFC40C;fill-rule:nonzero}
    .fil31 {fill:#FFD636;fill-rule:nonzero}
    .fil60 {fill:url(#id0)}
    .fil40 {fill:url(#id1)}
    .fil103 {fill:url(#id2)}
    .fil57 {fill:url(#id3)}
    .fil59 {fill:url(#id4)}
    .fil99 {fill:url(#id5)}
    .fil105 {fill:url(#id6)}
    .fil108 {fill:url(#id7)}
    .fil53 {fill:url(#id8)}
    .fil46 {fill:url(#id9)}
    .fil107 {fill:url(#id10)}
    .fil101 {fill:url(#id11)}
    .fil110 {fill:url(#id12)}
    .fil47 {fill:url(#id13)}
    .fil68 {fill:url(#id14)}
    .fil49 {fill:url(#id15)}
    .fil90 {fill:url(#id16)}
    .fil66 {fill:url(#id17)}
    .fil54 {fill:url(#id18)}
    .fil43 {fill:url(#id19)}
    .fil79 {fill:url(#id20)}
    .fil50 {fill:url(#id21)}
    .fil100 {fill:url(#id22)}
    .fil114 {fill:url(#id23)}
    .fil63 {fill:url(#id24)}
    .fil85 {fill:url(#id25)}
    .fil45 {fill:url(#id26)}
    .fil98 {fill:url(#id27)}
    .fil75 {fill:url(#id28)}
    .fil48 {fill:url(#id29)}
    .fil82 {fill:url(#id30)}
    .fil73 {fill:url(#id31)}
    .fil65 {fill:url(#id32)}
    .fil42 {fill:url(#id33)}
    .fil115 {fill:url(#id34)}
    .fil77 {fill:url(#id35)}
    .fil71 {fill:url(#id36)}
    .fil93 {fill:url(#id37)}
    .fil72 {fill:url(#id38)}
    .fil70 {fill:url(#id39)}
    .fil41 {fill:url(#id40)}
    .fil97 {fill:url(#id41)}
    .fil88 {fill:url(#id42)}
    .fil86 {fill:url(#id43)}
    .fil91 {fill:url(#id44)}
    .fil56 {fill:url(#id45)}
    .fil61 {fill:url(#id46)}
    .fil84 {fill:url(#id47)}
    .fil80 {fill:url(#id48)}
    .fil81 {fill:url(#id49)}
    .fil95 {fill:url(#id50)}
    .fil83 {fill:url(#id51)}
    .fil111 {fill:url(#id52)}
    .fil58 {fill:url(#id53)}
    .fil44 {fill:url(#id54)}
    .fil67 {fill:url(#id55)}
    .fil76 {fill:url(#id56)}
    .fil55 {fill:url(#id57)}
    .fil51 {fill:url(#id58)}
    .fil62 {fill:url(#id59)}
    .fil89 {fill:url(#id60)}
    .fil69 {fill:url(#id61)}
    .fil78 {fill:url(#id62)}
    .fil74 {fill:url(#id63)}
    .fil109 {fill:url(#id64)}
    .fil94 {fill:url(#id65)}
    .fil104 {fill:url(#id66)}
    .fil96 {fill:url(#id67)}
    .fil52 {fill:url(#id68)}
    .fil64 {fill:url(#id69)}
    .fil102 {fill:url(#id70)}
    .fil87 {fill:url(#id71)}
    .fil92 {fill:url(#id72)}
    .fil106 {fill:url(#id73)}
    .fil112 {fill:url(#id74)}
    .fil113 {fill:url(#id75)}
    .fil12 {fill:url(#id76);fill-rule:nonzero}
    .fil38 {fill:url(#id77);fill-rule:nonzero}
    .fil8 {fill:url(#id78);fill-rule:nonzero}
    .fil14 {fill:url(#id79);fill-rule:nonzero}
    .fil37 {fill:url(#id80);fill-rule:nonzero}
    .fil9 {fill:url(#id81);fill-rule:nonzero}
    .fil1 {fill:url(#id82);fill-rule:nonzero}
    .fil13 {fill:url(#id83);fill-rule:nonzero}
    .fil2 {fill:url(#id84);fill-rule:nonzero}
    .fil11 {fill:url(#id85);fill-rule:nonzero}
    .fil39 {fill:url(#id86);fill-rule:nonzero}
    .fil0 {fill:url(#id87);fill-rule:nonzero}
    .fil4 {fill:url(#id88);fill-rule:nonzero}
    .fil23 {fill:url(#id89);fill-rule:nonzero}
    .fil6 {fill:url(#id90);fill-rule:nonzero}
    .fil7 {fill:url(#id91);fill-rule:nonzero}
    .fil34 {fill:url(#id92);fill-rule:nonzero}
    .fil16 {fill:url(#id93);fill-rule:nonzero}
    .fil10 {fill:url(#id94);fill-rule:nonzero}
    .fil33 {fill:url(#id95);fill-rule:nonzero}
    .fil15 {fill:url(#id96);fill-rule:nonzero}
    .fil3 {fill:url(#id97);fill-rule:nonzero}
    .fil26 {fill:url(#id98);fill-rule:nonzero}
    .fil5 {fill:url(#id99);fill-rule:nonzero}
   ]]>
  </style>
  <linearGradient id="id0" gradientUnits="userSpaceOnUse" x1="4611.72" y1="1879.67" x2="4664.29" y2="1879.67">
   <stop offset="0" style="stop-opacity:1; stop-color:#D6DFFB"/>
   <stop offset="0.419608" style="stop-opacity:1; stop-color:#A8C2FD"/>
   <stop offset="1" style="stop-opacity:1; stop-color:#79A5FF"/>
  </linearGradient>
  <linearGradient id="id1" gradientUnits="userSpaceOnUse" xlink:href="#id0" x1="4285.7" y1="852.398" x2="4335.69" y2="852.398">
  </linearGradient>
  <linearGradient id="id2" gradientUnits="userSpaceOnUse" x1="919.083" y1="4516.22" x2="969.378" y2="4516.22">
   <stop offset="0" style="stop-opacity:1; stop-color:#B3B6CC"/>
   <stop offset="0.301961" style="stop-opacity:1; stop-color:#8D90B2"/>
   <stop offset="1" style="stop-opacity:1; stop-color:#676997"/>
  </linearGradient>
  <linearGradient id="id3" gradientUnits="userSpaceOnUse" xlink:href="#id0" x1="4411.97" y1="1737.26" x2="4464.98" y2="1737.26">
  </linearGradient>
  <linearGradient id="id4" gradientUnits="userSpaceOnUse" xlink:href="#id0" x1="4674.61" y1="1931.3" x2="4726.82" y2="1931.3">
  </linearGradient>
  <linearGradient id="id5" gradientUnits="userSpaceOnUse" xlink:href="#id2" x1="358.311" y1="4290.04" x2="407.071" y2="4290.04">
  </linearGradient>
  <linearGradient id="id6" gradientUnits="userSpaceOnUse" xlink:href="#id2" x1="777.748" y1="4465.44" x2="824.988" y2="4465.44">
  </linearGradient>
  <linearGradient id="id7" gradientUnits="userSpaceOnUse" xlink:href="#id2" x1="983.827" y1="4557.07" x2="1034.19" y2="4557.07">
  </linearGradient>
  <linearGradient id="id8" gradientUnits="userSpaceOnUse" xlink:href="#id0" x1="4276.69" y1="1643.98" x2="4329.55" y2="1643.98">
  </linearGradient>
  <linearGradient id="id9" gradientUnits="userSpaceOnUse" xlink:href="#id0" x1="4099.43" y1="1294.21" x2="4127.47" y2="1294.21">
  </linearGradient>
  <linearGradient id="id10" gradientUnits="userSpaceOnUse" xlink:href="#id2" x1="1042.48" y1="4605.75" x2="1092.11" y2="4605.75">
  </linearGradient>
  <linearGradient id="id11" gradientUnits="userSpaceOnUse" xlink:href="#id2" x1="625.244" y1="4435.81" x2="673.323" y2="4435.81">
  </linearGradient>
  <linearGradient id="id12" gradientUnits="userSpaceOnUse" xlink:href="#id2" x1="1189.97" y1="4782.79" x2="1236.61" y2="4782.79">
  </linearGradient>
  <linearGradient id="id13" gradientUnits="userSpaceOnUse" xlink:href="#id0" x1="4103.24" y1="1211.5" x2="4138.2" y2="1211.5">
  </linearGradient>
  <linearGradient id="id14" gradientUnits="userSpaceOnUse" xlink:href="#id0" x1="4897.94" y1="2573.28" x2="4940.63" y2="2573.28">
  </linearGradient>
  <linearGradient id="id15" gradientUnits="userSpaceOnUse" xlink:href="#id0" x1="4164.54" y1="1526.36" x2="4213.15" y2="1526.36">
  </linearGradient>
  <linearGradient id="id16" gradientUnits="userSpaceOnUse" x1="3690.26" y1="724.48" x2="3740.84" y2="724.48">
   <stop offset="0" style="stop-opacity:1; stop-color:#F9B3C6"/>
   <stop offset="0.301961" style="stop-opacity:1; stop-color:#EB5E8E"/>
   <stop offset="1" style="stop-opacity:1; stop-color:#DD0856"/>
  </linearGradient>
  <linearGradient id="id17" gradientUnits="userSpaceOnUse" xlink:href="#id0" x1="4918.08" y1="2255.84" x2="4957.89" y2="2255.84">
  </linearGradient>
  <linearGradient id="id18" gradientUnits="userSpaceOnUse" xlink:href="#id0" x1="4216.09" y1="1589.72" x2="4267.71" y2="1589.72">
  </linearGradient>
  <linearGradient id="id19" gradientUnits="userSpaceOnUse" xlink:href="#id0" x1="4151.72" y1="1056.53" x2="4196.45" y2="1056.53">
  </linearGradient>
  <linearGradient id="id20" gradientUnits="userSpaceOnUse" xlink:href="#id16" x1="3218.44" y1="402.547" x2="3270.54" y2="402.547">
  </linearGradient>
  <linearGradient id="id21" gradientUnits="userSpaceOnUse" xlink:href="#id0" x1="4126.78" y1="1454.92" x2="4170.15" y2="1454.92">
  </linearGradient>
  <linearGradient id="id22" gradientUnits="userSpaceOnUse" xlink:href="#id2" x1="701.311" y1="4451.3" x2="748.48" y2="4451.3">
  </linearGradient>
  <linearGradient id="id23" gradientUnits="userSpaceOnUse" xlink:href="#id0" x1="1497.1" y1="1108.22" x2="1653.61" y2="1108.22">
  </linearGradient>
  <linearGradient id="id24" gradientUnits="userSpaceOnUse" xlink:href="#id0" x1="4790.6" y1="2047.07" x2="4840.74" y2="2047.07">
  </linearGradient>
  <linearGradient id="id25" gradientUnits="userSpaceOnUse" xlink:href="#id16" x1="3635.13" y1="661.591" x2="3686.97" y2="661.591">
  </linearGradient>
  <linearGradient id="id26" gradientUnits="userSpaceOnUse" xlink:href="#id0" x1="4235.66" y1="917.531" x2="4284.57" y2="917.531">
  </linearGradient>
  <linearGradient id="id27" gradientUnits="userSpaceOnUse" xlink:href="#id2" x1="412.559" y1="4343.68" x2="463.252" y2="4343.68">
  </linearGradient>
  <linearGradient id="id28" gradientUnits="userSpaceOnUse" xlink:href="#id16" x1="2563.37" y1="393.709" x2="2614.36" y2="393.709">
  </linearGradient>
  <linearGradient id="id29" gradientUnits="userSpaceOnUse" xlink:href="#id0" x1="4121.37" y1="1132.49" x2="4162.13" y2="1132.49">
  </linearGradient>
  <linearGradient id="id30" gradientUnits="userSpaceOnUse" xlink:href="#id16" x1="3443.47" y1="504.189" x2="3496.73" y2="504.189">
  </linearGradient>
  <linearGradient id="id31" gradientUnits="userSpaceOnUse" xlink:href="#id16" x1="2727.31" y1="366.15" x2="2776.3" y2="366.15">
  </linearGradient>
  <linearGradient id="id32" gradientUnits="userSpaceOnUse" xlink:href="#id0" x1="4939.03" y1="2334.3" x2="4971.39" y2="2334.3">
  </linearGradient>
  <linearGradient id="id33" gradientUnits="userSpaceOnUse" xlink:href="#id0" x1="4393.45" y1="730.067" x2="4444.51" y2="730.067">
  </linearGradient>
  <linearGradient id="id34" gradientUnits="userSpaceOnUse" x1="1408.78" y1="4417.61" x2="1565.29" y2="4417.61">
   <stop offset="0" style="stop-opacity:1; stop-color:#B8C1F0"/>
   <stop offset="0.25098" style="stop-opacity:1; stop-color:#8274B9"/>
   <stop offset="1" style="stop-opacity:1; stop-color:#4B2682"/>
  </linearGradient>
  <linearGradient id="id35" gradientUnits="userSpaceOnUse" xlink:href="#id16" x1="2894.19" y1="356.378" x2="2940.82" y2="356.378">
  </linearGradient>
  <linearGradient id="id36" gradientUnits="userSpaceOnUse" xlink:href="#id16" x1="2402.42" y1="437.571" x2="2454.79" y2="437.571">
  </linearGradient>
  <linearGradient id="id37" gradientUnits="userSpaceOnUse" xlink:href="#id2" x1="199.374" y1="3864.09" x2="231.012" y2="3864.09">
  </linearGradient>
  <linearGradient id="id38" gradientUnits="userSpaceOnUse" xlink:href="#id16" x1="2324.39" y1="465.303" x2="2377.33" y2="465.303">
  </linearGradient>
  <linearGradient id="id39" gradientUnits="userSpaceOnUse" xlink:href="#id16" x1="2482.07" y1="413.815" x2="2533.8" y2="413.815">
  </linearGradient>
  <linearGradient id="id40" gradientUnits="userSpaceOnUse" xlink:href="#id0" x1="4338.59" y1="790.217" x2="4389.26" y2="790.217">
  </linearGradient>
  <linearGradient id="id41" gradientUnits="userSpaceOnUse" xlink:href="#id2" x1="477.657" y1="4385.17" x2="528.567" y2="4385.17">
  </linearGradient>
  <linearGradient id="id42" gradientUnits="userSpaceOnUse" xlink:href="#id16" x1="3785.56" y1="860.374" x2="3832.71" y2="860.374">
  </linearGradient>
  <linearGradient id="id43" gradientUnits="userSpaceOnUse" xlink:href="#id16" x1="3575.69" y1="603.764" x2="3628.43" y2="603.764">
  </linearGradient>
  <linearGradient id="id44" gradientUnits="userSpaceOnUse" xlink:href="#id2" x1="225.484" y1="4015.17" x2="263.409" y2="4015.17">
  </linearGradient>
  <linearGradient id="id45" gradientUnits="userSpaceOnUse" xlink:href="#id0" x1="4479.31" y1="1783.08" x2="4532.25" y2="1783.08">
  </linearGradient>
  <linearGradient id="id46" gradientUnits="userSpaceOnUse" xlink:href="#id0" x1="4883.35" y1="2181.25" x2="4928.3" y2="2181.25">
  </linearGradient>
  <linearGradient id="id47" gradientUnits="userSpaceOnUse" xlink:href="#id16" x1="3296.53" y1="430.142" x2="3349.41" y2="430.142">
  </linearGradient>
  <linearGradient id="id48" gradientUnits="userSpaceOnUse" xlink:href="#id16" x1="3139.08" y1="381.819" x2="3189.89" y2="381.819">
  </linearGradient>
  <linearGradient id="id49" gradientUnits="userSpaceOnUse" xlink:href="#id16" x1="3058.61" y1="367.657" x2="3107.99" y2="367.657">
  </linearGradient>
  <linearGradient id="id50" gradientUnits="userSpaceOnUse" xlink:href="#id2" x1="277.906" y1="4159.39" x2="321.524" y2="4159.39">
  </linearGradient>
  <linearGradient id="id51" gradientUnits="userSpaceOnUse" xlink:href="#id16" x1="3371.43" y1="463.862" x2="3424.67" y2="463.862">
  </linearGradient>
  <linearGradient id="id52" gradientUnits="userSpaceOnUse" xlink:href="#id2" x1="1145.06" y1="4720.64" x2="1192.57" y2="4720.64">
  </linearGradient>
  <linearGradient id="id53" gradientUnits="userSpaceOnUse" xlink:href="#id0" x1="4734.47" y1="1986.93" x2="4785.8" y2="1986.93">
  </linearGradient>
  <linearGradient id="id54" gradientUnits="userSpaceOnUse" xlink:href="#id0" x1="4190.62" y1="985.098" x2="4237.9" y2="985.098">
  </linearGradient>
  <linearGradient id="id55" gradientUnits="userSpaceOnUse" xlink:href="#id0" x1="4859.28" y1="2645.41" x2="4906.02" y2="2645.41">
  </linearGradient>
  <linearGradient id="id56" gradientUnits="userSpaceOnUse" xlink:href="#id16" x1="2976.51" y1="359.26" x2="3024.34" y2="359.26">
  </linearGradient>
  <linearGradient id="id57" gradientUnits="userSpaceOnUse" xlink:href="#id0" x1="4546.08" y1="1830.13" x2="4598.9" y2="1830.13">
  </linearGradient>
  <linearGradient id="id58" gradientUnits="userSpaceOnUse" xlink:href="#id0" x1="4104.82" y1="1377.13" x2="4141.15" y2="1377.13">
  </linearGradient>
  <linearGradient id="id59" gradientUnits="userSpaceOnUse" xlink:href="#id0" x1="4840.58" y1="2111.55" x2="4888.44" y2="2111.55">
  </linearGradient>
  <linearGradient id="id60" gradientUnits="userSpaceOnUse" xlink:href="#id16" x1="3740.12" y1="790.681" x2="3789.11" y2="790.681">
  </linearGradient>
  <linearGradient id="id61" gradientUnits="userSpaceOnUse" xlink:href="#id0" x1="4925.93" y1="2496.76" x2="4963.07" y2="2496.76">
  </linearGradient>
  <linearGradient id="id62" gradientUnits="userSpaceOnUse" xlink:href="#id16" x1="2810.99" y1="358.961" x2="2858.68" y2="358.961">
  </linearGradient>
  <linearGradient id="id63" gradientUnits="userSpaceOnUse" xlink:href="#id16" x1="2644.83" y1="378" x2="2694.93" y2="378">
  </linearGradient>
  <linearGradient id="id64" gradientUnits="userSpaceOnUse" xlink:href="#id2" x1="1232.61" y1="4846.79" x2="1278.71" y2="4846.79">
  </linearGradient>
  <linearGradient id="id65" gradientUnits="userSpaceOnUse" xlink:href="#id2" x1="314.453" y1="4226.74" x2="360.319" y2="4226.74">
  </linearGradient>
  <linearGradient id="id66" gradientUnits="userSpaceOnUse" xlink:href="#id2" x1="850.079" y1="4485.64" x2="899.224" y2="4485.64">
  </linearGradient>
  <linearGradient id="id67" gradientUnits="userSpaceOnUse" xlink:href="#id2" x1="248.52" y1="4088.91" x2="289.311" y2="4088.91">
  </linearGradient>
  <linearGradient id="id68" gradientUnits="userSpaceOnUse" xlink:href="#id0" x1="4343.67" y1="1691.27" x2="4396.7" y2="1691.27">
  </linearGradient>
  <linearGradient id="id69" gradientUnits="userSpaceOnUse" xlink:href="#id0" x1="4942.04" y1="2416.43" x2="4972.14" y2="2416.43">
  </linearGradient>
  <linearGradient id="id70" gradientUnits="userSpaceOnUse" xlink:href="#id2" x1="550.252" y1="4415.1" x2="599.862" y2="4415.1">
  </linearGradient>
  <linearGradient id="id71" gradientUnits="userSpaceOnUse" xlink:href="#id16" x1="3511.99" y1="551.343" x2="3565.21" y2="551.343">
  </linearGradient>
  <linearGradient id="id72" gradientUnits="userSpaceOnUse" xlink:href="#id2" x1="209.177" y1="3940.11" x2="244.122" y2="3940.11">
  </linearGradient>
  <linearGradient id="id73" gradientUnits="userSpaceOnUse" xlink:href="#id2" x1="1095.96" y1="4660.8" x2="1144.52" y2="4660.8">
  </linearGradient>
  <linearGradient id="id74" gradientUnits="userSpaceOnUse" xlink:href="#id16" x1="4629.34" y1="395.819" x2="4890.93" y2="395.819">
  </linearGradient>
  <linearGradient id="id75" gradientUnits="userSpaceOnUse" xlink:href="#id16" x1="7.33465" y1="2933.16" x2="268.917" y2="2933.16">
  </linearGradient>
  <linearGradient id="id76" gradientUnits="userSpaceOnUse" x1="560.992" y1="2292.42" x2="1066.74" y2="2292.42">
   <stop offset="0" style="stop-opacity:1; stop-color:#071685"/>
   <stop offset="0.211765" style="stop-opacity:1; stop-color:#071685"/>
   <stop offset="0.909804" style="stop-opacity:1; stop-color:#010C38"/>
   <stop offset="1" style="stop-opacity:1; stop-color:#010C38"/>
   <stop offset="1" style="stop-opacity:1; stop-color:#010C38"/>
  </linearGradient>
  <linearGradient id="id77" gradientUnits="userSpaceOnUse" x1="980.941" y1="817.496" x2="536.559" y2="1440.98">
   <stop offset="0" style="stop-opacity:1; stop-color:#F6F9F9"/>
   <stop offset="0.0196078" style="stop-opacity:1; stop-color:#F6F9F9"/>
   <stop offset="0.188235" style="stop-opacity:1; stop-color:#F6F9F9"/>
   <stop offset="1" style="stop-opacity:1; stop-color:#909EDB"/>
   <stop offset="1" style="stop-opacity:1; stop-color:#909EDB"/>
  </linearGradient>
  <linearGradient id="id78" gradientUnits="userSpaceOnUse" xlink:href="#id16" x1="4125.04" y1="2115.94" x2="4413.79" y2="2115.94">
  </linearGradient>
  <linearGradient id="id79" gradientUnits="userSpaceOnUse" x1="-136.209" y1="3991.95" x2="3634.28" y2="3991.95">
   <stop offset="0" style="stop-opacity:0.101961; stop-color:#D6DFFB"/>
   <stop offset="0.101961" style="stop-opacity:0.101961; stop-color:#D6DFFB"/>
   <stop offset="0.858824" style="stop-opacity:0.101961; stop-color:#24429E"/>
   <stop offset="1" style="stop-opacity:0.901961; stop-color:#24429E"/>
   <stop offset="1" style="stop-opacity:0.901961; stop-color:#24429E"/>
  </linearGradient>
  <linearGradient id="id80" gradientUnits="userSpaceOnUse" x1="1453.42" y1="1704.44" x2="1483.71" y2="1704.44">
   <stop offset="0" style="stop-opacity:1; stop-color:#030E49"/>
   <stop offset="0.560784" style="stop-opacity:1; stop-color:#030E49"/>
   <stop offset="0.768627" style="stop-opacity:1; stop-color:#010C38"/>
   <stop offset="1" style="stop-opacity:1; stop-color:#010C38"/>
   <stop offset="1" style="stop-opacity:1; stop-color:#010C38"/>
  </linearGradient>
  <linearGradient id="id81" gradientUnits="userSpaceOnUse" xlink:href="#id76" x1="3624.08" y1="2370.06" x2="4256.55" y2="2370.06">
  </linearGradient>
  <linearGradient id="id82" gradientUnits="userSpaceOnUse" xlink:href="#id76" x1="1964.78" y1="1669.03" x2="2287" y2="1669.03">
  </linearGradient>
  <linearGradient id="id83" gradientUnits="userSpaceOnUse" xlink:href="#id76" x1="557.752" y1="2292.63" x2="1070.67" y2="2292.63">
  </linearGradient>
  <linearGradient id="id84" gradientUnits="userSpaceOnUse" xlink:href="#id76" x1="1957.99" y1="1669" x2="2293.71" y2="1669">
  </linearGradient>
  <linearGradient id="id85" gradientUnits="userSpaceOnUse" xlink:href="#id34" x1="1157.19" y1="2545.51" x2="489.276" y2="2032.94">
  </linearGradient>
  <linearGradient id="id86" gradientUnits="userSpaceOnUse" xlink:href="#id77" x1="1319.6" y1="321.665" x2="1097.41" y2="633.409">
  </linearGradient>
  <linearGradient id="id87" gradientUnits="userSpaceOnUse" xlink:href="#id16" x1="1914.41" y1="1654.77" x2="2339.7" y2="1654.77">
  </linearGradient>
  <linearGradient id="id88" gradientUnits="userSpaceOnUse" xlink:href="#id34" x1="2333.29" y1="1281.86" x2="2513.57" y2="1281.86">
  </linearGradient>
  <linearGradient id="id89" gradientUnits="userSpaceOnUse" x1="3121.29" y1="1874.5" x2="3473.17" y2="1874.5">
   <stop offset="0" style="stop-opacity:1; stop-color:#DBD8C8"/>
   <stop offset="1" style="stop-opacity:1; stop-color:#F4EFE2"/>
  </linearGradient>
  <linearGradient id="id90" gradientUnits="userSpaceOnUse" xlink:href="#id76" x1="2328.43" y1="1351.91" x2="2436.86" y2="1351.91">
  </linearGradient>
  <linearGradient id="id91" gradientUnits="userSpaceOnUse" xlink:href="#id2" x1="3722.15" y1="1607" x2="3945.52" y2="1607">
  </linearGradient>
  <linearGradient id="id92" gradientUnits="userSpaceOnUse" x1="4396.46" y1="2654.74" x2="4507.76" y2="2654.74">
   <stop offset="0" style="stop-opacity:1; stop-color:#030F4B"/>
   <stop offset="0.231373" style="stop-opacity:1; stop-color:#020E42"/>
   <stop offset="1" style="stop-opacity:1; stop-color:#010C38"/>
  </linearGradient>
  <linearGradient id="id93" gradientUnits="userSpaceOnUse" xlink:href="#id76" x1="1373.4" y1="3997.9" x2="1373.4" y2="2387.62">
  </linearGradient>
  <linearGradient id="id94" gradientUnits="userSpaceOnUse" xlink:href="#id76" x1="3860.04" y1="1928.58" x2="4019.12" y2="1928.58">
  </linearGradient>
  <linearGradient id="id95" gradientUnits="userSpaceOnUse" xlink:href="#id92" x1="4439.61" y1="2669.46" x2="4629.85" y2="2669.46">
  </linearGradient>
  <linearGradient id="id96" gradientUnits="userSpaceOnUse" xlink:href="#id0" x1="1933.37" y1="2508.8" x2="4084" y2="2508.8">
  </linearGradient>
  <linearGradient id="id97" gradientUnits="userSpaceOnUse" xlink:href="#id34" x1="2067.5" y1="1028.31" x2="2251.74" y2="1028.31">
  </linearGradient>
  <linearGradient id="id98" gradientUnits="userSpaceOnUse" x1="2427.09" y1="4122.16" x2="2862" y2="4122.16">
   <stop offset="0" style="stop-opacity:1; stop-color:#071685"/>
   <stop offset="0.411765" style="stop-opacity:1; stop-color:#04115F"/>
   <stop offset="1" style="stop-opacity:1; stop-color:#010C38"/>
  </linearGradient>
  <linearGradient id="id99" gradientUnits="userSpaceOnUse" xlink:href="#id76" x1="2137.21" y1="1559.22" x2="2378.63" y2="1559.22">
  </linearGradient>
 </defs>
 <g id="Layer_x0020_1">
  <metadata id="CorelCorpID_0Corel-Layer"/>
  <g id="_954767008">
   <g>
    <path class="fil0" d="M2064 1410c8,20 13,43 26,61 13,19 36,33 57,25 16,-5 28,-21 45,-20 17,2 26,21 29,38 4,17 3,35 -1,53 -5,23 -17,48 -7,70 8,19 28,29 46,38 13,7 25,14 37,22 21,14 43,32 44,57 0,20 -14,38 -24,55 -25,42 -32,94 -19,140 6,21 14,46 -2,60 -24,-8 -49,-12 -74,-11 -14,1 -28,3 -42,3 -29,1 -59,-6 -85,-21 -15,-8 -29,-20 -34,-37 -5,-17 2,-35 8,-51 7,-17 14,-34 21,-51 -9,-18 -31,-24 -51,-27 -20,-3 -42,-4 -57,-16 -19,-15 -24,-43 -18,-66 6,-23 20,-43 34,-63 13,-20 27,-40 32,-64 7,-36 -7,-73 -28,-103 -20,-31 -46,-58 -64,-89 -17,-27 -48,-120 15,-112 49,6 95,67 112,109z"/>
    <g>
     <path class="fil1" d="M2097 1553c-36,-74 -85,-140 -132,-202l5 -3c47,61 97,128 132,202 10,21 18,43 26,67l57 -88 5 4 -59 91 -2 -2c7,25 12,51 17,80 2,13 3,26 5,39 5,40 10,82 25,119 0,1 0,2 1,2l39 -112 6 2 -42 119c26,54 70,89 107,114l-4 5c-37,-25 -83,-62 -109,-119l0 0 0 0c-2,-3 -3,-5 -4,-8 -16,-39 -21,-80 -25,-121 -1,-3 -1,-7 -2,-11l-98 -14 0 -6 97 14c-1,-8 -2,-15 -3,-22 -9,-59 -23,-109 -42,-150z"/>
     <path class="fil2" d="M2285 1997l-4 -3c-38,-25 -84,-61 -111,-119l-2 -1 0 -3c0,-2 -1,-4 -2,-6 -16,-40 -21,-82 -26,-122l-1 -8 -100 -14 2 -16 96 14c-1,-5 -2,-10 -2,-15 -9,-59 -23,-108 -43,-149 -35,-74 -84,-140 -131,-201l-3 -3 13 -10 3 4c47,61 97,128 133,203 8,18 16,37 22,58l54 -83 14 8 -62 95c6,23 11,49 15,75 2,13 4,27 6,40 4,36 8,73 20,107l37 -104 15 5 -42 121c25,53 68,87 104,111l4 3 -9 13z"/>
    </g>
   </g>
   <g>
    <path class="fil3" d="M2232 1261c-25,-29 -48,-59 -69,-90 -53,-78 -123,-187 -84,-286 13,-36 41,-65 76,-81 17,-8 37,-10 55,-5 28,9 40,35 42,63 1,35 -13,68 -28,98 -29,61 -35,124 -23,190 5,26 12,52 20,78 2,9 5,26 11,33z"/>
    <path class="fil4" d="M2369 1467c6,-41 9,-84 7,-124 -3,-44 -17,-86 -31,-127 -11,-32 -21,-71 5,-100 27,-30 75,-20 105,0 140,95 -4,272 -86,351z"/>
    <g>
     <path class="fil5" d="M2242 2204c-9,8 -17,14 -26,20l-11 -16c30,-19 56,-47 77,-81 61,-96 86,-228 75,-406 -1,-12 -1,-24 -2,-36 -14,-162 -74,-304 -132,-420 -59,-119 -112,-245 -71,-371l18 6c-39,119 11,236 70,356 59,119 120,262 134,427 1,13 2,25 2,37 11,182 -14,318 -77,417 -17,27 -36,49 -57,67z"/>
    </g>
    <g>
     <path class="fil6" d="M2342 1513l-14 -14c130,-132 80,-301 80,-302l18 -6c1,2 54,181 -84,322z"/>
    </g>
   </g>
   <g>
    <path class="fil7" d="M3945 1699c0,0 25,-180 -223,-185 0,0 48,202 223,185z"/>
    <path class="fil8" d="M4125 2119c0,0 107,147 289,-21 0,0 -175,-113 -289,21z"/>
    <g>
     <path class="fil9" d="M3639 2647c113,-290 275,-421 390,-479 126,-64 226,-59 227,-59l1 -16c-5,0 -105,-5 -234,60 -118,60 -284,193 -399,488l15 6z"/>
    </g>
    <g>
     <path class="fil10" d="M3893 2260c154,-205 139,-374 100,-480 -42,-115 -120,-180 -123,-183l-10 12c1,1 78,66 119,177 53,146 20,307 -98,465l12 9z"/>
    </g>
   </g>
   <g>
    <g>
     <path class="fil11" d="M1087 2404c9,122 -25,227 -25,228l-1 3 -140 -26c-106,-30 -190,-83 -250,-158 -48,-60 -82,-135 -99,-222 -30,-147 -3,-280 -3,-282l1 -4 208 80 -1 59 50 -27 2 0c85,32 151,82 195,149 35,53 56,118 62,192 1,2 1,5 1,8z"/>
    </g>
    <g>
     <path class="fil12" d="M1067 2298l-7 -3 -96 245c-27,-27 -52,-53 -75,-80l123 -270 -6 -3 -122 268c-18,-21 -35,-41 -51,-61l114 -271 -7 -3 -112 268c-25,-33 -48,-64 -69,-95l86 -228 -6 -2 -85 224c-26,-39 -49,-75 -67,-107 -1,-1 -1,-2 -2,-2l61 -163 -6 -3 -59 158c-21,-37 -39,-71 -54,-101l16 -95 -6 -1 -15 85c-31,-65 -46,-106 -46,-107l-6 2c0,1 15,45 49,113l-58 5 0 6 61 -4c15,30 33,64 54,102l-107 8 1 7 110 -9c0,1 0,1 1,2 19,32 42,69 68,108l-150 22 1 7 154 -22c21,30 44,62 69,94l-164 35 1 7 168 -36c16,21 33,41 51,62l-128 62 3 6 130 -63c23,26 48,53 75,79l-97 39 2 6 100 -39c29,28 60,56 93,84l4 -5c-33,-28 -63,-56 -92,-84l98 -247z"/>
     <path class="fil13" d="M1057 2638l-2 -2c-31,-26 -62,-54 -92,-83l-101 40 -4 -12 95 -38c-23,-23 -46,-48 -70,-74l-130 63 -6 -11 128 -62c-17,-19 -33,-38 -48,-57l-169 35 -2 -12 162 -35c-23,-28 -45,-59 -66,-89l-154 22 -2 -13 148 -21c-23,-35 -46,-70 -66,-104l-111 8 -1 -13 105 -8c-18,-32 -35,-64 -51,-96l-61 5 -1 -13 56 -4c-32,-67 -47,-109 -47,-110l-1 -3 12 -4 1 3c0,1 13,38 42,98l13 -78 13 2 -17 96c16,32 33,64 51,95l57 -155 12 5 -61 164 0 1c20,34 42,68 64,102l84 -221 12 4 -87 230c21,30 43,60 66,89l111 -266 12 5 -114 272c15,19 30,38 46,56l122 -266 11 5 -1 3 -123 269c23,26 47,51 70,74l97 -243 12 5 -99 248c30,29 60,57 91,82l2 2 -8 10zm-92 -92l0 0 1 1c30,29 60,57 90,82l1 0c-31,-26 -61,-53 -90,-82l-2 -2 98 -246 -1 0 -97 246 -4 -3c-25,-25 -50,-52 -74,-80l-2 -1 123 -270 0 0 -123 269 -3 -3c-18,-20 -35,-41 -51,-61l-1 -2 113 -270 -1 0 -113 270 -3 -4c-24,-31 -47,-63 -70,-95l-1 -1 1 -2 85 -225 -1 0 -85 226 -3 -5c-24,-35 -47,-71 -68,-107l-2 -3 60 -162 0 0 -60 161 -4 -5c-19,-34 -37,-68 -53,-102l-1 -1 16 -92 -1 0 -15 91 -5 -8c-26,-56 -41,-95 -45,-105l0 0c4,11 19,52 47,110l2 4 -59 4 0 1 60 -4 1 2c16,34 34,68 54,101l2 5 -109 8 1 0 109 -8 1 3c21,36 44,73 69,109l3 4 -152 21 0 1 152 -22 1 2c22,32 46,64 70,94l3 4 -166 36 0 0 166 -35 1 1c17,21 34,42 52,62l2 3 -128 63 0 0 129 -63 1 2c25,28 50,54 75,79l3 4 -99 38 1 1 99 -39z"/>
    </g>
   </g>
   <path class="fil14" d="M-133 3925c-2,7 -3,13 -3,20 0,0 147,92 179,114l3590 0c1,-4 1,-7 1,-10 0,0 -156,-99 -194,-124l-3573 0z"/>
   <g>
    <path class="fil15" d="M3911 2304c0,0 -206,-6 -442,0 -236,6 -418,31 -496,-90 -79,-121 63,-473 0,-706 -64,-233 -134,-481 -306,-502 -173,-21 -233,133 -233,133l42 521 -543 727 0 1367c182,238 420,258 420,258l1133 0c0,0 131,24 202,-88 72,-112 -9,-228 -31,-241 -22,-13 -12,-37 -12,-37 1,-15 21,-19 21,-19 59,2 163,-33 192,-164 30,-132 -102,-224 -102,-224 -16,-21 7,-29 7,-29 39,9 207,-17 230,-174 22,-158 -89,-245 -114,-250 -26,-5 -13,-28 -13,-28 223,-27 217,-208 217,-208 13,-182 -172,-246 -172,-246z"/>
    <g>
     <path class="fil16" d="M1789 2388l-831 0c-33,0 -60,26 -60,59l0 1491c0,33 27,60 60,60l831 0c33,0 60,-27 60,-60l0 -1491c0,-33 -27,-59 -60,-59zm-163 1498l0 0c-50,0 -91,-41 -91,-92 0,-50 41,-91 91,-91 51,0 92,41 92,91 0,51 -41,92 -92,92z"/>
    </g>
   </g>
   <g>
    <g>
     <g>
      <path class="fil17" d="M3328 2869c3,-38 13,-77 13,-77l-83 -21c0,0 1,56 -7,84 -1,4 -4,6 -8,8l85 6z"/>
      <path class="fil18" d="M3222 2884c18,-43 76,-57 110,-24 10,10 17,22 22,35 3,8 6,16 3,25 -3,9 -7,9 -15,9 -13,-1 -25,0 -38,0 -26,1 -52,2 -77,1 -3,0 -6,0 -9,-1 -1,-1 -2,-2 -2,-3 -6,-14 0,-29 6,-42z"/>
      <g>
       <path class="fil18" d="M3502 2172c0,0 24,4 8,67 -16,64 -164,573 -164,573l-93 -11c0,0 3,-395 123,-599 0,0 49,-92 126,-30z"/>
       <path class="fil19" d="M3515 2200c0,0 -6,-87 -132,-91l82 291c0,0 50,-159 50,-200z"/>
      </g>
     </g>
     <polygon class="fil18" points="3190,2290 3313,2356 3422,2270 3426,2106 "/>
     <path class="fil20" d="M3438 1987c0,0 -11,-44 -11,-46 -8,-43 -7,-87 -2,-130 5,-36 12,-71 23,-106 9,-30 34,-132 91,-93 14,10 19,26 21,41 8,68 -39,297 -39,297l-83 37z"/>
     <path class="fil20" d="M3297 1956c0,0 1,94 52,105 21,4 204,7 247,-3 16,-4 33,-10 38,-24 2,-8 1,-16 0,-23 -2,-13 -5,-26 -14,-35 -13,-13 -30,-13 -47,-16 -14,-2 -27,-5 -41,-7 -46,-8 -93,-15 -140,-16 -27,-1 -75,-4 -95,19z"/>
     <path class="fil21" d="M3364 1540l-150 21c-5,99 -15,199 -36,296 -6,27 -12,55 -25,79 -12,21 -29,37 -46,55 -14,16 -28,33 -41,50 -13,17 -26,35 -37,53 -1,3 -21,46 -19,46 0,0 510,33 510,33 0,0 -65,-79 -54,-159 4,-31 13,-62 22,-92 13,-49 28,-97 43,-145 5,-16 9,-32 14,-47 5,-14 11,-27 11,-42 1,-15 -4,-30 -8,-45 -5,-18 -14,-37 -31,-45 -49,-25 -100,-44 -153,-58z"/>
     <path class="fil20" d="M3466 2014c1,-5 1,-10 2,-14 11,-55 28,-108 44,-162 9,-30 19,-60 29,-91 12,-38 33,-96 2,-132 -12,-14 -45,-27 -62,-35 0,0 8,56 -58,61 -22,1 -51,-3 -73,-27 -30,-32 -37,-67 -36,-66 0,0 0,-1 -1,-1 -44,6 -107,14 -107,14 -6,99 -7,199 -28,296 -6,27 -12,55 -25,79 -12,21 -29,37 -46,55 -14,16 -28,33 -41,50 -13,17 -26,35 -37,53 -1,3 -21,46 -19,46 0,0 510,33 510,33 0,0 -65,-79 -54,-159z"/>
     <g>
      <path class="fil22" d="M3166 1967c0,0 -15,-41 -16,-43 -11,-41 -19,-99 -17,-141 1,-34 5,-69 12,-103 6,-30 21,-131 82,-99 15,8 22,23 25,38 14,64 -11,289 -11,289l-75 59z"/>
      <path class="fil23" d="M3125 1912c-4,-7 -4,-17 -3,-26 1,-7 2,-15 4,-23 3,-14 9,-30 22,-38 2,-2 5,-4 8,-5 3,-1 6,-1 9,-2 54,-6 146,20 308,22l-10 73c-24,4 -48,6 -72,9 -48,5 -97,8 -146,9 -38,1 -77,4 -112,-12 -4,-2 -6,-4 -8,-7z"/>
     </g>
     <g>
      <path class="fil21" d="M3440 1853l8 -3c0,-1 0,-1 1,-1l70 -24c3,-1 6,-1 9,1l84 57c1,1 2,3 3,4 3,6 -1,14 -8,15l-11 1c-2,0 -4,-1 -6,-2l-29 -15c-2,-1 -5,-2 -7,-1 -13,3 -59,13 -98,14 -5,0 -9,-4 -10,-9l-6 -37z"/>
      <path class="fil20" d="M3130 1961c-4,1 -15,-71 -16,-79 -4,-37 -4,-77 1,-114 5,-36 12,-71 23,-105 9,-31 35,-133 91,-93 14,9 20,26 22,41 7,68 -41,296 -41,296 0,0 -80,54 -80,54z"/>
      <path class="fil20" d="M3130 1960c-1,-1 -1,-3 -1,-5 -6,-32 -4,-84 36,-94 53,-14 147,-1 308,-21l0 74c-23,6 -46,12 -70,18 -47,12 -95,22 -143,30 -38,5 -82,14 -119,4 -4,-1 -8,-2 -10,-5 0,0 -1,0 -1,-1z"/>
     </g>
     <path class="fil17" d="M3359 1462l-12 80c0,0 2,99 113,65l17 -125 -118 -20z"/>
     <path class="fil21" d="M3397 1364l-11 45 -17 69 -5 20c34,81 106,100 134,78 27,-22 58,-165 58,-165l-159 -47z"/>
     <path class="fil17" d="M3585 1977c0,0 -13,45 4,59 17,14 28,11 39,-2 11,-13 7,-75 -43,-57z"/>
     <g>
      <polygon class="fil18" points="3656,1991 3508,1991 3633,1765 3781,1765 "/>
      <polygon class="fil18" points="3493,1980 3508,1991 3633,1765 3618,1754 "/>
      <polygon class="fil18" points="3618,1754 3766,1754 3781,1765 3633,1765 "/>
     </g>
     <path class="fil17" d="M3615 2043l7 -5c1,0 1,0 1,0l61 -43c2,-2 4,-5 4,-9l1 -101c0,-2 0,-4 -1,-5 -3,-6 -12,-7 -17,-2l-7 8c-1,2 -2,4 -2,6l-4 33c-1,2 -2,4 -3,6 -10,9 -45,41 -68,72 -3,4 -2,9 1,13l27 27z"/>
     <path class="fil24" d="M3516 1985c-26,-20 -68,-14 -99,-13 -52,2 -104,9 -156,13 -64,4 -132,13 -186,50 -66,44 -88,123 -69,198 7,31 35,56 64,65 26,9 54,9 81,9 24,0 48,0 72,0 32,1 54,-20 81,-35 30,-18 59,-36 89,-54 42,-24 87,-42 127,-71 14,-10 19,-58 21,-75 2,-28 1,-61 -20,-82 -1,-2 -3,-3 -5,-5z"/>
     <g>
      <g>
       <path class="fil21" d="M3940 2773c0,0 -1,-1 -1,-1 -3,-4 -7,-7 -11,-10 1,1 3,2 4,3 -1,-1 -3,-2 -4,-3 -9,-6 -19,-11 -29,-15 -3,-2 -6,-3 -9,-4 -15,-8 -28,-14 -32,-16 0,0 -1,-1 -1,-1 0,0 0,0 0,0 -6,-6 -82,-80 -108,-110 -27,-31 -46,-96 -46,-96l-81 28c0,0 29,44 36,71 3,9 -12,19 -19,33 0,1 -1,2 -1,2 1,0 1,1 2,1 -1,0 -1,0 -2,0 -12,5 -18,40 -19,51 -1,6 -1,13 1,19 4,9 13,14 21,18 18,9 38,14 56,21 34,14 67,33 102,44 39,12 81,11 121,16 11,1 28,0 33,-12 5,-11 -6,-30 -13,-39z"/>
       <g>
        <path class="fil25" d="M3619 2702c0,-2 1,-5 1,-7 0,2 -1,5 -1,7z"/>
        <path class="fil25" d="M3803 2746c0,0 -1,0 -1,0 0,0 1,0 1,0z"/>
        <path class="fil25" d="M3799 2745c-2,0 -3,-1 -4,-1 1,0 2,1 4,1z"/>
        <path class="fil25" d="M3845 2737c1,0 1,-1 2,-2 -1,1 -1,2 -2,2z"/>
        <path class="fil25" d="M3850 2733c0,0 -1,0 -1,1 0,-1 1,-1 1,-1z"/>
       </g>
       <path class="fil18" d="M3954 2807c0,-1 0,-3 0,-5 0,-1 -1,-3 -1,-5 -1,-2 -1,-4 -2,-5 -1,-1 -1,-2 -1,-3 -2,-4 -4,-8 -7,-11 0,-1 -1,-2 -2,-3 0,0 0,0 0,0 0,-1 -1,-1 -1,-2 0,0 -1,-1 -1,-1 -1,-1 -2,-2 -3,-3 -1,-1 -1,-1 -2,-2 -1,0 -1,-1 -2,-1 -1,-2 -3,-3 -4,-4 1,1 3,2 4,3 -1,-1 -3,-2 -4,-3 -5,-3 -9,-6 -14,-8 -2,-2 -4,-3 -7,-4 0,0 0,0 -1,0 -2,-1 -4,-2 -7,-3 -3,-2 -6,-3 -9,-4 -15,-8 -28,-14 -32,-16 0,0 0,0 0,-1 -1,0 -1,0 -1,0 -5,-5 -53,-52 -86,-86 -28,30 -91,25 -123,-2 1,1 -5,7 -5,8 -4,6 -9,11 -12,18 -1,1 -2,2 -2,3 -1,2 -2,4 -3,7 0,1 -1,3 -2,5 0,2 -1,5 -2,7 0,2 0,3 0,4 -2,7 -3,13 -3,16 -1,3 -1,6 -1,10 0,0 0,1 0,2 1,2 1,4 2,7 1,2 2,4 4,6 0,1 1,2 2,2 4,5 10,8 15,10 9,4 19,8 28,11 5,2 9,3 14,5 5,1 9,3 14,5 15,6 29,13 44,20 11,5 21,10 32,14 9,4 17,7 26,10 3,1 5,1 8,2 2,1 5,1 7,2 5,1 10,2 15,3 2,0 5,1 8,1 7,1 15,2 22,3 21,2 41,2 61,5 4,0 8,0 12,0 8,-1 17,-4 21,-12 0,-1 1,-3 1,-4 0,0 0,-1 0,-1zm-65 -65l0 0c-2,-1 -5,-2 -7,-3 -1,0 -1,0 -1,0 -8,-4 -15,-7 -23,-12 0,0 0,0 0,0 11,5 21,10 31,15z"/>
      </g>
      <path class="fil24" d="M3505 1990c0,0 21,-9 41,47 20,55 169,512 169,512l-75 39c0,0 -199,-297 -214,-511 0,0 -10,-94 79,-87z"/>
     </g>
     <path class="fil18" d="M3371 1407c0,0 18,-11 18,35l21 -74c0,0 91,63 143,55 53,-7 86,-46 86,-46 0,0 -80,-26 -87,-45 -6,-20 -47,-103 -142,-69 0,0 -34,12 -38,36 0,0 -34,7 -34,35 -1,28 -28,115 15,165l18 -92z"/>
     <path class="fil21" d="M3355 1403c-17,13 -18,52 14,75l15 -64c-1,-10 -18,-19 -29,-11z"/>
    </g>
    <polygon class="fil17" points="3522,1464 3499,1522 3533,1535 "/>
   </g>
   <g>
    <g>
     <path class="fil18" d="M2941 3766c-2,-19 8,-38 13,-57 14,-51 -8,-106 -42,-146 -17,-21 -39,-40 -51,-64 -25,-47 -11,-104 -20,-155 -9,-52 -41,-99 -86,-126 -57,-34 -132,-40 -182,9 -33,33 -65,72 -72,119 -7,45 10,93 -1,138 -5,22 -17,42 -30,60 -17,24 -38,48 -37,77 1,32 29,58 31,91 1,19 -8,38 -13,57 -10,43 6,91 37,123 23,23 53,38 85,45 14,3 27,1 40,3 16,2 30,13 45,18l0 -2c7,6 18,9 27,7 13,-2 25,-9 37,-14 63,-31 141,-24 201,-60 23,-13 44,-37 41,-63 -3,-21 -20,-39 -23,-60z"/>
     <path class="fil21" d="M2726 3428l-65 26 -68 -18c48,69 10,125 10,125 27,14 49,18 65,17 16,-1 37,-7 63,-24 0,0 -45,-52 -5,-126z"/>
     <path class="fil21" d="M2660 3241c-41,3 -75,33 -93,73 1,28 4,57 5,85 2,24 4,50 12,73 9,27 28,43 52,56 13,7 27,13 41,16 0,0 0,0 1,0 0,0 0,0 1,0 13,-4 27,-12 38,-20 22,-16 39,-34 45,-62 5,-24 5,-50 4,-74 -2,-29 -3,-57 -5,-85 -23,-38 -59,-64 -101,-62z"/>
     <path class="fil18" d="M2773 3267c-7,-7 -15,-15 -25,-20 -2,-1 -3,-2 -5,-3 0,-1 0,-1 0,-1l0 1c-12,-6 -27,-10 -41,-12 -37,-6 -79,-3 -112,11 -28,13 -49,33 -60,54 -11,22 4,81 8,103 110,-46 188,-93 188,-93 0,0 34,112 71,221 -3,-40 6,-228 -24,-261z"/>
     <path class="fil21" d="M2541 3387c-10,21 7,66 46,81l-14 -78c-6,-11 -25,-17 -32,-3z"/>
     <polygon class="fil17" points="2664,3408 2657,3473 2670,3483 2681,3470 "/>
    </g>
    <g>
     <path class="fil21" d="M2879 3672l77 233 -78 65c-12,-36 -70,-260 -71,-273 -2,-17 7,-31 24,-37 0,0 33,-10 48,12z"/>
    </g>
    <g>
     <path class="fil21" d="M2869 3938c0,0 -1,26 239,210l36 -35c0,0 -139,-143 -172,-188 -34,-45 -15,-42 -103,13z"/>
    </g>
    <path class="fil26" d="M2842 3976l-197 111 -194 -117c0,0 -97,302 100,302 41,-1 71,-8 92,-20 20,13 49,21 91,22 197,7 108,-298 108,-298z"/>
    <g>
     <path class="fil17" d="M2454 3686c0,0 -70,218 -30,280l52 13c7,-37 52,-263 52,-277 -1,-17 -11,-30 -29,-34 0,0 -33,-6 -45,18z"/>
    </g>
    <g>
     <path class="fil27" d="M2532 3588c-10,2 -19,5 -28,8 -1,1 -2,2 -3,2 -13,11 -22,25 -30,39 -19,35 -31,72 -39,109 -3,13 -7,45 -7,45l161 18 -44 -224c-3,1 -7,2 -10,3z"/>
     <path class="fil27" d="M2786 3563c10,1 19,3 28,4 1,1 3,2 4,2 14,9 25,21 35,34 24,32 42,66 55,102 5,12 14,44 14,44l-157 41 10 -228c4,1 7,1 11,1z"/>
    </g>
    <path class="fil21" d="M2855 3764c-10,-65 -51,-125 -46,-192 -4,-3 -8,-5 -12,-6 -34,-11 -75,-23 -92,-28 -6,-2 -13,-3 -20,-3l-17 1 0 -1 7 0 -30 2 0 1 -17 1c-7,1 -13,3 -19,6 -16,8 -59,26 -90,41 -4,2 -8,5 -11,9 15,65 -13,130 -14,196 -1,46 15,62 44,95 30,35 26,104 21,169 -2,27 283,5 277,-21 -15,-63 -36,-131 -10,-170 23,-36 37,-55 29,-100z"/>
    <path class="fil28" d="M2858 3764c-10,-65 -44,-125 -39,-192 -4,-3 -8,-6 -12,-7 -20,-6 -36,-14 -61,-19 3,5 -13,55 -72,56 -76,1 -93,-47 -93,-47 -22,9 -48,23 -65,32 -4,2 -8,5 -11,8 15,66 -14,130 -15,196 0,46 16,62 44,95 31,35 0,101 -26,179 -8,25 338,39 332,13 -15,-63 -36,-175 -11,-214 24,-37 37,-55 29,-100z"/>
    <g>
     <polygon class="fil18" points="2625,3718 2713,3725 2727,3534 2639,3528 "/>
     <g>
      <path class="fil21" d="M2591 3700c0,0 -168,145 -179,182 -5,16 -9,40 0,55 11,18 36,17 54,12 40,-10 60,-59 83,-89 11,-15 74,-113 79,-119 0,0 73,-64 74,-64 4,-5 3,-14 1,-20 -2,-7 -9,-8 -13,-14 -3,-4 -2,-9 -1,-14 0,-8 -5,-9 -11,-13 -1,-1 1,-14 1,-15 1,-6 2,-11 2,-16 -1,-7 -7,-8 -13,-9l-37 56 5 -37 -17 14 -14 60 -14 31z"/>
     </g>
    </g>
    <g>
     <g>
      <polygon class="fil29" points="2377,4524 2376,4553 2373,4619 2358,4617 2293,4577 2299,4542 2310,4510 "/>
      <path class="fil21" d="M2366 4594c9,-62 20,-117 27,-145l-88 -9c1,36 -2,141 -22,268l39 4 1 33 22 -17 5 -12 6 0c0,-5 0,-11 0,-17l20 -50 -10 -55z"/>
      <path class="fil30" d="M2278 4652c3,-25 7,-50 11,-74 3,-16 7,-32 13,-47 0,15 0,31 0,46 1,6 1,13 1,19 0,7 0,14 3,20 3,9 11,16 20,20 7,4 17,9 26,5 10,-4 12,-15 12,-24 -1,-10 0,-58 12,-66 0,0 0,18 0,45 1,27 6,48 4,76 -2,25 -3,51 -15,73 -4,9 -10,16 -17,22 -4,4 -8,7 -13,9 -4,1 -8,1 -12,1l0 1c-1,0 -1,0 -2,-1 -1,0 -1,0 -2,0l0 0c-4,-1 -8,-2 -11,-4 -5,-3 -8,-7 -11,-11 -12,-16 -19,-34 -22,-52 -2,-20 0,-39 3,-58z"/>
     </g>
     <path class="fil24" d="M2579 3869c0,0 25,5 5,70 -20,65 -202,584 -202,584l-95 -17c0,0 24,-408 160,-613 0,0 56,-93 132,-24z"/>
    </g>
    <g>
     <g>
      <polygon class="fil29" points="2565,4475 2547,4498 2508,4551 2521,4559 2596,4569 2614,4539 2626,4507 "/>
      <path class="fil21" d="M2675 4456l-74 -49c-12,26 -39,75 -71,128l-43 37 -17 52c-3,4 -7,8 -10,13l5 3 -5 12 6 28 22 -24 33 21c65,-111 130,-194 154,-221z"/>
      <path class="fil30" d="M2561 4637c13,-21 26,-43 38,-65 8,-14 15,-28 20,-44 -10,12 -20,24 -30,35 -4,5 -8,10 -12,15 -5,5 -9,10 -15,13 -8,5 -19,5 -28,3 -9,-1 -20,-4 -24,-13 -5,-9 1,-19 7,-26 6,-7 36,-45 32,-59 0,0 -11,15 -29,35 -18,20 -35,34 -51,56 -14,21 -30,41 -35,66 -2,9 -2,19 -1,28 1,5 2,10 5,15 2,3 5,6 8,9l0 0c0,0 1,1 1,1 1,1 2,1 2,1l0 0c4,2 8,3 11,4 6,1 11,0 16,-2 19,-4 36,-13 50,-26 14,-13 25,-30 35,-46z"/>
     </g>
     <path class="fil24" d="M2826 3841c0,0 -22,-12 -48,51 -26,63 -216,579 -216,579l85 48c0,0 240,-331 266,-576 0,0 16,-107 -87,-102z"/>
    </g>
    <path class="fil21" d="M3221 4107l-93 0 -20 41 74 31 51 21 28 0c0,0 6,-2 -2,-9 -8,-7 -26,-9 -26,-9l-13 -12c5,-7 18,-14 18,-14 0,0 63,13 80,20 18,7 30,-11 30,-11l-127 -58z"/>
   </g>
   <g>
    <path class="fil18" d="M4667 2606c21,17 39,38 52,61 37,62 47,136 51,208 2,44 2,90 19,130 21,48 64,83 108,112 33,22 68,43 87,77 27,47 11,114 -34,144 -30,21 -73,28 -90,60 -17,33 -3,82 -33,102 -20,14 -48,5 -68,-10 -29,-22 -49,-55 -81,-72 -26,-13 -56,-15 -86,-17 -40,-3 -80,-8 -119,-16 -13,-3 -25,-5 -36,-12 -18,-11 -29,-32 -34,-52 -18,-66 8,-135 25,-201 8,-34 14,-69 6,-103 -4,-18 -13,-35 -20,-53 -22,-54 -29,-115 -44,-170 -14,-53 -7,-112 20,-160 12,-20 27,-39 49,-50 37,-19 83,-9 122,-17 38,-7 78,16 106,39z"/>
    <g>
     <g>
      <path class="fil18" d="M4364 3987c-18,-101 -14,-205 -8,-307 4,-51 44,-234 51,-284 13,-95 31,-75 143,-42 14,4 28,11 39,21 136,109 33,327 -16,450 -21,54 -44,107 -68,159 -79,59 -141,3 -141,3z"/>
      <g>
       <path class="fil17" d="M4386 4664c0,-8 -2,-17 -4,-26 0,-2 -3,-26 -3,-29 5,-37 30,-138 30,-138l-102 -19c0,0 -1,91 -24,141l0 0c-50,17 -136,36 -136,36 0,0 -94,-1 -99,1 -5,1 -17,2 -33,12 0,0 -15,22 96,60 0,0 47,19 128,20 18,2 35,3 52,5 18,1 71,9 79,5 3,-2 5,-3 7,-5 12,-15 8,-45 9,-63z"/>
       <path class="fil31" d="M4291 4727c-17,-2 -34,-3 -52,-5 -81,-1 -128,-20 -128,-20 -111,-38 -96,-60 -96,-60 16,-10 28,-11 33,-12 5,-2 99,-1 99,-1l0 0c10,32 25,48 64,47 61,-3 113,-27 175,-9 -1,18 2,46 -9,60 -2,2 -4,3 -7,5 -8,4 -61,-4 -79,-5z"/>
       <path class="fil18" d="M4398 4520c41,-116 117,-374 96,-533 0,0 -18,-59 -108,-33 0,0 -23,-5 -32,56 -8,46 -44,346 -61,487l105 23z"/>
      </g>
     </g>
     <path class="fil24" d="M4504 4006c-32,-97 -42,-201 -49,-303 -3,-51 12,-237 12,-288 0,-96 21,-79 136,-61 15,2 29,7 42,15 149,90 76,320 44,449 -14,56 -29,112 -46,167 -70,68 -139,21 -139,21z"/>
     <g>
      <path class="fil21" d="M4807 4622c-4,-7 -9,-15 -14,-22 -2,-2 -14,-22 -15,-25 -10,-36 -30,-138 -30,-138l-100 24c0,0 36,84 35,138l0 0c-38,36 -109,90 -109,90 0,0 -85,37 -90,40 -4,4 -15,10 -25,25 0,0 -4,26 112,15 0,0 51,-1 126,-33 16,-6 33,-12 49,-18 17,-6 68,-21 74,-27 2,-3 3,-5 4,-8 5,-18 -11,-44 -17,-61z"/>
      <path class="fil31" d="M4746 4718c-16,6 -33,12 -49,18 -75,32 -126,33 -126,33 -116,11 -112,-15 -112,-15 10,-15 21,-21 25,-25 5,-3 90,-40 90,-40l1 -1c21,25 42,34 76,17 55,-28 93,-71 157,-80 7,16 21,41 16,58 -1,3 -2,5 -4,8 -6,6 -57,21 -74,27z"/>
      <path class="fil24" d="M4759 4486c-10,-123 -47,-390 -131,-526 0,0 -40,-46 -112,14 0,0 -23,5 -7,65 13,45 102,333 145,469l105 -22z"/>
     </g>
     <g>
      <path class="fil17" d="M4171 2944l-71 -71c0,0 -9,13 -5,23 4,11 0,19 3,29 2,9 -4,34 4,48 8,15 34,21 42,34 8,14 24,44 24,44l50 -32 -24 -39c0,0 6,-52 -23,-79l0 43z"/>
      <g>
       <polygon class="fil18" points="4122,2966 4216,2971 4168,2759 4073,2763 "/>
       <polygon class="fil18" points="4229,2962 4216,2971 4168,2759 4180,2750 "/>
       <polygon class="fil18" points="4180,2750 4086,2754 4073,2763 4168,2759 "/>
      </g>
      <path class="fil17" d="M4115 2873l-18 41 18 64 33 -74c0,0 -7,-11 -13,0l6 -19c0,0 3,-20 -26,-12z"/>
      <g>
       <path class="fil32" d="M4324 3318c25,-11 45,-35 46,-37 29,-36 51,-76 69,-118 15,-35 28,-70 37,-106 9,-32 42,-136 -23,-126 -17,2 -29,15 -39,28 -41,58 -123,287 -123,287l33 72z"/>
       <path class="fil32" d="M4319 3321c0,0 66,-31 45,-83 -21,-52 -88,-120 -170,-263l-47 34c0,0 112,289 172,312z"/>
      </g>
     </g>
     <path class="fil21" d="M4380 3126c3,-35 74,-194 74,-194 0,0 20,-3 32,-8 6,-26 2,-51 2,-51l74 -73c-9,80 23,109 23,109 12,0 49,2 66,4 37,5 55,31 55,31 0,0 -44,165 -46,249 -3,85 47,271 47,271l-305 -1c21,-84 35,-204 35,-204 8,-64 -63,-70 -57,-133z"/>
     <path class="fil31" d="M4373 3126c3,-35 81,-194 81,-194 0,0 10,17 38,20 52,5 94,-17 116,-43 11,1 26,2 43,4 37,5 55,31 55,31 0,0 -44,165 -46,249 -3,85 81,320 81,320l-363 -1c20,-85 59,-253 59,-253 8,-64 -70,-70 -64,-133z"/>
     <path class="fil32" d="M4437 3259c3,-27 -19,-58 -38,-73 103,21 190,24 242,34 -2,0 -4,-58 -5,-63 -2,-22 -4,-44 -6,-66 -4,-53 -18,-124 30,-163 8,-7 20,-6 23,-4 15,9 23,20 23,20 0,0 -44,165 -46,249 -1,36 7,92 17,143 -60,-3 -165,-37 -243,-65 1,-7 3,-12 3,-12z"/>
     <g>
      <path class="fil21" d="M4529 3051l-3 -8c0,-1 0,-1 -1,-1l-30 -68c-2,-3 -4,-5 -7,-6l-100 -21c-2,0 -4,0 -5,0 -7,2 -10,11 -5,16l7 9c1,1 3,3 4,3l34 8c2,1 4,3 6,5 6,11 31,52 57,80 4,4 9,4 13,2l30 -19z"/>
      <g>
       <path class="fil31" d="M4749 3335c1,0 16,-46 17,-48 6,-45 6,-92 0,-137 -4,-37 -11,-74 -21,-110 -8,-32 -31,-139 -83,-97 -13,10 -18,27 -19,43 -7,71 36,311 36,311 0,0 63,37 70,38z"/>
       <path class="fil31" d="M4720 3365c0,0 66,-48 33,-100 -34,-52 -122,-113 -240,-253l-44 47c0,0 180,293 251,306z"/>
      </g>
     </g>
    </g>
    <g>
     <g>
      <g>
       <path class="fil21" d="M4427 2668c0,0 -38,158 20,209 0,0 99,12 146,-71 46,-83 -18,-210 -166,-138z"/>
      </g>
      <polygon class="fil17" points="4440,2744 4440,2809 4408,2809 "/>
     </g>
     <path class="fil33" d="M4440 2611c0,0 9,69 129,139l55 -18c0,0 38,-148 -77,-143l-107 22z"/>
     <path class="fil34" d="M4396 2693c0,0 79,-29 112,-74 0,0 -75,-26 -112,74z"/>
    </g>
    <path class="fil21" d="M4573 2748c0,0 16,-36 34,-20 19,17 6,83 -34,96l0 -76z"/>
   </g>
   <g>
    <g>
     <path class="fil17" d="M1113 1967c0,0 -56,217 -14,276l51 -1c5,-37 38,-250 37,-263 -2,-16 -13,-28 -30,-31 0,0 -33,-5 -44,19z"/>
     <path class="fil17" d="M1612 1967c0,0 56,217 14,276l-51 9c-5,-36 -37,-260 -36,-273 1,-16 12,-28 30,-31 0,0 32,-5 43,19z"/>
     <g>
      <path class="fil35" d="M1153 1818c-48,38 -69,217 -69,217l160 8 -47 -243c-4,1 -43,17 -44,18z"/>
      <path class="fil35" d="M1569 1818c48,38 69,217 69,217l-160 8 47 -243c4,1 43,17 44,18z"/>
     </g>
     <g>
      <g>
       <g>
        <g>
         <path class="fil25" d="M1593 2857c0,-2 0,-4 1,-6 -1,2 -1,4 -1,6z"/>
         <path class="fil25" d="M1734 2895c0,0 0,0 0,0 0,0 0,0 0,0z"/>
         <path class="fil25" d="M1731 2894c-1,0 -2,-1 -3,-1 1,1 2,1 3,1z"/>
         <path class="fil25" d="M1767 2889c1,0 1,-1 2,-1 -1,0 -1,1 -2,1z"/>
         <path class="fil25" d="M1771 2886c0,0 -1,0 -1,1 0,-1 1,-1 1,-1z"/>
        </g>
       </g>
      </g>
      <g>
       <path class="fil30" d="M1741 2304c-1,-2 -2,-3 -3,-5 -11,-23 -43,-33 -65,-42 -37,-16 -76,-28 -113,-43 -46,-18 -97,-34 -147,-27 -19,3 -36,10 -52,20 -16,-10 -33,-17 -52,-20 -50,-7 -100,9 -146,27 -38,15 -77,27 -114,43 -22,9 -54,19 -65,42 -1,2 -2,3 -3,5 -7,22 3,46 14,64 7,11 27,43 40,46 56,12 113,10 170,4 34,-4 68,-10 101,-17 17,-4 37,-7 55,-13 18,6 38,9 55,13 34,7 67,13 102,17 56,6 113,8 169,-4 14,-3 33,-35 40,-46 11,-18 21,-42 14,-64z"/>
       <g>
        <g>
         <path class="fil21" d="M882 2919c0,0 1,0 1,0 2,-3 5,-6 8,-8 -1,0 -2,1 -3,2 1,-1 2,-2 3,-2 7,-6 15,-9 22,-13 2,-1 5,-2 7,-3 11,-6 21,-12 24,-13 1,-1 1,-1 2,-1 0,0 0,0 0,0 4,-5 84,-87 88,-94 7,-31 2,-76 2,-76l66 -6c0,0 -10,56 0,98 3,5 8,10 11,15 0,1 0,1 0,2 0,0 0,0 -1,0 1,0 1,0 1,0 10,4 15,31 17,40 1,4 1,10 -1,14 -2,7 -9,12 -16,15 -14,7 -28,11 -42,18 -26,11 -52,27 -79,36 -30,11 -62,11 -93,15 -9,2 -22,1 -26,-8 -4,-9 4,-24 9,-31z"/>
         <g>
          <path class="fil25" d="M1129 2857c0,-2 0,-4 -1,-6 1,2 1,4 1,6z"/>
          <path class="fil25" d="M988 2895c0,0 0,0 0,0 0,0 0,0 0,0z"/>
          <path class="fil25" d="M991 2894c1,0 2,-1 3,-1 -1,1 -2,1 -3,1z"/>
          <path class="fil25" d="M955 2889c0,0 -1,-1 -2,-1 1,0 2,1 2,1z"/>
          <path class="fil25" d="M951 2886c0,0 1,0 1,1 0,-1 -1,-1 -1,-1z"/>
         </g>
         <path class="fil36" d="M872 2947c0,1 1,2 1,3 3,6 10,8 17,9 3,0 6,0 9,-1 15,-2 31,-3 47,-5 6,-1 12,-2 17,-3 2,0 5,0 7,-1 3,-1 7,-2 11,-3 2,0 4,-1 5,-1 2,-1 4,-1 6,-2 7,-2 14,-5 20,-8 9,-4 17,-8 25,-12 11,-6 22,-11 34,-16 3,-2 7,-3 10,-5 4,-1 7,-3 11,-4 7,-3 14,-6 21,-9 4,-2 9,-5 12,-8 0,-1 1,-1 2,-2 1,-2 2,-3 2,-5 1,-2 1,-3 1,-5 0,-1 0,-1 0,-2 0,-2 0,-5 0,-7 -1,-3 -2,-7 -3,-12 0,-1 0,-2 -1,-4 0,-1 -1,-3 -1,-5 -1,-2 -1,-3 -2,-4 0,-2 -1,-4 -2,-6 0,0 -1,-1 -1,-2 -3,-5 -7,-9 -10,-13 -1,-1 -5,-6 -5,-6 -24,22 -72,27 -95,4 -24,27 -61,65 -64,69 -1,0 -1,0 -1,0 0,0 0,0 -1,1 -3,1 -13,7 -24,13 -2,1 -5,2 -7,3 -2,1 -3,2 -5,3 0,0 -1,0 -1,0 -2,1 -3,2 -5,3 -4,2 -7,4 -11,7 -1,0 -2,1 -3,2 1,-1 2,-2 3,-2 -1,1 -2,1 -3,2 0,1 -1,1 -1,2 -1,0 -1,0 -1,1 -1,1 -2,2 -3,3 0,0 -1,0 -1,0 0,1 0,1 -1,2 0,0 0,0 0,0 0,1 -1,1 -1,2 -2,3 -4,6 -5,9 0,1 -1,1 -1,2 0,1 -1,3 -1,4 0,2 -1,3 -1,5 0,1 0,2 0,3 0,0 0,0 0,1zm72 -65l0 0c0,0 0,0 0,0 -5,4 -11,7 -17,9 0,1 0,1 0,1 -2,1 -4,2 -6,2 8,-4 15,-8 23,-12z"/>
        </g>
        <path class="fil30" d="M993 2299c0,0 -17,0 -13,46 4,46 52,416 52,416l75 2c0,0 41,-274 -20,-430 0,0 -34,-69 -94,-34z"/>
       </g>
      </g>
     </g>
     <path class="fil24" d="M1362 1768l0 0c-1,0 -1,0 -1,0 0,0 0,0 -1,0l0 0c-98,1 -199,45 -199,45l28 400c69,48 160,53 171,54l0 0c0,0 1,0 1,0 0,0 1,0 1,0l0 0c12,-1 102,-6 171,-54l28 -400c0,0 -101,-44 -199,-45z"/>
     <path class="fil21" d="M1840 2919c0,0 -1,0 -1,0 -2,-3 -5,-6 -8,-8 1,0 2,1 3,2 -1,-1 -2,-2 -3,-2 -7,-6 -14,-9 -22,-13 -2,-1 -5,-2 -7,-3 -11,-6 -21,-12 -24,-13 -1,-1 -1,-1 -1,-1 0,0 0,0 -1,0 -4,-5 -84,-87 -88,-94 -7,-31 -2,-76 -2,-76l-66 -6c0,0 10,56 0,98 -3,5 -8,10 -11,15 0,1 0,1 0,2 0,0 0,0 1,0 -1,0 -1,0 -1,0 -10,4 -15,31 -17,40 0,4 -1,10 1,14 2,7 9,12 16,15 14,7 28,11 42,18 26,11 52,27 79,36 30,11 62,11 93,15 9,2 22,1 26,-8 4,-9 -4,-24 -9,-31z"/>
     <path class="fil36" d="M1850 2946c0,-1 0,-2 0,-3 0,-2 0,-3 -1,-5 0,-1 -1,-3 -1,-4 0,-1 -1,-1 -1,-2 -1,-3 -3,-6 -5,-9 0,-1 -1,-1 -1,-2 0,0 0,0 0,0 0,-1 -1,-1 -1,-2 0,0 -1,0 -1,0 -1,-1 -2,-2 -2,-3 -1,-1 -1,-1 -2,-1 0,-1 0,-1 -1,-2 -1,-1 -2,-1 -3,-2 1,0 2,1 3,2 -1,-1 -2,-2 -3,-2 -4,-3 -7,-5 -11,-7 -1,-1 -3,-2 -5,-3 0,0 0,0 -1,0 -2,-1 -3,-2 -5,-3 -2,-1 -5,-2 -7,-3 -11,-6 -21,-12 -24,-13 0,-1 -1,-1 -1,-1 0,0 0,0 -1,0 -3,-4 -40,-42 -64,-69 -23,23 -71,18 -95,-4 0,0 -4,5 -5,6 -3,4 -7,8 -10,13 0,1 0,2 -1,2 -1,2 -1,4 -2,6 -1,1 -1,2 -2,4 0,2 -1,4 -1,5 -1,2 -1,3 -1,4 -1,5 -2,9 -3,12 0,2 0,5 0,7 0,1 0,1 0,2 0,2 0,3 1,5 0,2 1,3 2,5 1,1 2,1 2,2 3,3 8,6 12,8 7,3 14,6 21,9 4,1 7,3 11,4 3,2 7,3 10,5 12,5 23,10 34,16 8,4 17,8 25,12 6,3 13,6 20,8 2,1 4,1 6,2 1,0 3,1 5,1 4,1 8,2 11,3 3,1 5,1 7,1 6,1 11,2 17,3 16,2 32,3 47,5 3,1 6,1 9,1 7,-1 14,-3 17,-9 0,-1 1,-2 1,-3 0,-1 0,-1 0,-1zm-49 -52l0 0c-2,0 -4,-1 -5,-2 -1,0 -1,0 -1,-1 -6,-2 -12,-5 -17,-9 0,0 0,0 0,0 8,4 16,8 23,12z"/>
     <path class="fil30" d="M1729 2299c0,0 17,0 13,46 -4,46 -52,416 -52,416l-75 2c0,0 -41,-274 20,-430 0,0 34,-69 94,-34z"/>
     <g>
      <path class="fil18" d="M1499 1653c0,0 -3,125 -48,180l-184 0c0,0 -35,-36 -41,-152 0,0 -8,-69 47,-77 55,-9 200,-34 226,49z"/>
      <g>
       <path class="fil21" d="M1362 1643l-117 23c0,0 11,158 39,184 7,6 66,27 78,27 12,0 71,-21 78,-27 28,-26 39,-184 39,-184l-117 -23z"/>
       <polygon class="fil37" points="1453,1657 1466,1756 1484,1652 "/>
       <g>
        <path class="fil21" d="M1510 1705c11,26 -7,74 -49,83l15 -86c6,-12 27,-14 34,3z"/>
       </g>
      </g>
     </g>
     <path class="fil21" d="M1367 1993c-2,-7 -10,-8 -14,-14 -2,-5 -1,-10 -1,-15 1,-8 -5,-9 -11,-14 -1,-1 1,-14 2,-15 0,-6 2,-11 2,-17 -1,-7 -8,-8 -14,-9l-57 62 -9 35 -15 31c0,0 -145,102 -157,140 -5,16 -9,41 0,57 17,29 56,18 79,3 32,-20 46,-55 66,-85 8,-12 16,-24 24,-36 8,-11 16,-28 26,-36 0,0 77,-66 77,-66 5,-5 4,-15 2,-21z"/>
     <g>
      <polygon class="fil18" points="1414,2061 1323,2060 1325,1875 1416,1876 "/>
      <path class="fil21" d="M1358 1993c3,-7 10,-8 14,-14 3,-5 1,-10 1,-15 -1,-8 5,-9 11,-14 1,-1 -1,-14 -1,-15 -1,-6 -3,-11 -2,-17 0,-7 7,-8 13,-9l32 48c1,-7 4,-20 6,-30 4,-13 17,-5 17,-5 -4,8 -4,18 -3,27l6 22 8 35 15 31c0,0 145,102 157,140 5,16 9,41 0,57 -17,29 -55,18 -79,3 -32,-20 -46,-55 -65,-85 -9,-12 -17,-24 -25,-36 -8,-11 -16,-28 -26,-36 0,0 -77,-66 -77,-66 -5,-5 -4,-15 -2,-21z"/>
     </g>
     <path class="fil18" d="M1285 1655c0,0 58,71 173,51 0,0 -99,-15 -126,-74l-47 23z"/>
     <path class="fil18" d="M1299 1653c0,0 147,89 226,0l24 -35c0,0 -39,8 -50,-8 -19,-27 -27,-56 -55,-76 -15,-12 -34,-16 -53,-15 -17,1 -34,5 -50,13 -17,8 -29,22 -42,35 0,0 -39,-12 -63,13 -24,26 -7,111 -7,111l32 53 38 -91z"/>
     <polygon class="fil17" points="1361,1740 1348,1808 1362,1820 1374,1807 "/>
    </g>
    <path class="fil21" d="M1214 1705c-11,25 7,73 49,82l-15 -86c-6,-11 -27,-13 -34,4z"/>
   </g>
   <polygon class="fil38" points="1089,1364 429,1364 429,894 1089,894 "/>
   <polygon class="fil39" points="1373,595 1044,595 1044,360 1373,360 "/>
   <g>
    <g>
     <g>
      <path class="fil40" d="M4336 844l-21 -18c-10,12 -20,24 -29,36l21 17c9,-12 19,-24 29,-35z"/>
      <polygon class="fil41" points="4389,782 4369,764 4339,798 4359,816 "/>
      <polygon class="fil42" points="4445,723 4425,704 4393,738 4413,756 "/>
     </g>
     <g>
      <path class="fil43" d="M4196 1043l-24 -13c-7,14 -14,28 -20,42l24 11c7,-14 14,-27 20,-40z"/>
      <path class="fil44" d="M4238 973l-23 -15c-8,13 -17,26 -24,40l23 14c8,-13 16,-26 24,-39z"/>
      <path class="fil45" d="M4285 907l-22 -16c-9,12 -19,25 -27,37l22 16c9,-12 18,-24 27,-37z"/>
     </g>
     <g>
      <path class="fil46" d="M4127 1272l-27 -2c0,8 -1,16 -1,24l1 24 27 -2 0 -22c0,-7 0,-15 0,-22z"/>
      <polygon class="fil47" points="4138,1193 4112,1186 4107,1210 4103,1233 4130,1237 4134,1214 "/>
      <path class="fil48" d="M4162 1116l-25 -10c-6,15 -11,30 -16,45l26 8c5,-15 10,-29 15,-43z"/>
     </g>
     <g>
      <path class="fil49" d="M4188 1500l-23 14c8,14 17,26 27,39l21 -17c-9,-12 -18,-24 -25,-36z"/>
      <path class="fil50" d="M4152 1428l-25 10c5,15 11,29 19,43l24 -12c-7,-13 -12,-27 -18,-41z"/>
      <path class="fil51" d="M4132 1352l-27 4c2,16 6,31 10,47l26 -8c-4,-14 -7,-29 -9,-43z"/>
     </g>
     <g>
      <polygon class="fil52" points="4359,1667 4344,1690 4381,1715 4397,1693 "/>
      <path class="fil53" d="M4294 1619l-17 21c12,10 24,20 37,29l16 -22c-12,-9 -24,-18 -36,-28z"/>
      <path class="fil54" d="M4236 1564l-20 18c11,12 22,23 33,34l19 -20c-11,-10 -22,-21 -32,-32z"/>
     </g>
     <g>
      <polygon class="fil55" points="4562,1806 4546,1828 4583,1855 4599,1833 "/>
      <path class="fil56" d="M4495 1759l-16 22c13,9 25,17 38,26l15 -22c-12,-9 -25,-18 -37,-26z"/>
      <polygon class="fil57" points="4427,1713 4412,1736 4450,1761 4465,1739 "/>
     </g>
     <g>
      <path class="fil58" d="M4753 1961l-19 20c12,10 22,21 32,32l20 -19c-11,-11 -21,-22 -33,-33z"/>
      <polygon class="fil59" points="4692,1906 4675,1927 4709,1956 4727,1936 "/>
      <path class="fil60" d="M4628 1855l-16 22c12,9 24,18 35,27l17 -21c-12,-9 -23,-19 -36,-28z"/>
     </g>
     <g>
      <path class="fil61" d="M4907 2155l-24 13c7,13 15,26 21,40l24 -12c-5,-14 -14,-27 -21,-41z"/>
      <path class="fil62" d="M4863 2085l-22 16c9,12 16,25 24,37l23 -15c-8,-12 -16,-26 -25,-38z"/>
      <path class="fil63" d="M4811 2021l-20 18c9,11 19,22 28,34l22 -17c-10,-12 -20,-23 -30,-35z"/>
     </g>
     <g>
      <path class="fil64" d="M4972 2393l-27 0c0,15 -2,29 -3,44l27 3c1,-16 3,-31 3,-47z"/>
      <path class="fil65" d="M4966 2310l-27 5c2,7 2,14 3,22 1,7 2,14 2,21l27 -1c0,-8 -1,-16 -2,-24 -1,-7 -1,-15 -3,-23z"/>
      <path class="fil66" d="M4943 2230l-25 10c5,14 10,27 14,42l26 -8c-4,-15 -9,-29 -15,-44z"/>
     </g>
     <g>
      <path class="fil67" d="M4906 2632l-24 -13c-3,7 -7,13 -11,19 -4,6 -8,13 -12,19l23 15c4,-7 9,-13 12,-20 4,-6 9,-13 12,-20z"/>
      <path class="fil68" d="M4941 2557l-26 -10c-5,14 -11,28 -17,41l25 11c6,-14 12,-28 18,-42z"/>
      <path class="fil69" d="M4963 2477l-27 -5c-1,7 -3,14 -4,21l-6 21 26 8 6 -22c2,-8 3,-16 5,-23z"/>
     </g>
    </g>
    <g>
     <g>
      <path class="fil70" d="M2482 407l8 26c14,-4 29,-8 44,-12l-7 -26c-15,3 -30,8 -45,12z"/>
      <path class="fil71" d="M2402 432l9 26c15,-5 29,-10 44,-15l-8 -26c-15,5 -30,10 -45,15z"/>
      <path class="fil72" d="M2324 461l11 25c14,-5 28,-11 42,-16l-9 -26c-15,6 -29,11 -44,17z"/>
     </g>
     <g>
      <polygon class="fil73" points="2727,355 2731,382 2776,377 2774,350 "/>
      <path class="fil74" d="M2645 368l5 27c15,-3 30,-5 45,-7l-4 -27c-16,2 -31,4 -46,7z"/>
      <polygon class="fil75" points="2563,385 2570,412 2614,402 2609,375 "/>
     </g>
     <g>
      <path class="fil76" d="M2978 344l-1 27c15,1 30,1 45,3l2 -27c-15,-2 -31,-2 -46,-3z"/>
      <polygon class="fil77" points="2894,343 2895,370 2940,370 2941,343 "/>
      <path class="fil78" d="M2811 347l2 27c15,-2 30,-2 46,-3l-1 -27c-16,1 -32,1 -47,3z"/>
     </g>
     <g>
      <path class="fil79" d="M3226 383l-8 26c15,5 30,8 44,13l9 -26c-15,-5 -30,-9 -45,-13z"/>
      <polygon class="fil80" points="3144,364 3139,390 3184,400 3190,374 "/>
      <path class="fil81" d="M3062 351l-3 27c15,1 30,4 45,6l4 -27c-15,-2 -31,-5 -46,-6z"/>
     </g>
     <g>
      <polygon class="fil82" points="3457,480 3443,504 3482,528 3497,505 "/>
      <path class="fil83" d="M3383 441l-12 25c7,3 14,6 21,10l20 11 13 -24 -21 -11c-7,-4 -14,-8 -21,-11z"/>
      <polygon class="fil84" points="3306,409 3297,435 3318,442 3339,451 3349,426 3328,417 "/>
     </g>
     <g>
      <polygon class="fil85" points="3655,636 3635,655 3667,688 3687,669 "/>
      <polygon class="fil86" points="3593,578 3576,599 3610,629 3628,609 "/>
      <polygon class="fil87" points="3528,527 3512,549 3548,576 3565,555 "/>
     </g>
     <g>
      <polygon class="fil88" points="3809,834 3786,848 3809,887 3833,874 "/>
      <polygon class="fil89" points="3762,764 3740,780 3766,817 3789,802 "/>
      <polygon class="fil90" points="3711,698 3690,716 3719,751 3741,734 "/>
     </g>
    </g>
    <g>
     <g>
      <path class="fil91" d="M252 3991l-27 7c4,14 8,28 12,42l26 -8c-4,-14 -8,-28 -11,-41z"/>
      <path class="fil92" d="M236 3916l-27 5c3,14 5,29 9,43l26 -6c-3,-14 -6,-28 -8,-42z"/>
      <path class="fil93" d="M227 3841l-28 3c1,14 3,29 5,43l27 -4c-2,-14 -4,-28 -4,-42z"/>
     </g>
     <g>
      <path class="fil94" d="M338 4201l-24 14c8,13 16,25 24,37l22 -15c-7,-12 -15,-23 -22,-36z"/>
      <path class="fil95" d="M303 4134l-25 12c6,13 12,26 19,39l25 -13c-7,-12 -13,-25 -19,-38z"/>
      <path class="fil96" d="M274 4064l-25 9c4,14 10,27 15,41l25 -11c-5,-13 -10,-26 -15,-39z"/>
     </g>
     <g>
      <polygon class="fil97" points="491,4363 478,4387 497,4398 517,4407 529,4382 510,4373 "/>
      <path class="fil98" d="M431 4320l-18 20c5,5 11,10 17,14 6,5 12,10 18,14l15 -22c-5,-4 -11,-9 -16,-13 -6,-4 -11,-9 -16,-13z"/>
      <path class="fil99" d="M380 4265l-22 16c10,12 19,24 29,34l20 -18c-10,-10 -18,-21 -27,-32z"/>
     </g>
     <g>
      <polygon class="fil100" points="706,4434 701,4461 744,4469 748,4442 "/>
      <path class="fil101" d="M632 4418l-7 26c14,4 28,7 43,10l5 -27c-13,-3 -27,-6 -41,-9z"/>
      <path class="fil102" d="M560 4395l-10 26c14,5 28,10 42,14l8 -26c-14,-4 -27,-9 -40,-14z"/>
     </g>
     <g>
      <path class="fil103" d="M931 4494l-12 25c12,6 25,12 37,19l13 -23c-12,-8 -25,-14 -38,-21z"/>
      <polygon class="fil104" points="858,4466 850,4492 870,4498 889,4506 899,4480 879,4472 "/>
      <path class="fil105" d="M782 4448l-4 27c14,2 27,5 41,8l6 -26c-14,-3 -29,-7 -43,-9z"/>
     </g>
     <g>
      <path class="fil106" d="M1116 4636l-20 18c9,11 19,21 28,32l21 -18c-10,-11 -20,-21 -29,-32z"/>
      <path class="fil107" d="M1061 4581l-19 21c11,9 21,18 31,28l19 -19c-10,-11 -21,-20 -31,-30z"/>
      <path class="fil108" d="M999 4533l-15 23c11,8 23,16 33,25l17 -22c-11,-9 -23,-17 -35,-26z"/>
     </g>
     <g>
      <polygon class="fil109" points="1255,4821 1233,4836 1256,4872 1279,4857 "/>
      <path class="fil110" d="M1212 4757l-22 16c8,12 16,23 24,35l23 -15c-9,-12 -16,-24 -25,-36z"/>
      <polygon class="fil111" points="1166,4695 1145,4712 1171,4746 1193,4730 "/>
     </g>
    </g>
   </g>
   <path class="fil112" d="M4891 395c0,0 -46,-5 -84,-45 -32,-33 -43,-66 -47,-85 -4,19 -15,52 -47,85 -38,40 -84,45 -84,45l1 1 -1 1c0,0 46,5 84,44 32,34 43,67 47,86 4,-19 15,-52 47,-86 38,-39 84,-44 84,-44l-1 -1 1 -1z"/>
   <path class="fil113" d="M269 2932c0,0 -46,-5 -84,-44 -32,-34 -43,-67 -47,-86 -4,19 -15,52 -47,86 -38,39 -84,44 -84,44l1 1 -1 1c0,0 46,5 84,45 32,33 43,66 47,85 4,-19 15,-52 47,-85 38,-40 84,-45 84,-45l-1 -1 1 -1z"/>
   <path class="fil114" d="M1654 1108c0,43 -35,78 -79,78 -43,0 -78,-35 -78,-78 0,-43 35,-78 78,-78 44,0 79,35 79,78z"/>
   <path class="fil115" d="M1565 4418c0,43 -35,78 -78,78 -43,0 -78,-35 -78,-78 0,-44 35,-79 78,-79 43,0 78,35 78,79z"/>
  </g>
 </g>
</svg>
