<?xml version="1.0" encoding="UTF-8"?>
<!DOCTYPE svg PUBLIC "-//W3C//DTD SVG 1.1//EN" "http://www.w3.org/Graphics/SVG/1.1/DTD/svg11.dtd">
<!-- Creator: CorelDRAW X7 -->
<svg xmlns="http://www.w3.org/2000/svg" xml:space="preserve" width="1.63999in" height="0.636661in" version="1.1" style="shape-rendering:geometricPrecision; text-rendering:geometricPrecision; image-rendering:optimizeQuality; fill-rule:evenodd; clip-rule:evenodd"
viewBox="0 0 1640 637"
 xmlns:xlink="http://www.w3.org/1999/xlink">
 <defs>
  <style type="text/css">
   <![CDATA[
    .fil1 {fill:none}
    .fil2 {fill:#FEFEFE;fill-rule:nonzero}
    .fil0 {fill:#256EA6;fill-rule:nonzero}
   ]]>
  </style>
    <clipPath id="id0">
     <path d="M319 0l1002 0c175,0 319,143 319,318l0 0c0,176 -144,319 -319,319l-1002 0c-175,0 -319,-143 -319,-319l0 0c0,-175 144,-318 319,-318z"/>
    </clipPath>
 </defs>
 <g id="Layer_x0020_1">
  <metadata id="CorelCorpID_0Corel-Layer"/>
  <g id="_863212832">
   <g>
   </g>
   <g style="clip-path:url(#id0)">
    <g id="_863232704">
     <polygon class="fil0" points="0,1009 1640,1009 1640,-373 0,-373 "/>
    </g>
   </g>
   <path class="fil1" d="M319 0l1002 0c175,0 319,143 319,318l0 0c0,176 -144,319 -319,319l-1002 0c-175,0 -319,-143 -319,-319l0 0c0,-175 144,-318 319,-318z"/>
   <g id="_863215296">
    <g>
     <path class="fil2" d="M587 245l-52 143 -7 17c-3,10 -8,18 -15,24 -7,6 -16,9 -28,9l-62 0 12 -32 47 0c2,0 4,0 6,0 2,-1 3,-3 5,-7l4 -11 -26 0c-6,0 -11,-1 -15,-3 -4,-3 -6,-6 -8,-9 -1,-3 -2,-7 -1,-12 0,-4 1,-9 3,-13l38 -106 36 0 -37 101 -16 9 28 0c5,0 8,-1 9,-3 2,-2 3,-4 4,-6l37 -101 38 0z"/>
     <polygon class="fil2" points="719,199 666,343 646,353 710,353 697,388 611,388 680,199 "/>
     <path class="fil2" d="M818 287c1,-2 1,-4 0,-6 0,-2 -3,-3 -7,-3l-7 0c-4,0 -7,1 -9,3 -2,2 -4,4 -5,6l-21 59 -16 9 29 0c5,0 8,-1 10,-3 2,-2 4,-4 4,-6l22 -59zm16 -42c6,0 11,1 15,3 4,2 6,5 8,9 1,3 2,7 1,11 0,5 -1,9 -3,13l-25 70c-2,4 -4,9 -7,13 -2,4 -6,8 -10,12 -4,3 -8,6 -13,9 -6,2 -12,3 -19,3l-27 0c-7,0 -12,-1 -16,-3 -4,-3 -6,-6 -8,-9 -1,-4 -2,-8 -1,-12 0,-4 1,-9 3,-13l25 -70c2,-4 4,-8 6,-13 3,-4 7,-8 11,-11 4,-4 8,-7 14,-9 5,-2 11,-3 18,-3l28 0z"/>
     <path class="fil2" d="M937 278l-15 0c-2,0 -5,0 -8,2 -3,1 -4,4 -6,7l-21 59 -17 9 39 0 28 -77zm-9 127c-3,10 -9,18 -15,24 -7,6 -16,9 -28,9l-62 0 12 -32 47 0c2,0 3,0 5,0 3,-1 4,-3 6,-7l4 -11 -24 0c-5,0 -9,-1 -13,-1 -4,-1 -8,-3 -10,-6 -2,-3 -4,-6 -4,-11 0,-5 1,-12 4,-20l25 -69c5,-13 11,-22 20,-28 8,-5 18,-8 28,-8l64 0 -53 143 -6 17z"/>
     <path class="fil2" d="M1017 231c2,4 6,6 12,6 5,0 10,-2 15,-6 5,-4 9,-8 11,-13 2,-6 2,-10 -1,-14 -2,-4 -6,-5 -12,-5 -5,0 -10,1 -15,5 -5,4 -9,8 -11,14 -2,5 -2,9 1,13zm-25 157l-37 0 52 -143 37 0 -52 143z"/>
     <path class="fil2" d="M1110 297l5 -13c0,-2 1,-4 0,-6 0,-1 -2,-2 -6,-2l-11 0c-3,0 -5,0 -6,2 -2,1 -3,3 -3,5l-2 3c-1,3 -1,7 1,10 2,4 6,7 13,10 0,0 1,1 4,2 2,1 4,2 7,4 3,2 6,4 9,6 2,2 4,4 5,7 1,3 2,6 2,10 -1,3 -2,7 -4,13l-3 10c-2,3 -4,7 -7,11 -3,3 -6,7 -10,10 -4,3 -9,5 -14,7 -6,2 -12,3 -19,3l-25 0c-7,0 -11,-1 -15,-3 -3,-2 -6,-5 -7,-9 -1,-3 -2,-7 -1,-11 0,-4 1,-8 2,-12l7 -17 33 0 -5 12 -17 8 33 0c5,0 9,-3 11,-8 1,-2 1,-4 1,-5 0,-1 -1,-2 -2,-3 -1,-1 -3,-2 -5,-3 -2,-1 -5,-3 -8,-4 -6,-3 -12,-6 -15,-9 -4,-3 -7,-7 -9,-11 -2,-4 -2,-8 -2,-13 0,-5 2,-10 4,-16l3 -8c2,-6 5,-11 9,-15 4,-4 8,-7 13,-10 4,-2 9,-4 14,-5 5,-2 9,-2 14,-2l25 0c6,0 11,1 15,3 3,2 6,5 7,8 1,3 2,7 1,11 0,4 -1,8 -3,12l-6 18 -33 0z"/>
     <polygon class="fil2" points="1263,245 1251,277 1230,277 1189,388 1152,388 1192,277 1170,277 1182,245 1204,245 1221,199 1258,199 1245,236 1228,245 "/>
     <path class="fil2" d="M1293 231c2,4 6,6 12,6 5,0 10,-2 16,-6 5,-4 8,-8 10,-13 2,-6 2,-10 -1,-14 -2,-4 -6,-5 -11,-5 -6,0 -11,1 -16,5 -5,4 -9,8 -11,14 -2,5 -1,9 1,13zm-24 157l-38 0 52 -143 38 0 -52 143z"/>
     <path class="fil2" d="M1389 388l-63 0c-5,0 -10,-1 -13,-3 -4,-2 -7,-4 -8,-8 -2,-3 -3,-7 -3,-11 0,-5 1,-10 2,-15l26 -70c2,-7 6,-12 10,-17 4,-4 8,-8 13,-11 4,-3 9,-5 13,-6 5,-2 9,-2 12,-2l63 0 -11 32 -42 20 7 -19 -25 0 -25 69 -17 8 39 0 6 -18 35 0 -19 51z"/>
     <path class="fil2" d="M1507 297l5 -13c0,-2 1,-4 0,-6 0,-1 -2,-2 -6,-2l-11 0c-3,0 -5,0 -6,2 -2,1 -3,3 -3,5l-2 3c-1,3 -1,7 1,10 2,4 6,7 13,10 0,0 1,1 3,2 3,1 5,2 8,4 3,2 6,4 9,6 2,2 4,4 5,7 1,3 2,6 1,10 0,3 -1,7 -3,13l-3 10c-2,3 -4,7 -7,11 -3,3 -6,7 -10,10 -4,3 -9,5 -14,7 -6,2 -12,3 -19,3l-25 0c-7,0 -12,-1 -15,-3 -3,-2 -6,-5 -7,-9 -1,-3 -2,-7 -1,-11 0,-4 1,-8 2,-12l7 -17 33 0 -5 12 -17 8 33 0c5,0 9,-3 11,-8 1,-2 1,-4 1,-5 0,-1 -1,-2 -2,-3 -1,-1 -3,-2 -5,-3 -2,-1 -5,-3 -8,-4 -6,-3 -12,-6 -15,-9 -4,-3 -7,-7 -9,-11 -2,-4 -2,-8 -2,-13 0,-5 2,-10 4,-16l3 -8c2,-6 5,-11 9,-15 4,-4 8,-7 13,-10 4,-2 9,-4 14,-5 5,-2 9,-2 14,-2l25 0c6,0 11,1 15,3 3,2 6,5 7,8 1,3 2,7 1,11 0,4 -1,8 -3,12l-6 18 -33 0z"/>
    </g>
    <path class="fil2" d="M209 239c1,-3 1,-5 0,-7 -1,-2 -3,-3 -7,-3l-16 0 -43 118 -18 8 31 0c4,0 8,-1 10,-3 2,-2 3,-4 4,-6l39 -107zm15 -40c3,0 7,0 11,1 4,1 7,3 9,6 3,3 4,7 5,11 0,5 -1,11 -4,18l-42 116c-1,4 -3,9 -6,13 -3,4 -6,8 -10,12 -4,3 -9,6 -14,9 -5,2 -12,3 -18,3l-64 0 69 -189 64 0z"/>
    <path class="fil2" d="M294 317l-3 0c-3,0 -7,0 -10,1 -3,1 -6,2 -7,3 -4,2 -6,5 -8,8 -2,3 -4,6 -6,10l-3 9 -15 7 38 0 14 -38zm11 71l-63 0c-10,0 -18,-3 -22,-9 -4,-6 -4,-15 1,-28l4 -12c3,-8 7,-15 13,-21 5,-6 11,-11 17,-15 6,-4 13,-7 19,-9 6,-2 12,-3 16,-3l13 0 3 -7c1,-4 1,-6 -1,-7 -2,0 -3,0 -4,0l-52 0 12 -32 65 0c12,0 19,3 21,9 3,6 2,14 -1,24l-41 110z"/>
    <path class="fil2" d="M388 231c2,4 6,6 11,6 6,0 11,-2 16,-6 5,-4 9,-8 11,-13 2,-6 1,-10 -1,-14 -2,-4 -6,-5 -12,-5 -5,0 -10,1 -16,5 -5,4 -8,8 -10,14 -2,5 -2,9 1,13zm-25 157l-38 0 53 -143 37 0 -52 143z"/>
    <polygon class="fil2" points="492,199 423,388 384,388 453,199 "/>
   </g>
  </g>
 </g>
</svg>
