<svg id="_Layer_" data-name="&lt;Layer&gt;" xmlns="http://www.w3.org/2000/svg" viewBox="0 0 2539.11 1130.5"><defs><style>.cls-1{fill:#ebf3fa;}.cls-2{fill:#f8fbff;}.cls-3{fill:#c4d9ed;}.cls-4{fill:#d5e7f7;}.cls-5{fill:#dceaf9;}.cls-6{opacity:0.8;}.cls-7{fill:#adc9e0;}.cls-8{fill:#abc6dd;}.cls-10,.cls-9{fill:#a8302d;}.cls-10,.cls-16,.cls-24{opacity:0.3;}.cls-11{fill:#661717;}.cls-12{fill:#c94c43;}.cls-13{fill:#631818;}.cls-14{fill:#822121;}.cls-15{fill:#a2c2dd;}.cls-16{fill:#8e2323;}.cls-17{fill:#8e2525;}.cls-18{fill:#f99746;}.cls-19{fill:#699ff0;}.cls-20{fill:#a8d29f;}.cls-21{fill:#283250;}.cls-22{fill:#ffb27d;}.cls-23{fill:#ffc197;}.cls-24{fill:#e2915a;}.cls-25,.cls-26{fill:#d3671e;}.cls-26,.cls-27{opacity:0.4;}.cls-27{fill:#d86713;}.cls-28{fill:#fbecdb;}.cls-29{fill:#fce6d2;}.cls-30{fill:#f1a34f;}.cls-31{fill:#ddb997;}.cls-32{fill:#ca5f00;}</style></defs><title>tracking</title><path class="cls-1" d="M2660.19,1408.79s-120.39.19-304,.58c-537.66,1-1617.77,2.74-1806.19,1.86-252.83-1.17-427.74-655.4,45-611C1108.49,848.42,732.92,553.8,1035.37,505c329.18-53.25,395.54,151.52,631.92,67.83,323.11-114.43,498.61-74.59,611.07,8.91,123.33,91.61,170.61,235.79,253.41,286.2q2.79,1.76,5.58,3.23c160.92,88.09,233.74,173.35,257.53,249C2847.93,1288,2660.19,1408.79,2660.19,1408.79Z" transform="translate(-298.27 -286.46)"/><path class="cls-2" d="M2531.81,867.92l-1219.69,207.4L1221,966.11l1057.31-384.4C2401.69,673.32,2449,817.46,2531.81,867.92Z" transform="translate(-298.27 -286.46)"/><path class="cls-2" d="M1895,610.22,688.05,999.16c35.55-25.92-46.21-166.44,1.78-213.07Z" transform="translate(-298.27 -286.46)"/><path class="cls-2" d="M2043.45,544.62a29.09,29.09,0,1,0,29.09,29.09A29.08,29.08,0,0,0,2043.45,544.62Z" transform="translate(-298.27 -286.46)"/><rect class="cls-3" x="1368.63" y="353.1" width="137.71" height="669.67"/><rect class="cls-4" x="1399.56" y="353.1" width="137.71" height="669.67"/><rect class="cls-3" x="1697.86" y="639.38" width="137.67" height="38.7" transform="translate(3235.13 1031) rotate(180)"/><rect class="cls-3" x="1697.86" y="723.31" width="137.67" height="38.7" transform="translate(3235.13 1198.86) rotate(180)"/><rect class="cls-3" x="1697.86" y="807.24" width="137.67" height="38.7" transform="translate(3235.13 1366.72) rotate(180)"/><rect class="cls-3" x="1697.86" y="891.17" width="137.67" height="38.7" transform="translate(3235.13 1534.57) rotate(180)"/><rect class="cls-3" x="1697.86" y="975.1" width="137.67" height="38.7" transform="translate(3235.13 1702.43) rotate(180)"/><rect class="cls-3" x="1697.86" y="1059.03" width="137.67" height="38.7" transform="translate(3235.13 1870.28) rotate(180)"/><rect class="cls-3" x="1697.86" y="1142.96" width="137.67" height="38.7" transform="translate(3235.13 2038.14) rotate(180)"/><rect class="cls-3" x="1697.86" y="1226.88" width="137.67" height="38.7" transform="translate(3235.13 2206) rotate(180)"/><rect class="cls-3" x="1588.77" y="447.86" width="137.71" height="574.91"/><rect class="cls-4" x="1619.7" y="447.86" width="137.71" height="574.91"/><rect class="cls-3" x="1918" y="734.17" width="137.67" height="33.22" transform="translate(3675.41 1215.1) rotate(180)"/><rect class="cls-3" x="1918" y="806.22" width="137.67" height="33.22" transform="translate(3675.41 1359.2) rotate(180)"/><rect class="cls-3" x="1918" y="878.27" width="137.67" height="33.22" transform="translate(3675.41 1503.3) rotate(180)"/><rect class="cls-3" x="1918" y="950.33" width="137.67" height="33.22" transform="translate(3675.41 1647.41) rotate(180)"/><rect class="cls-3" x="1918" y="1022.38" width="137.67" height="33.22" transform="translate(3675.41 1791.51) rotate(180)"/><rect class="cls-3" x="1918" y="1094.43" width="137.67" height="33.22" transform="translate(3675.41 1935.62) rotate(180)"/><rect class="cls-3" x="1918" y="1166.48" width="137.67" height="33.22" transform="translate(3675.41 2079.72) rotate(180)"/><rect class="cls-3" x="1918" y="1238.54" width="137.67" height="33.22" transform="translate(3675.41 2223.83) rotate(180)"/><rect class="cls-5" x="1592.37" y="1288.69" width="57.67" height="84.09" transform="translate(2944.13 2375) rotate(180)"/><path class="cls-4" d="M1610,1174v233.47H999.13l-4.16,0-155.89-1.47-.47-.81-.91-1.58-.38-.67c-.47-.83-1-1.76-1.57-2.83-.72-1.3-1.51-2.78-2.4-4.43h0c-3.27-6.14-7.62-14.67-12.56-25.25-1.63-3.48-3.3-7.18-5-11.1-.69-1.56-1.38-3.15-2.09-4.77h0c-.68-1.57-1.37-3.17-2-4.81a1.11,1.11,0,0,0-.07-.16c-.47-1.13-.95-2.26-1.42-3.42s-1-2.39-1.5-3.6c-2.55-6.27-5.16-12.93-7.76-20-.06-.18-.13-.37-.2-.55h0q-2.55-6.88-5.07-14.22c-.93-2.69-1.84-5.41-2.75-8.18-.05-.17-.11-.34-.16-.52-.41-1.23-.8-2.46-1.2-3.7-.34-1-.67-2.1-1-3.15-.68-2.17-1.36-4.37-2-6.58-.86-2.85-1.72-5.74-2.56-8.66q-1.71-6-3.34-12.11c-.33-1.23-.66-2.47-1-3.71q-1.42-5.57-2.8-11.27c-.3-1.22-.59-2.44-.87-3.67-.18-.76-.36-1.52-.53-2.28-1.37-6-2.68-12.15-3.89-18.39q-2-10.32-3.69-21-1.54-9.87-2.75-20-1.14-9.6-1.93-19.42c-1.24-15.33-1.81-31.06-1.57-47.08a439.08,439.08,0,0,1,9.63-85.83c.23-1.06.47-2.12.7-3.18q2.34-10.41,5.25-20.84,2.22-8,4.8-15.93,1.88-5.78,4-11.56,4.68-13.1,10.43-26.17h3.27v-7.25c20.84-45,51.56-89.5,95.28-131.64l2.45-2.35h2.56v89.3h79V757h87.2v94.47H1088V738.69h87.21V950.14h110.3v123.29h41.21v31.07h94.66V1051h54.35V905.66h67.13V1174Z" transform="translate(-298.27 -286.46)"/><rect class="cls-3" x="1087.98" y="752.96" width="87.26" height="21.54" transform="translate(1964.95 1241.01) rotate(180)"/><rect class="cls-3" x="1087.98" y="793.44" width="87.26" height="21.54" transform="translate(1964.95 1321.95) rotate(180)"/><rect class="cls-3" x="1087.98" y="829.85" width="87.26" height="21.54" transform="translate(1964.95 1394.78) rotate(180)"/><rect class="cls-3" x="980.91" y="829.85" width="87.26" height="21.54" transform="translate(1750.8 1394.78) rotate(180)"/><rect class="cls-3" x="980.91" y="793.44" width="87.26" height="21.54" transform="translate(1750.8 1321.95) rotate(180)"/><rect class="cls-3" x="980.91" y="757.08" width="87.26" height="21.54" transform="translate(1750.8 1249.24) rotate(180)"/><rect class="cls-3" x="980.88" y="865.16" width="194.36" height="21.54" transform="translate(1857.85 1465.39) rotate(180)"/><rect class="cls-3" x="980.88" y="900.46" width="194.36" height="21.54" transform="translate(1857.85 1536) rotate(180)"/><rect class="cls-3" x="1475.08" y="905.68" width="67.73" height="33.25" transform="translate(2719.62 1558.15) rotate(180)"/><rect class="cls-3" x="1475.08" y="955.14" width="67.73" height="33.26" transform="translate(2719.62 1657.06) rotate(180)"/><rect class="cls-3" x="1475.08" y="1004.59" width="67.73" height="33.26" transform="translate(2719.62 1755.98) rotate(180)"/><rect class="cls-3" x="1475.08" y="1056.43" width="67.73" height="33.26" transform="translate(2719.62 1859.66) rotate(180)"/><rect class="cls-3" x="1475.08" y="1106.67" width="67.73" height="33.26" transform="translate(2719.62 1960.13) rotate(180)"/><rect class="cls-3" x="1475.08" y="1156.91" width="67.73" height="33.26" transform="translate(2719.62 2060.6) rotate(180)"/><rect class="cls-3" x="1475.08" y="1209.46" width="67.73" height="33.26" transform="translate(2719.62 2165.72) rotate(180)"/><rect class="cls-3" x="980.88" y="934.97" width="194.36" height="13.68" transform="translate(1857.85 1597.14) rotate(180)"/><rect class="cls-3" x="1152.78" y="619.22" width="24.97" height="145.33"/><rect class="cls-3" x="1072.85" y="764.54" width="50.23" height="53.49"/><path class="cls-3" d="M980.91,757.08v21.54l0,86.53v37.37H963.57V758.79l2.33-1.71Z" transform="translate(-298.27 -286.46)"/><rect class="cls-3" x="779.07" y="452.22" width="10.64" height="112.7"/><g class="cls-6"><rect class="cls-3" x="1252.68" y="971.35" width="14.78" height="20.84" transform="translate(2221.87 1677.07) rotate(180)"/><rect class="cls-3" x="1225.03" y="971.35" width="14.79" height="20.84" transform="translate(2166.58 1677.07) rotate(180)"/><rect class="cls-3" x="1198" y="971.35" width="14.78" height="20.84" transform="translate(2112.52 1677.07) rotate(180)"/><rect class="cls-3" x="1172.38" y="971.35" width="14.78" height="20.84" transform="translate(2061.27 1677.07) rotate(180)"/><rect class="cls-3" x="1146.26" y="971.35" width="14.78" height="20.84" transform="translate(2009.03 1677.07) rotate(180)"/><rect class="cls-3" x="1119.84" y="971.35" width="14.78" height="20.84" transform="translate(1956.2 1677.07) rotate(180)"/><rect class="cls-3" x="1092.2" y="971.35" width="14.78" height="20.84" transform="translate(1900.9 1677.07) rotate(180)"/><rect class="cls-3" x="1065.17" y="971.35" width="14.78" height="20.84" transform="translate(1846.85 1677.07) rotate(180)"/><rect class="cls-3" x="1039.54" y="971.35" width="14.78" height="20.84" transform="translate(1795.6 1677.07) rotate(180)"/><rect class="cls-3" x="1013.42" y="971.35" width="14.78" height="20.84" transform="translate(1743.36 1677.07) rotate(180)"/><rect class="cls-3" x="986.21" y="971.35" width="14.79" height="20.84" transform="translate(1688.93 1677.07) rotate(180)"/><rect class="cls-3" x="958.56" y="971.35" width="14.78" height="20.84" transform="translate(1633.63 1677.07) rotate(180)"/><rect class="cls-3" x="931.53" y="971.35" width="14.78" height="20.84" transform="translate(1579.58 1677.07) rotate(180)"/><rect class="cls-3" x="905.91" y="971.35" width="14.78" height="20.84" transform="translate(1528.32 1677.07) rotate(180)"/><rect class="cls-3" x="879.79" y="971.35" width="14.78" height="20.84" transform="translate(1476.09 1677.07) rotate(180)"/><rect class="cls-3" x="853.37" y="971.35" width="14.79" height="20.84" transform="translate(1423.25 1677.07) rotate(180)"/><rect class="cls-3" x="825.72" y="971.35" width="14.78" height="20.84" transform="translate(1367.96 1677.07) rotate(180)"/><rect class="cls-3" x="798.69" y="971.35" width="14.78" height="20.84" transform="translate(1313.9 1677.07) rotate(180)"/><path class="cls-3" d="M787.86,980.63v11.56h-4Q785.79,986.42,787.86,980.63Z" transform="translate(-298.27 -286.46)"/><rect class="cls-3" x="1252.68" y="1008.12" width="14.78" height="20.84" transform="translate(2221.87 1750.62) rotate(180)"/><rect class="cls-3" x="1225.03" y="1008.12" width="14.79" height="20.84" transform="translate(2166.58 1750.62) rotate(180)"/><rect class="cls-3" x="1198" y="1008.12" width="14.78" height="20.84" transform="translate(2112.52 1750.62) rotate(180)"/><rect class="cls-3" x="1172.38" y="1008.12" width="14.78" height="20.84" transform="translate(2061.27 1750.62) rotate(180)"/><rect class="cls-3" x="1146.26" y="1008.12" width="14.78" height="20.84" transform="translate(2009.03 1750.62) rotate(180)"/><rect class="cls-3" x="1119.84" y="1008.12" width="14.78" height="20.84" transform="translate(1956.2 1750.62) rotate(180)"/><rect class="cls-3" x="1092.2" y="1008.12" width="14.78" height="20.84" transform="translate(1900.9 1750.62) rotate(180)"/><rect class="cls-3" x="1065.17" y="1008.12" width="14.78" height="20.84" transform="translate(1846.85 1750.62) rotate(180)"/><rect class="cls-3" x="1039.54" y="1008.12" width="14.78" height="20.84" transform="translate(1795.6 1750.62) rotate(180)"/><rect class="cls-3" x="1013.42" y="1008.12" width="14.78" height="20.84" transform="translate(1743.36 1750.62) rotate(180)"/><rect class="cls-3" x="986.21" y="1008.12" width="14.79" height="20.84" transform="translate(1688.93 1750.62) rotate(180)"/><rect class="cls-3" x="958.56" y="1008.12" width="14.78" height="20.84" transform="translate(1633.63 1750.62) rotate(180)"/><rect class="cls-3" x="931.53" y="1008.12" width="14.78" height="20.84" transform="translate(1579.58 1750.62) rotate(180)"/><rect class="cls-3" x="905.91" y="1008.12" width="14.78" height="20.84" transform="translate(1528.32 1750.62) rotate(180)"/><rect class="cls-3" x="879.79" y="1008.12" width="14.78" height="20.84" transform="translate(1476.09 1750.62) rotate(180)"/><rect class="cls-3" x="853.37" y="1008.12" width="14.79" height="20.84" transform="translate(1423.25 1750.62) rotate(180)"/><rect class="cls-3" x="825.72" y="1008.12" width="14.78" height="20.84" transform="translate(1367.96 1750.62) rotate(180)"/><rect class="cls-3" x="798.69" y="1008.12" width="14.78" height="20.84" transform="translate(1313.9 1750.62) rotate(180)"/><path class="cls-3" d="M787.86,1008.12V1029h-14q2.34-10.41,5.25-20.84Z" transform="translate(-298.27 -286.46)"/><rect class="cls-3" x="1252.68" y="1044.33" width="14.78" height="20.84" transform="translate(2221.87 1823.04) rotate(180)"/><rect class="cls-3" x="1225.03" y="1044.33" width="14.79" height="20.84" transform="translate(2166.58 1823.04) rotate(180)"/><rect class="cls-3" x="1198" y="1044.33" width="14.78" height="20.84" transform="translate(2112.52 1823.04) rotate(180)"/><rect class="cls-3" x="1172.38" y="1044.33" width="14.78" height="20.84" transform="translate(2061.27 1823.04) rotate(180)"/><rect class="cls-3" x="1146.26" y="1044.33" width="14.78" height="20.84" transform="translate(2009.03 1823.04) rotate(180)"/><rect class="cls-3" x="1119.84" y="1044.33" width="14.78" height="20.84" transform="translate(1956.2 1823.04) rotate(180)"/><rect class="cls-3" x="1092.2" y="1044.33" width="14.78" height="20.84" transform="translate(1900.9 1823.04) rotate(180)"/><rect class="cls-3" x="1065.17" y="1044.33" width="14.78" height="20.84" transform="translate(1846.85 1823.04) rotate(180)"/><rect class="cls-3" x="1039.54" y="1044.33" width="14.78" height="20.84" transform="translate(1795.6 1823.04) rotate(180)"/><rect class="cls-3" x="1013.42" y="1044.33" width="14.78" height="20.84" transform="translate(1743.36 1823.04) rotate(180)"/><rect class="cls-3" x="986.21" y="1044.33" width="14.79" height="20.84" transform="translate(1688.93 1823.04) rotate(180)"/><rect class="cls-3" x="958.56" y="1044.33" width="14.78" height="20.84" transform="translate(1633.63 1823.04) rotate(180)"/><rect class="cls-3" x="931.53" y="1044.33" width="14.78" height="20.84" transform="translate(1579.58 1823.04) rotate(180)"/><rect class="cls-3" x="905.91" y="1044.33" width="14.78" height="20.84" transform="translate(1528.32 1823.04) rotate(180)"/><rect class="cls-3" x="879.79" y="1044.33" width="14.78" height="20.84" transform="translate(1476.09 1823.04) rotate(180)"/><rect class="cls-3" x="853.37" y="1044.33" width="14.79" height="20.84" transform="translate(1423.25 1823.04) rotate(180)"/><rect class="cls-3" x="825.72" y="1044.33" width="14.78" height="20.84" transform="translate(1367.96 1823.04) rotate(180)"/><rect class="cls-3" x="798.69" y="1044.33" width="14.78" height="20.84" transform="translate(1313.9 1823.04) rotate(180)"/><rect class="cls-3" x="773.07" y="1044.33" width="14.79" height="20.84" transform="translate(1262.65 1823.04) rotate(180)"/><rect class="cls-3" x="1252.68" y="1082.8" width="14.78" height="20.84" transform="translate(2221.87 1899.98) rotate(180)"/><rect class="cls-3" x="1225.03" y="1082.8" width="14.79" height="20.84" transform="translate(2166.58 1899.98) rotate(180)"/><rect class="cls-3" x="1198" y="1082.8" width="14.78" height="20.84" transform="translate(2112.52 1899.98) rotate(180)"/><rect class="cls-3" x="1172.38" y="1082.8" width="14.78" height="20.84" transform="translate(2061.27 1899.98) rotate(180)"/><rect class="cls-3" x="1146.26" y="1082.8" width="14.78" height="20.84" transform="translate(2009.03 1899.98) rotate(180)"/><rect class="cls-3" x="1119.84" y="1082.8" width="14.78" height="20.84" transform="translate(1956.2 1899.98) rotate(180)"/><rect class="cls-3" x="1092.2" y="1082.8" width="14.78" height="20.84" transform="translate(1900.9 1899.98) rotate(180)"/><rect class="cls-3" x="1065.17" y="1082.8" width="14.78" height="20.84" transform="translate(1846.85 1899.98) rotate(180)"/><rect class="cls-3" x="1039.54" y="1082.8" width="14.78" height="20.84" transform="translate(1795.6 1899.98) rotate(180)"/><rect class="cls-3" x="1013.42" y="1082.8" width="14.78" height="20.84" transform="translate(1743.36 1899.98) rotate(180)"/><rect class="cls-3" x="986.21" y="1082.8" width="14.79" height="20.84" transform="translate(1688.93 1899.98) rotate(180)"/><rect class="cls-3" x="958.56" y="1082.8" width="14.78" height="20.84" transform="translate(1633.63 1899.98) rotate(180)"/><rect class="cls-3" x="931.53" y="1082.8" width="14.78" height="20.84" transform="translate(1579.58 1899.98) rotate(180)"/><rect class="cls-3" x="905.91" y="1082.8" width="14.78" height="20.84" transform="translate(1528.32 1899.98) rotate(180)"/><rect class="cls-3" x="879.79" y="1082.8" width="14.78" height="20.84" transform="translate(1476.09 1899.98) rotate(180)"/><rect class="cls-3" x="853.37" y="1082.8" width="14.79" height="20.84" transform="translate(1423.25 1899.98) rotate(180)"/><rect class="cls-3" x="825.72" y="1082.8" width="14.78" height="20.84" transform="translate(1367.96 1899.98) rotate(180)"/><rect class="cls-3" x="798.69" y="1082.8" width="14.78" height="20.84" transform="translate(1313.9 1899.98) rotate(180)"/><rect class="cls-3" x="773.07" y="1082.8" width="14.79" height="20.84" transform="translate(1262.65 1899.98) rotate(180)"/><rect class="cls-3" x="1252.68" y="1119.58" width="14.78" height="20.84" transform="translate(2221.87 1973.52) rotate(180)"/><rect class="cls-3" x="1225.03" y="1119.58" width="14.79" height="20.84" transform="translate(2166.58 1973.52) rotate(180)"/><rect class="cls-3" x="1198" y="1119.58" width="14.78" height="20.84" transform="translate(2112.52 1973.52) rotate(180)"/><rect class="cls-3" x="1172.38" y="1119.58" width="14.78" height="20.84" transform="translate(2061.27 1973.52) rotate(180)"/><rect class="cls-3" x="1146.26" y="1119.58" width="14.78" height="20.84" transform="translate(2009.03 1973.52) rotate(180)"/><rect class="cls-3" x="1119.84" y="1119.58" width="14.78" height="20.84" transform="translate(1956.2 1973.52) rotate(180)"/><rect class="cls-3" x="1092.2" y="1119.58" width="14.78" height="20.84" transform="translate(1900.9 1973.52) rotate(180)"/><rect class="cls-3" x="1065.17" y="1119.58" width="14.78" height="20.84" transform="translate(1846.85 1973.52) rotate(180)"/><rect class="cls-3" x="1039.54" y="1119.58" width="14.78" height="20.84" transform="translate(1795.6 1973.52) rotate(180)"/><rect class="cls-3" x="1013.42" y="1119.58" width="14.78" height="20.84" transform="translate(1743.36 1973.52) rotate(180)"/><rect class="cls-3" x="986.21" y="1119.58" width="14.79" height="20.84" transform="translate(1688.93 1973.52) rotate(180)"/><rect class="cls-3" x="958.56" y="1119.58" width="14.78" height="20.84" transform="translate(1633.63 1973.52) rotate(180)"/><rect class="cls-3" x="931.53" y="1119.58" width="14.78" height="20.84" transform="translate(1579.58 1973.52) rotate(180)"/><rect class="cls-3" x="905.91" y="1119.58" width="14.78" height="20.84" transform="translate(1528.32 1973.52) rotate(180)"/><rect class="cls-3" x="879.79" y="1119.58" width="14.78" height="20.84" transform="translate(1476.09 1973.52) rotate(180)"/><rect class="cls-3" x="853.37" y="1119.58" width="14.79" height="20.84" transform="translate(1423.25 1973.52) rotate(180)"/><rect class="cls-3" x="825.72" y="1119.58" width="14.78" height="20.84" transform="translate(1367.96 1973.52) rotate(180)"/><rect class="cls-3" x="798.69" y="1119.58" width="14.78" height="20.84" transform="translate(1313.9 1973.52) rotate(180)"/><rect class="cls-3" x="773.07" y="1119.58" width="14.79" height="20.84" transform="translate(1262.65 1973.52) rotate(180)"/><rect class="cls-3" x="1252.68" y="1155.78" width="14.78" height="20.84" transform="translate(2221.87 2045.94) rotate(180)"/><rect class="cls-3" x="1225.03" y="1155.78" width="14.79" height="20.84" transform="translate(2166.58 2045.94) rotate(180)"/><rect class="cls-3" x="1198" y="1155.78" width="14.78" height="20.84" transform="translate(2112.52 2045.94) rotate(180)"/><rect class="cls-3" x="1172.38" y="1155.78" width="14.78" height="20.84" transform="translate(2061.27 2045.94) rotate(180)"/><rect class="cls-3" x="1146.26" y="1155.78" width="14.78" height="20.84" transform="translate(2009.03 2045.94) rotate(180)"/><rect class="cls-3" x="1119.84" y="1155.78" width="14.78" height="20.84" transform="translate(1956.2 2045.94) rotate(180)"/><rect class="cls-3" x="1092.2" y="1155.78" width="14.78" height="20.84" transform="translate(1900.9 2045.94) rotate(180)"/><rect class="cls-3" x="1065.17" y="1155.78" width="14.78" height="20.84" transform="translate(1846.85 2045.94) rotate(180)"/><rect class="cls-3" x="1039.54" y="1155.78" width="14.78" height="20.84" transform="translate(1795.6 2045.94) rotate(180)"/><rect class="cls-3" x="1013.42" y="1155.78" width="14.78" height="20.84" transform="translate(1743.36 2045.94) rotate(180)"/><rect class="cls-3" x="986.21" y="1155.78" width="14.79" height="20.84" transform="translate(1688.93 2045.94) rotate(180)"/><rect class="cls-3" x="958.56" y="1155.78" width="14.78" height="20.84" transform="translate(1633.63 2045.94) rotate(180)"/><rect class="cls-3" x="931.53" y="1155.78" width="14.78" height="20.84" transform="translate(1579.58 2045.94) rotate(180)"/><rect class="cls-3" x="905.91" y="1155.78" width="14.78" height="20.84" transform="translate(1528.32 2045.94) rotate(180)"/><rect class="cls-3" x="879.79" y="1155.78" width="14.78" height="20.84" transform="translate(1476.09 2045.94) rotate(180)"/><rect class="cls-3" x="853.37" y="1155.78" width="14.79" height="20.84" transform="translate(1423.25 2045.94) rotate(180)"/><rect class="cls-3" x="825.72" y="1155.78" width="14.78" height="20.84" transform="translate(1367.96 2045.94) rotate(180)"/><rect class="cls-3" x="798.69" y="1155.78" width="14.78" height="20.84" transform="translate(1313.9 2045.94) rotate(180)"/><rect class="cls-3" x="773.07" y="1155.78" width="14.79" height="20.84" transform="translate(1262.65 2045.94) rotate(180)"/></g><rect class="cls-3" x="1028.46" y="1221.07" width="342.67" height="184.86" transform="translate(2101.31 2340.54) rotate(180)"/><rect class="cls-3" x="1288.3" y="1313.5" width="342.66" height="92.43" transform="translate(2620.98 2432.97) rotate(180)"/><path class="cls-3" d="M1001,1249.87v156.06H839.08l-.47-.81-.91-1.58-.38-.67c-.47-.83-1-1.76-1.57-2.83-.72-1.3-1.51-2.78-2.4-4.43h0c-3.27-6.14-7.62-14.67-12.56-25.25-1.63-3.48-3.3-7.18-5-11.1-.69-1.56-1.38-3.15-2.09-4.77h0c-.68-1.57-1.37-3.17-2-4.81a1.11,1.11,0,0,0-.07-.16c-.47-1.13-.95-2.26-1.42-3.42s-1-2.39-1.5-3.6c-2.55-6.27-5.16-12.93-7.76-20-.06-.18-.13-.37-.2-.55h0q-2.55-6.88-5.07-14.22c-.93-2.69-1.84-5.41-2.75-8.18-.05-.17-.11-.34-.16-.52-.41-1.23-.8-2.46-1.2-3.7-.34-1-.67-2.1-1-3.15-.68-2.17-1.36-4.37-2-6.58-.86-2.85-1.72-5.74-2.56-8.66q-1.71-6-3.34-12.11c-.33-1.23-.66-2.47-1-3.71q-1.42-5.57-2.8-11.27Z" transform="translate(-298.27 -286.46)"/><rect class="cls-4" x="1284.39" y="1242.72" width="63.84" height="34.24" transform="translate(2334.35 2233.21) rotate(180)"/><rect class="cls-4" x="1202.44" y="1242.72" width="63.84" height="34.24" transform="translate(2170.45 2233.21) rotate(180)"/><rect class="cls-4" x="1122.05" y="1242.72" width="63.84" height="34.24" transform="translate(2009.67 2233.21) rotate(180)"/><rect class="cls-4" x="1043.2" y="1242.72" width="63.84" height="34.24" transform="translate(1851.97 2233.21) rotate(180)"/><rect class="cls-7" x="999.13" y="1221.07" width="32.89" height="186.45" transform="translate(1732.88 2342.13) rotate(180)"/><rect class="cls-5" x="1527.55" y="891.21" width="1.78" height="14.47" transform="translate(2758.61 1510.42) rotate(180)"/><rect class="cls-5" x="1463.56" y="891.21" width="1.78" height="14.47" transform="translate(2630.62 1510.42) rotate(180)"/><path class="cls-4" d="M767,1184.47q1.2,10.15,2.75,20,1.66,10.7,3.69,21c1.21,6.24,2.52,12.37,3.89,18.39.17.76.35,1.52.53,2.28.28,1.23.57,2.45.87,3.67q1.37,5.72,2.8,11.27c.32,1.24.65,2.48,1,3.71q1.62,6.15,3.34,12.11c.84,2.92,1.7,5.81,2.56,8.66.68,2.21,1.36,4.41,2,6.58.33,1,.66,2.1,1,3.15.4,1.24.79,2.47,1.2,3.7.05.18.11.35.16.52.91,2.77,1.82,5.49,2.75,8.18q2.52,7.34,5.07,14.22h0c.07.18.14.37.2.55,2.6,7,5.21,13.68,7.76,20q.75,1.82,1.5,3.6c.47,1.16,1,2.29,1.42,3.42a1.11,1.11,0,0,1,.07.16V1184.47Z" transform="translate(-298.27 -286.46)"/><path class="cls-4" d="M811.61,1246.2v103.46a1.11,1.11,0,0,0-.07-.16c-.47-1.13-.95-2.26-1.42-3.42s-1-2.39-1.5-3.6c-2.55-6.27-5.16-12.93-7.76-20-.06-.18-.13-.37-.2-.55h0q-2.55-6.88-5.07-14.22c-.93-2.69-1.84-5.41-2.75-8.18-.05-.17-.11-.34-.16-.52-.41-1.23-.8-2.46-1.2-3.7-.34-1-.67-2.1-1-3.15-.68-2.17-1.36-4.37-2-6.58-.86-2.85-1.72-5.74-2.56-8.66q-1.71-6-3.34-12.11c-.33-1.23-.66-2.47-1-3.71q-1.42-5.57-2.8-11.27c-.3-1.22-.59-2.44-.87-3.67Z" transform="translate(-298.27 -286.46)"/><path class="cls-3" d="M811.61,1225.53V1277H785.88q-1.71-6-3.34-12.11c-.33-1.23-.66-2.47-1-3.71q-1.42-5.57-2.8-11.27c-.3-1.22-.59-2.44-.87-3.67-.18-.76-.36-1.52-.53-2.28-1.37-6-2.68-12.15-3.89-18.39Z" transform="translate(-298.27 -286.46)"/><path class="cls-3" d="M795.59,1292.2v15.55c-.93-2.69-1.84-5.41-2.75-8.18-.05-.17-.11-.34-.16-.52-.41-1.23-.8-2.46-1.2-3.7-.34-1-.67-2.1-1-3.15Z" transform="translate(-298.27 -286.46)"/><rect class="cls-7" x="783.51" y="1239.98" width="10.15" height="17.57" transform="translate(1278.9 2211.06) rotate(180)"/><rect class="cls-4" x="1566.09" y="1246.2" width="235.28" height="158.23" transform="translate(3069.2 2364.17) rotate(180)"/><rect class="cls-3" x="1566.09" y="1225.53" width="235.28" height="51.43" transform="translate(3069.2 2216.02) rotate(180)"/><rect class="cls-3" x="1773.27" y="1292.2" width="12.08" height="17.03" transform="translate(3260.35 2314.96) rotate(180)"/><rect class="cls-3" x="1750.67" y="1292.2" width="12.08" height="17.03" transform="translate(3215.16 2314.96) rotate(180)"/><rect class="cls-3" x="1728.58" y="1292.2" width="12.08" height="17.03" transform="translate(3170.98 2314.96) rotate(180)"/><rect class="cls-3" x="1707.64" y="1292.2" width="12.08" height="17.03" transform="translate(3129.09 2314.96) rotate(180)"/><rect class="cls-3" x="1686.29" y="1292.2" width="12.08" height="17.03" transform="translate(3086.39 2314.96) rotate(180)"/><rect class="cls-3" x="1664.7" y="1292.2" width="12.08" height="17.03" transform="translate(3043.21 2314.96) rotate(180)"/><rect class="cls-3" x="1642.1" y="1292.2" width="12.08" height="17.03" transform="translate(2998.02 2314.96) rotate(180)"/><rect class="cls-3" x="1620.01" y="1292.2" width="12.08" height="17.03" transform="translate(2953.84 2314.96) rotate(180)"/><rect class="cls-3" x="1599.07" y="1292.2" width="12.08" height="17.03" transform="translate(2911.95 2314.96) rotate(180)"/><rect class="cls-3" x="1577.72" y="1292.2" width="12.08" height="17.03" transform="translate(2869.25 2314.96) rotate(180)"/><rect class="cls-3" x="1773.27" y="1322.25" width="12.08" height="17.03" transform="translate(3260.35 2375.07) rotate(180)"/><rect class="cls-3" x="1750.67" y="1322.25" width="12.08" height="17.03" transform="translate(3215.16 2375.07) rotate(180)"/><rect class="cls-3" x="1728.58" y="1322.25" width="12.08" height="17.03" transform="translate(3170.98 2375.07) rotate(180)"/><rect class="cls-3" x="1707.64" y="1322.25" width="12.08" height="17.03" transform="translate(3129.09 2375.07) rotate(180)"/><rect class="cls-3" x="1686.29" y="1322.25" width="12.08" height="17.03" transform="translate(3086.39 2375.07) rotate(180)"/><rect class="cls-3" x="1664.7" y="1322.25" width="12.08" height="17.03" transform="translate(3043.21 2375.07) rotate(180)"/><rect class="cls-3" x="1642.1" y="1322.25" width="12.08" height="17.03" transform="translate(2998.02 2375.07) rotate(180)"/><rect class="cls-3" x="1620.01" y="1322.25" width="12.08" height="17.03" transform="translate(2953.84 2375.07) rotate(180)"/><rect class="cls-3" x="1599.07" y="1322.25" width="12.08" height="17.03" transform="translate(2911.95 2375.07) rotate(180)"/><rect class="cls-3" x="1577.72" y="1322.25" width="12.08" height="17.03" transform="translate(2869.25 2375.07) rotate(180)"/><rect class="cls-3" x="1773.27" y="1351.85" width="12.08" height="17.03" transform="translate(3260.35 2434.26) rotate(180)"/><rect class="cls-3" x="1750.67" y="1351.85" width="12.08" height="17.03" transform="translate(3215.16 2434.26) rotate(180)"/><rect class="cls-3" x="1728.58" y="1351.85" width="12.08" height="17.03" transform="translate(3170.98 2434.26) rotate(180)"/><rect class="cls-3" x="1707.64" y="1351.85" width="12.08" height="17.03" transform="translate(3129.09 2434.26) rotate(180)"/><rect class="cls-3" x="1686.29" y="1351.85" width="12.08" height="17.03" transform="translate(3086.39 2434.26) rotate(180)"/><rect class="cls-3" x="1664.7" y="1351.85" width="12.08" height="17.03" transform="translate(3043.21 2434.26) rotate(180)"/><rect class="cls-3" x="1642.1" y="1351.85" width="12.08" height="17.03" transform="translate(2998.02 2434.26) rotate(180)"/><rect class="cls-3" x="1620.01" y="1351.85" width="12.08" height="17.03" transform="translate(2953.84 2434.26) rotate(180)"/><rect class="cls-3" x="1599.07" y="1351.85" width="12.08" height="17.03" transform="translate(2911.95 2434.26) rotate(180)"/><rect class="cls-3" x="1577.72" y="1351.85" width="12.08" height="17.03" transform="translate(2869.25 2434.26) rotate(180)"/><rect class="cls-7" x="1773.27" y="1239.98" width="10.15" height="17.57" transform="translate(3258.42 2211.06) rotate(180)"/><rect class="cls-7" x="1672.46" y="1239.98" width="10.15" height="17.57" transform="translate(3056.81 2211.06) rotate(180)"/><rect class="cls-7" x="1592.27" y="1239.98" width="10.15" height="17.57" transform="translate(2896.42 2211.06) rotate(180)"/><rect class="cls-4" x="1816.15" y="1246.2" width="235.28" height="158.23" transform="translate(3569.31 2364.17) rotate(180)"/><rect class="cls-3" x="1816.15" y="1225.53" width="235.28" height="51.43" transform="translate(3569.31 2216.02) rotate(180)"/><rect class="cls-3" x="2023.33" y="1292.2" width="12.08" height="17.03" transform="translate(3760.46 2314.96) rotate(180)"/><rect class="cls-3" x="2000.73" y="1292.2" width="12.08" height="17.03" transform="translate(3715.27 2314.96) rotate(180)"/><rect class="cls-3" x="1978.64" y="1292.2" width="12.08" height="17.03" transform="translate(3671.09 2314.96) rotate(180)"/><rect class="cls-3" x="1957.69" y="1292.2" width="12.08" height="17.03" transform="translate(3629.2 2314.96) rotate(180)"/><rect class="cls-3" x="1936.35" y="1292.2" width="12.08" height="17.03" transform="translate(3586.5 2314.96) rotate(180)"/><rect class="cls-3" x="1914.76" y="1292.2" width="12.08" height="17.03" transform="translate(3543.32 2314.96) rotate(180)"/><rect class="cls-3" x="1892.16" y="1292.2" width="12.08" height="17.03" transform="translate(3498.13 2314.96) rotate(180)"/><rect class="cls-3" x="1870.07" y="1292.2" width="12.08" height="17.03" transform="translate(3453.95 2314.96) rotate(180)"/><rect class="cls-3" x="1849.12" y="1292.2" width="12.08" height="17.03" transform="translate(3412.06 2314.96) rotate(180)"/><rect class="cls-3" x="1827.78" y="1292.2" width="12.08" height="17.03" transform="translate(3369.37 2314.96) rotate(180)"/><rect class="cls-3" x="2023.33" y="1322.25" width="12.08" height="17.03" transform="translate(3760.46 2375.07) rotate(180)"/><rect class="cls-3" x="2000.73" y="1322.25" width="12.08" height="17.03" transform="translate(3715.27 2375.07) rotate(180)"/><rect class="cls-3" x="1978.64" y="1322.25" width="12.08" height="17.03" transform="translate(3671.09 2375.07) rotate(180)"/><rect class="cls-3" x="1957.69" y="1322.25" width="12.08" height="17.03" transform="translate(3629.2 2375.07) rotate(180)"/><rect class="cls-3" x="1936.35" y="1322.25" width="12.08" height="17.03" transform="translate(3586.5 2375.07) rotate(180)"/><rect class="cls-3" x="1914.76" y="1322.25" width="12.08" height="17.03" transform="translate(3543.32 2375.07) rotate(180)"/><rect class="cls-3" x="1892.16" y="1322.25" width="12.08" height="17.03" transform="translate(3498.13 2375.07) rotate(180)"/><rect class="cls-3" x="1870.07" y="1322.25" width="12.08" height="17.03" transform="translate(3453.95 2375.07) rotate(180)"/><rect class="cls-3" x="1849.12" y="1322.25" width="12.08" height="17.03" transform="translate(3412.06 2375.07) rotate(180)"/><rect class="cls-3" x="1827.78" y="1322.25" width="12.08" height="17.03" transform="translate(3369.37 2375.07) rotate(180)"/><rect class="cls-3" x="2023.33" y="1351.85" width="12.08" height="17.03" transform="translate(3760.46 2434.26) rotate(180)"/><rect class="cls-3" x="2000.73" y="1351.85" width="12.08" height="17.03" transform="translate(3715.27 2434.26) rotate(180)"/><rect class="cls-3" x="1978.64" y="1351.85" width="12.08" height="17.03" transform="translate(3671.09 2434.26) rotate(180)"/><rect class="cls-3" x="1957.69" y="1351.85" width="12.08" height="17.03" transform="translate(3629.2 2434.26) rotate(180)"/><rect class="cls-3" x="1936.35" y="1351.85" width="12.08" height="17.03" transform="translate(3586.5 2434.26) rotate(180)"/><rect class="cls-3" x="1914.76" y="1351.85" width="12.08" height="17.03" transform="translate(3543.32 2434.26) rotate(180)"/><rect class="cls-3" x="1892.16" y="1351.85" width="12.08" height="17.03" transform="translate(3498.13 2434.26) rotate(180)"/><rect class="cls-3" x="1870.07" y="1351.85" width="12.08" height="17.03" transform="translate(3453.95 2434.26) rotate(180)"/><rect class="cls-3" x="1849.12" y="1351.85" width="12.08" height="17.03" transform="translate(3412.06 2434.26) rotate(180)"/><rect class="cls-3" x="1827.78" y="1351.85" width="12.08" height="17.03" transform="translate(3369.37 2434.26) rotate(180)"/><rect class="cls-7" x="2023.33" y="1239.98" width="10.15" height="17.57" transform="translate(3758.53 2211.06) rotate(180)"/><rect class="cls-7" x="1922.52" y="1239.98" width="10.15" height="17.57" transform="translate(3556.92 2211.06) rotate(180)"/><rect class="cls-7" x="1842.33" y="1239.98" width="10.15" height="17.57" transform="translate(3396.54 2211.06) rotate(180)"/><rect class="cls-4" x="2308.61" y="1246.2" width="235.28" height="158.23" transform="translate(4554.23 2364.17) rotate(180)"/><rect class="cls-3" x="2308.61" y="1225.53" width="235.28" height="51.43" transform="translate(4554.23 2216.02) rotate(180)"/><rect class="cls-3" x="2515.79" y="1292.2" width="12.08" height="17.03" transform="translate(4745.38 2314.96) rotate(180)"/><rect class="cls-3" x="2493.19" y="1292.2" width="12.08" height="17.03" transform="translate(4700.19 2314.96) rotate(180)"/><rect class="cls-3" x="2471.1" y="1292.2" width="12.08" height="17.03" transform="translate(4656.01 2314.96) rotate(180)"/><rect class="cls-3" x="2450.15" y="1292.2" width="12.08" height="17.03" transform="translate(4614.12 2314.96) rotate(180)"/><rect class="cls-3" x="2428.81" y="1292.2" width="12.08" height="17.03" transform="translate(4571.43 2314.96) rotate(180)"/><rect class="cls-3" x="2407.21" y="1292.2" width="12.08" height="17.03" transform="translate(4528.24 2314.96) rotate(180)"/><rect class="cls-3" x="2384.62" y="1292.2" width="12.08" height="17.03" transform="translate(4483.05 2314.96) rotate(180)"/><rect class="cls-3" x="2362.53" y="1292.2" width="12.08" height="17.03" transform="translate(4438.87 2314.96) rotate(180)"/><rect class="cls-3" x="2341.58" y="1292.2" width="12.08" height="17.03" transform="translate(4396.98 2314.96) rotate(180)"/><rect class="cls-3" x="2320.24" y="1292.2" width="12.08" height="17.03" transform="translate(4354.29 2314.96) rotate(180)"/><rect class="cls-3" x="2515.79" y="1322.25" width="12.08" height="17.03" transform="translate(4745.38 2375.07) rotate(180)"/><rect class="cls-3" x="2493.19" y="1322.25" width="12.08" height="17.03" transform="translate(4700.19 2375.07) rotate(180)"/><rect class="cls-3" x="2471.1" y="1322.25" width="12.08" height="17.03" transform="translate(4656.01 2375.07) rotate(180)"/><rect class="cls-3" x="2450.15" y="1322.25" width="12.08" height="17.03" transform="translate(4614.12 2375.07) rotate(180)"/><rect class="cls-3" x="2428.81" y="1322.25" width="12.08" height="17.03" transform="translate(4571.43 2375.07) rotate(180)"/><rect class="cls-3" x="2407.21" y="1322.25" width="12.08" height="17.03" transform="translate(4528.24 2375.07) rotate(180)"/><rect class="cls-3" x="2384.62" y="1322.25" width="12.08" height="17.03" transform="translate(4483.05 2375.07) rotate(180)"/><rect class="cls-3" x="2362.53" y="1322.25" width="12.08" height="17.03" transform="translate(4438.87 2375.07) rotate(180)"/><rect class="cls-3" x="2341.58" y="1322.25" width="12.08" height="17.03" transform="translate(4396.98 2375.07) rotate(180)"/><rect class="cls-3" x="2320.24" y="1322.25" width="12.08" height="17.03" transform="translate(4354.29 2375.07) rotate(180)"/><rect class="cls-3" x="2515.79" y="1351.85" width="12.08" height="17.03" transform="translate(4745.38 2434.26) rotate(180)"/><rect class="cls-3" x="2493.19" y="1351.85" width="12.08" height="17.03" transform="translate(4700.19 2434.26) rotate(180)"/><rect class="cls-3" x="2471.1" y="1351.85" width="12.08" height="17.03" transform="translate(4656.01 2434.26) rotate(180)"/><rect class="cls-3" x="2450.15" y="1351.85" width="12.08" height="17.03" transform="translate(4614.12 2434.26) rotate(180)"/><rect class="cls-3" x="2428.81" y="1351.85" width="12.08" height="17.03" transform="translate(4571.43 2434.26) rotate(180)"/><rect class="cls-3" x="2407.21" y="1351.85" width="12.08" height="17.03" transform="translate(4528.24 2434.26) rotate(180)"/><rect class="cls-3" x="2384.62" y="1351.85" width="12.08" height="17.03" transform="translate(4483.05 2434.26) rotate(180)"/><rect class="cls-3" x="2362.53" y="1351.85" width="12.08" height="17.03" transform="translate(4438.87 2434.26) rotate(180)"/><rect class="cls-3" x="2341.58" y="1351.85" width="12.08" height="17.03" transform="translate(4396.98 2434.26) rotate(180)"/><rect class="cls-3" x="2320.24" y="1351.85" width="12.08" height="17.03" transform="translate(4354.29 2434.26) rotate(180)"/><rect class="cls-7" x="2515.79" y="1239.98" width="10.15" height="17.57" transform="translate(4743.45 2211.06) rotate(180)"/><rect class="cls-7" x="2414.98" y="1239.98" width="10.15" height="17.57" transform="translate(4541.84 2211.06) rotate(180)"/><rect class="cls-7" x="2334.79" y="1239.98" width="10.15" height="17.57" transform="translate(4381.46 2211.06) rotate(180)"/><path class="cls-8" d="M2283.57,1370c0-.94,0-1.88,0-2.82,0-5.75,0-11.6-.05-16.47-.06-7.81-2.74-15-5.75-20.52a58.34,58.34,0,0,0-8.36-11.71l-9.21-7.44-30.94-24.89-.18-.39a9.72,9.72,0,0,0,1.81-2.46,10.05,10.05,0,0,0,1-4.46V1261a10,10,0,0,0-10-10h-3.19a9.82,9.82,0,0,0-5.09,1.43l-21.24-45.88a113.37,113.37,0,0,0-4.9-16.67c-5.8-15.29-22.25-25.7-40.94-25.7h-160v.27H1775.69v227.08h26.23c2.32,11.74,9.42,20.35,17.93,20.35h11.82c8.5,0,15.61-8.61,17.92-20.35h54.71c2.32,11.74,9.42,20.35,17.93,20.35H1934c8.51,0,15.61-8.61,17.93-20.35h122.84a41.82,41.82,0,0,1-.59-7.25c0-.18.05-.34.05-.52l.54,7.77h5.63c2.32,11.74,9.42,20.35,17.93,20.35h11.81c8.51,0,15.61-8.61,17.93-20.35h88.2c2.32,11.74,9.42,20.35,17.93,20.35h11.81c8.56,0,15.7-8.7,18-20.55A21.42,21.42,0,0,0,2283.57,1370Z" transform="translate(-298.27 -286.46)"/><path class="cls-9" d="M1969.52,1009.73v47a26.31,26.31,0,0,1-26.34,26.34h-8.43a26.42,26.42,0,0,1-26.33-26.34v-47a25.93,25.93,0,0,1,3.82-13.53v-.07a26.42,26.42,0,0,1,22.51-12.74h8.43A26.43,26.43,0,0,1,1969.52,1009.73Z" transform="translate(-298.27 -286.46)"/><path class="cls-10" d="M1966.76,1068.49a26.41,26.41,0,0,1-23.58,14.58h-8.43a26.42,26.42,0,0,1-26.33-26.34v-47a25.93,25.93,0,0,1,3.82-13.53C1912.74,999.11,1923.92,1063.6,1966.76,1068.49Z" transform="translate(-298.27 -286.46)"/><polygon class="cls-11" points="1253.71 1067.34 1383.9 1067.34 1383.9 935.94 1248.08 935.94 1253.71 1067.34"/><path class="cls-12" d="M1962.49,1076.06l-639.6,15.77V754.55h420a106.7,106.7,0,0,1,95,58l27.49,53.65Z" transform="translate(-298.27 -286.46)"/><path class="cls-13" d="M1599.14,1332.43c0,35.67,18.4,75,18.4,75h31.15c27.36,0,49.54-33.58,49.54-75s-53.33-75-80.69-75S1599.14,1291,1599.14,1332.43Z" transform="translate(-298.27 -286.46)"/><ellipse class="cls-14" cx="1319.27" cy="1045.96" rx="49.55" ry="75.01"/><ellipse class="cls-11" cx="1319.89" cy="1045.96" rx="37.32" ry="56.5"/><path class="cls-13" d="M1957.26,1332.43c0,35.67,18.4,75,18.4,75h31.15c27.36,0,49.54-33.58,49.54-75s-53.32-75-80.69-75S1957.26,1291,1957.26,1332.43Z" transform="translate(-298.27 -286.46)"/><path class="cls-14" d="M1926.12,1332.43c0,41.42,22.18,75,49.54,75s49.55-33.58,49.55-75-22.18-75-49.55-75S1926.12,1291,1926.12,1332.43Z" transform="translate(-298.27 -286.46)"/><path class="cls-11" d="M1939,1332.43c0,31.2,16.71,56.5,37.32,56.5s37.32-25.3,37.32-56.5-16.71-56.5-37.32-56.5S1939,1301.22,1939,1332.43Z" transform="translate(-298.27 -286.46)"/><path class="cls-13" d="M1134.87,1332.43c0,35.67,18.4,75,18.4,75h31.14c27.37,0,49.55-33.58,49.55-75s-53.33-75-80.69-75S1134.87,1291,1134.87,1332.43Z" transform="translate(-298.27 -286.46)"/><path class="cls-14" d="M1103.72,1332.43c0,41.42,22.18,75,49.55,75s49.54-33.58,49.54-75-22.18-75-49.54-75S1103.72,1291,1103.72,1332.43Z" transform="translate(-298.27 -286.46)"/><path class="cls-11" d="M1116.57,1332.43c0,31.2,16.71,56.5,37.32,56.5s37.32-25.3,37.32-56.5-16.71-56.5-37.32-56.5S1116.57,1301.22,1116.57,1332.43Z" transform="translate(-298.27 -286.46)"/><path class="cls-12" d="M2105.69,1297a56.65,56.65,0,0,1-56.64,56.78H1682.17a112.4,112.4,0,0,0,1.63-19.11c0-48.5-29.1-87.86-64.92-87.86s-65,39.36-65,87.86a112.46,112.46,0,0,0,1.56,19.11H1341.06s-8.63-95.71-7.57-143.72c.85-41.77.85-123.61-1.63-143.57,0-3,206.73-3.33,258.91-3.54,7.08-.08,11.33-.08,11.75-.08l.71.5.78.57c9.63,6.72,63.57,44.53,97.06,66.69,29.53,19.47,247.44,27.4,332.9,29.81,21.24.56,34.33.77,34.33.77a154.07,154.07,0,0,1,22,30.87c7.93,14.66,15,33.49,15.15,54.09.07,12.82.14,28.25.14,43.4C2105.69,1292.07,2105.69,1294.55,2105.69,1297Z" transform="translate(-298.27 -286.46)"/><path class="cls-15" d="M1910.92,1062.89H1623.48A17,17,0,0,1,1608,1053l-71.15-158.3a7.85,7.85,0,0,1,7.15-11h303.23a16.89,16.89,0,0,1,15.44,10.13l51,116.46,12.74,29.1A16.87,16.87,0,0,1,1910.92,1062.89Z" transform="translate(-298.27 -286.46)"/><path class="cls-9" d="M1777,1289.59c-.07,5-.28,9.63-.57,13.81-2,27.54-29.73,50.4-29.73,50.4h-64.57a114.38,114.38,0,0,0-7.58-64.21c-11.39-25.63-32.07-42.76-55.71-42.76s-44.39,17.13-55.79,42.76a115.83,115.83,0,0,0-7.65,64.21H1322.87V754.57h186.69V873.51s56,131.54,81.21,189.46c6.23,14.44,10.62,24.28,11.75,26.4,5.6,10.69,135.72,76.54,157.24,95.93C1771.73,1196.07,1777.68,1252,1777,1289.59Z" transform="translate(-298.27 -286.46)"/><path class="cls-15" d="M1511.65,912.11l61.23,150.81H1467.82s-21.55-3.61-24.31-47.65c-3-47-3-128.16-3-128.16l46.12-.22C1504.25,889.54,1507,899.2,1511.65,912.11Z" transform="translate(-298.27 -286.46)"/><polygon class="cls-12" points="1770.03 874.77 1429.35 874.77 1304.96 776.92 1304.25 776.43 1647.9 776.43 1745.75 855.16 1770.03 874.77"/><path class="cls-3" d="M2090.32,1192.1c-2,3.26-4.53,5.38-7.29,5.88l-47.79,8.85c-4,.78-7.15-6.23-6.09-13.45l4.68-32.15.14-.77.92-6.59c.85-5.66,3.32-10,6.37-11.19l2.76-1.06,24.28,19.61A154.07,154.07,0,0,1,2090.32,1192.1Z" transform="translate(-298.27 -286.46)"/><path class="cls-9" d="M1771.73,1218.72l-30.8-3a24.13,24.13,0,0,1-21.38-19.76l-7.08-38.94a5.4,5.4,0,0,1-.14-1.83c22,12.6,40.42,23.85,47.43,30.15C1764.86,1189.91,1768.9,1202.65,1771.73,1218.72Z" transform="translate(-298.27 -286.46)"/><path class="cls-3" d="M1830.21,1224.53l-58.41-5.81h-.07l-30.8-3a24.13,24.13,0,0,1-21.38-19.76l-7.08-38.94a5.4,5.4,0,0,1-.14-1.83v-.08a13,13,0,0,1,15.57-13.16l91,18.47a15.7,15.7,0,0,1,12,11.19l10.69,39.51A10.66,10.66,0,0,1,1830.21,1224.53Z" transform="translate(-298.27 -286.46)"/><path class="cls-12" d="M1865.37,866.23H1510.46a205.72,205.72,0,0,0-10.28-48.64c-7.93-22.91-21.63-48.45-45.62-63h290c47.27,0,89.16,25.26,105.8,63a46.92,46.92,0,0,1,2.06,4.7A297,297,0,0,1,1865.37,866.23Z" transform="translate(-298.27 -286.46)"/><path class="cls-15" d="M1771.8,1218.72l-30.87-3a24.13,24.13,0,0,1-21.38-19.76l-7.08-38.94a5.86,5.86,0,0,1-.14-1.91c22,12.68,40.42,23.93,47.43,30.23C1764.86,1189.91,1768.9,1202.65,1771.8,1218.72Z" transform="translate(-298.27 -286.46)"/><path class="cls-16" d="M2105.69,1297c.07,31.37-26.55,56.78-59.4,56.78H1682.17a114.38,114.38,0,0,0-7.58-64.21h431C2105.69,1292.07,2105.69,1294.55,2105.69,1297Z" transform="translate(-298.27 -286.46)"/><path class="cls-16" d="M1553.88,1334.69a112.46,112.46,0,0,0,1.56,19.11H1322.87v-64.21h240.22A112.14,112.14,0,0,0,1553.88,1334.69Z" transform="translate(-298.27 -286.46)"/><path class="cls-16" d="M1865.82,1164h139.32c4.45,0,7.85,6,7.17,12.65l-4.94,48.42c-.73,7.12-4.78,12.38-9.54,12.38H1883.05c-7.36,0-13.85-7.28-16-17.94l-8.27-41.16C1857.36,1171.21,1860.89,1164,1865.82,1164Z" transform="translate(-298.27 -286.46)"/><path class="cls-3" d="M1913.68,1010.22c-164.32-8.43-275.48-96.36-309-126.59h242.63a16.89,16.89,0,0,1,15.44,10.13Z" transform="translate(-298.27 -286.46)"/><rect class="cls-17" x="468.78" y="468.08" width="621.54" height="599.3"/><path class="cls-13" d="M1541.72,985.48s5.31,61-24.78,77.65h56.22Z" transform="translate(-298.27 -286.46)"/><path class="cls-13" d="M1550,1026.27s-12.7-9-13.79-16.52v42.63h16.61Z" transform="translate(-298.27 -286.46)"/><path class="cls-12" d="M1536.18,1009.73v47a26.31,26.31,0,0,1-26.33,26.34h-8.43a26.43,26.43,0,0,1-26.34-26.34v-47a25.94,25.94,0,0,1,3.83-13.53v-.07a26.4,26.4,0,0,1,22.51-12.74h8.43A26.42,26.42,0,0,1,1536.18,1009.73Z" transform="translate(-298.27 -286.46)"/><path class="cls-16" d="M1533.42,1068.49a26.41,26.41,0,0,1-23.57,14.58h-8.43a26.43,26.43,0,0,1-26.34-26.34v-47a25.94,25.94,0,0,1,3.83-13.53C1479.4,999.11,1490.59,1063.6,1533.42,1068.49Z" transform="translate(-298.27 -286.46)"/><path class="cls-11" d="M970.06,1353.85H817.17c-3.23-13.8-13-112.07,72.72-112.08C967.76,1241.77,973.48,1331.43,970.06,1353.85Z" transform="translate(-298.27 -286.46)"/><path class="cls-13" d="M865,1332.43c0,35.67,18.39,75,18.39,75h31.15c27.36,0,49.55-33.58,49.55-75s-53.33-75-80.7-75S865,1291,865,1332.43Z" transform="translate(-298.27 -286.46)"/><path class="cls-14" d="M833.88,1332.43c0,41.42,22.18,75,49.54,75s49.55-33.58,49.55-75-22.18-75-49.55-75S833.88,1291,833.88,1332.43Z" transform="translate(-298.27 -286.46)"/><path class="cls-11" d="M846.73,1332.43c0,31.2,16.71,56.5,37.32,56.5s37.32-25.3,37.32-56.5-16.71-56.5-37.32-56.5S846.73,1301.22,846.73,1332.43Z" transform="translate(-298.27 -286.46)"/><path class="cls-16" d="M1865.37,866.23H1510.46a205.72,205.72,0,0,0-10.28-48.64h350.21a46.92,46.92,0,0,1,2.06,4.7A297,297,0,0,1,1865.37,866.23Z" transform="translate(-298.27 -286.46)"/><path class="cls-18" d="M1563.09,383.86A116.1,116.1,0,0,0,1447,500c0,64.12,116.1,206.67,116.1,206.67S1679.18,564.08,1679.18,500A116.09,116.09,0,0,0,1563.09,383.86Zm0,169.18a54.27,54.27,0,1,1,54.26-54.26A54.26,54.26,0,0,1,1563.09,553Z" transform="translate(-298.27 -286.46)"/><path class="cls-19" d="M1331.86,1119.29a2.21,2.21,0,0,1-1.72-.81l-2.78-3.36a2.23,2.23,0,0,1,3.44-2.84l2.78,3.36a2.23,2.23,0,0,1-.3,3.14A2.19,2.19,0,0,1,1331.86,1119.29Zm-6.56-8a2.22,2.22,0,0,1-1.72-.82c-1.25-1.51-2.5-3-3.78-4.61a2.23,2.23,0,0,1,3.46-2.81l3.76,4.59a2.24,2.24,0,0,1-1.72,3.65Zm-7.52-9.22a2.2,2.2,0,0,1-1.73-.83l-3.74-4.64a2.23,2.23,0,0,1,3.48-2.79c1.25,1.56,2.49,3.11,3.73,4.63a2.23,2.23,0,0,1-.34,3.13A2.17,2.17,0,0,1,1317.78,1102.12Zm-7.43-9.28a2.22,2.22,0,0,1-1.75-.85q-1.85-2.31-3.69-4.68a2.23,2.23,0,0,1,3.51-2.75l3.67,4.66a2.23,2.23,0,0,1-.36,3.13A2.2,2.2,0,0,1,1310.35,1092.84Zm-7.34-9.37a2.21,2.21,0,0,1-1.76-.87l-3.64-4.72a2.23,2.23,0,0,1,3.55-2.71c1.21,1.59,2.41,3.15,3.61,4.71a2.21,2.21,0,0,1-.4,3.12A2.16,2.16,0,0,1,1303,1083.47Zm-7.21-9.46a2.22,2.22,0,0,1-1.79-.89q-1.77-2.37-3.56-4.78a2.23,2.23,0,0,1,3.58-2.65c1.18,1.6,2.37,3.18,3.55,4.76a2.22,2.22,0,0,1-1.78,3.56Zm-7.08-9.56a2.2,2.2,0,0,1-1.8-.91c-1.17-1.6-2.33-3.22-3.49-4.84a2.23,2.23,0,1,1,3.62-2.59l3.47,4.8a2.23,2.23,0,0,1-.49,3.12A2.18,2.18,0,0,1,1288.72,1064.45Zm-6.92-9.67a2.21,2.21,0,0,1-1.82-1c-1.14-1.62-2.28-3.26-3.41-4.9a2.23,2.23,0,0,1,3.68-2.53q1.68,2.46,3.38,4.87a2.23,2.23,0,0,1-.55,3.1A2.17,2.17,0,0,1,1281.8,1054.78Zm-6.74-9.8a2.23,2.23,0,0,1-1.85-1c-1.11-1.65-2.21-3.3-3.31-5a2.23,2.23,0,1,1,3.72-2.45q1.64,2.48,3.29,4.93a2.22,2.22,0,0,1-1.85,3.47Zm-6.54-9.93a2.23,2.23,0,0,1-1.88-1c-1.08-1.67-2.14-3.35-3.21-5a2.23,2.23,0,0,1,3.78-2.37c1,1.68,2.11,3.34,3.18,5a2.23,2.23,0,0,1-.67,3.08A2.2,2.2,0,0,1,1268.52,1035.05Zm-6.34-10.07a2.21,2.21,0,0,1-1.9-1.06c-1-1.69-2.07-3.4-3.09-5.11a2.23,2.23,0,1,1,3.83-2.28q1.51,2.54,3.06,5.06a2.23,2.23,0,0,1-.73,3.07A2.27,2.27,0,0,1,1262.18,1025Zm-6.09-10.21a2.21,2.21,0,0,1-1.93-1.11c-1-1.72-2-3.44-3-5.18a2.23,2.23,0,1,1,3.88-2.19q1.46,2.58,2.94,5.14a2.22,2.22,0,0,1-.81,3A2.13,2.13,0,0,1,1256.09,1014.77Zm-5.84-10.36a2.21,2.21,0,0,1-2-1.16c-1-1.75-1.9-3.51-2.84-5.28a2.23,2.23,0,0,1,3.94-2.08q1.39,2.63,2.81,5.23a2.22,2.22,0,0,1-.89,3A2.14,2.14,0,0,1,1250.25,1004.41Zm-5.57-10.54a2.23,2.23,0,0,1-2-1.21q-1.37-2.67-2.68-5.36a2.23,2.23,0,1,1,4-2c.87,1.78,1.76,3.54,2.65,5.3a2.23,2.23,0,0,1-1,3A2.27,2.27,0,0,1,1244.68,993.87Zm-5.26-10.69a2.22,2.22,0,0,1-2-1.28c-.85-1.8-1.69-3.62-2.52-5.43a2.23,2.23,0,1,1,4.07-1.84q1.21,2.68,2.48,5.37a2.24,2.24,0,0,1-1.06,3A2.34,2.34,0,0,1,1239.42,983.18Zm-4.9-10.85a2.22,2.22,0,0,1-2-1.34q-1.18-2.75-2.33-5.52a2.23,2.23,0,1,1,4.12-1.7q1.13,2.73,2.3,5.45a2.23,2.23,0,0,1-1.16,2.93A2.31,2.31,0,0,1,1234.52,972.33Zm-4.54-11a2.24,2.24,0,0,1-2.08-1.42c-.72-1.85-1.43-3.72-2.13-5.59a2.25,2.25,0,0,1,1.32-2.87,2.22,2.22,0,0,1,2.86,1.32q1,2.78,2.11,5.52a2.24,2.24,0,0,1-1.27,2.89A2.28,2.28,0,0,1,1230,961.33Zm-4.13-11.15a2.23,2.23,0,0,1-2.1-1.5c-.66-1.88-1.3-3.78-1.92-5.67a2.23,2.23,0,0,1,4.24-1.39c.61,1.88,1.24,3.74,1.89,5.6a2.22,2.22,0,0,1-1.37,2.83A2.14,2.14,0,0,1,1225.85,950.18Zm-3.68-11.3a2.24,2.24,0,0,1-2.14-1.59c-.57-1.9-1.14-3.84-1.67-5.75a2.23,2.23,0,1,1,4.29-1.2c.53,1.88,1.08,3.78,1.65,5.66a2.23,2.23,0,0,1-1.48,2.78A2.5,2.5,0,0,1,1222.17,938.88ZM1219,927.43a2.24,2.24,0,0,1-2.16-1.68c-.49-1.94-1-3.9-1.42-5.82a2.23,2.23,0,1,1,4.34-1c.44,1.89.91,3.82,1.4,5.73a2.22,2.22,0,0,1-2.16,2.78Zm-2.69-11.58a2.24,2.24,0,0,1-2.18-1.78c-.41-2-.79-3.94-1.15-5.89a2.23,2.23,0,0,1,4.39-.8c.35,1.91.73,3.86,1.13,5.79a2.23,2.23,0,0,1-1.73,2.63A2.49,2.49,0,0,1,1216.27,915.85Zm-2.13-11.7a2.22,2.22,0,0,1-2.2-1.88c-.31-2-.6-4-.86-5.95a2.23,2.23,0,0,1,4.42-.58c.26,1.94.54,3.9.84,5.84a2.22,2.22,0,0,1-1.85,2.54Zm-1.54-11.8a2.23,2.23,0,0,1-2.22-2c-.2-2-.38-4-.54-6a2.23,2.23,0,1,1,4.45-.34c.15,1.93.33,3.91.53,5.86a2.23,2.23,0,0,1-2,2.45Zm-.91-11.87a2.21,2.21,0,0,1-2.22-2.12c-.1-2-.17-4-.21-6a2.23,2.23,0,0,1,2.18-2.28,2.2,2.2,0,0,1,2.27,2.18c0,2,.11,3.93.21,5.9a2.23,2.23,0,0,1-2.12,2.33Zm-.24-11.91h0a2.22,2.22,0,0,1-2.21-2.24c0-2,.06-4,.14-6a2.23,2.23,0,1,1,4.45.16c-.07,1.94-.12,3.92-.13,5.88A2.23,2.23,0,0,1,1211.45,868.57Zm.44-11.89h-.15a2.24,2.24,0,0,1-2.07-2.38c.13-2,.3-4,.49-6a2.23,2.23,0,0,1,4.44.43c-.19,1.94-.35,3.91-.48,5.87A2.23,2.23,0,0,1,1211.89,856.68Zm1.15-11.84-.28,0a2.22,2.22,0,0,1-1.93-2.49c.25-2,.53-4,.85-6a2.23,2.23,0,1,1,4.4.69c-.3,1.93-.58,3.88-.83,5.82A2.22,2.22,0,0,1,1213,844.84Zm1.86-11.74a2,2,0,0,1-.42,0,2.23,2.23,0,0,1-1.78-2.6c.38-2,.78-3.94,1.21-5.89a2.23,2.23,0,1,1,4.35,1c-.42,1.9-.81,3.84-1.18,5.76A2.21,2.21,0,0,1,1214.9,833.1Zm2.56-11.6a2.59,2.59,0,0,1-.55-.07,2.23,2.23,0,0,1-1.61-2.71c.48-1.93,1-3.88,1.56-5.8a2.23,2.23,0,1,1,4.28,1.22c-.53,1.88-1.05,3.79-1.52,5.67A2.24,2.24,0,0,1,1217.46,821.5Zm3.25-11.43a2.25,2.25,0,0,1-2.12-2.91c.6-1.89,1.24-3.8,1.9-5.7a2.23,2.23,0,0,1,4.21,1.48c-.65,1.85-1.28,3.72-1.86,5.57A2.24,2.24,0,0,1,1220.71,810.07Zm3.93-11.22a2.23,2.23,0,0,1-2.08-3c.71-1.85,1.46-3.72,2.23-5.57a2.23,2.23,0,0,1,4.11,1.71c-.75,1.81-1.48,3.65-2.18,5.46A2.22,2.22,0,0,1,1224.64,798.85Zm4.57-11a2.15,2.15,0,0,1-.92-.2,2.23,2.23,0,0,1-1.12-2.94c.82-1.81,1.67-3.64,2.54-5.44a2.23,2.23,0,1,1,4,1.94c-.86,1.76-1.69,3.55-2.49,5.33A2.23,2.23,0,0,1,1229.21,787.88Zm5.17-10.7a2.22,2.22,0,0,1-2-3.25c.91-1.76,1.86-3.54,2.82-5.3a2.23,2.23,0,0,1,3.91,2.16c-1,1.72-1.88,3.46-2.77,5.19A2.24,2.24,0,0,1,1234.38,777.18Zm5.73-10.41a2.33,2.33,0,0,1-1.13-.3,2.22,2.22,0,0,1-.79-3.05c1-1.71,2-3.43,3.09-5.14a2.23,2.23,0,0,1,3.79,2.34c-1,1.68-2.06,3.38-3,5A2.21,2.21,0,0,1,1240.11,766.77Zm6.25-10.1a2.15,2.15,0,0,1-1.21-.37,2.21,2.21,0,0,1-.65-3.08c1.08-1.66,2.2-3.33,3.34-5a2.23,2.23,0,1,1,3.67,2.52c-1.11,1.62-2.22,3.27-3.28,4.9A2.24,2.24,0,0,1,1246.36,756.67Zm6.73-9.8a2.26,2.26,0,0,1-1.3-.42,2.22,2.22,0,0,1-.5-3.11c1.16-1.61,2.36-3.23,3.56-4.82a2.23,2.23,0,1,1,3.55,2.69c-1.18,1.56-2.36,3.16-3.5,4.74A2.21,2.21,0,0,1,1253.09,746.87Zm7.17-9.48a2.23,2.23,0,0,1-1.75-3.61c1.22-1.54,2.49-3.11,3.76-4.66a2.23,2.23,0,0,1,3.44,2.84c-1.25,1.52-2.5,3.06-3.7,4.58A2.22,2.22,0,0,1,1260.26,737.39Zm7.56-9.17a2.23,2.23,0,0,1-1.69-3.68q1.93-2.25,3.95-4.5a2.23,2.23,0,1,1,3.32,3q-2,2.21-3.89,4.43A2.2,2.2,0,0,1,1267.82,728.22Zm7.92-8.86a2.24,2.24,0,0,1-1.64-3.75q2-2.18,4.11-4.35a2.23,2.23,0,0,1,3.22,3.09q-2.07,2.14-4.06,4.29A2.19,2.19,0,0,1,1275.74,719.36Zm8.24-8.57a2.26,2.26,0,0,1-1.58-.65,2.23,2.23,0,0,1,0-3.15q2.1-2.1,4.26-4.2a2.23,2.23,0,0,1,3.1,3.2q-2.13,2.07-4.2,4.15A2.26,2.26,0,0,1,1284,710.79Zm8.53-8.28a2.23,2.23,0,0,1-1.53-3.85c1.44-1.35,2.91-2.71,4.39-4.06a2.23,2.23,0,1,1,3,3.3c-1.46,1.34-2.91,2.67-4.34,4A2.22,2.22,0,0,1,1292.51,702.51Zm8.79-8a2.23,2.23,0,0,1-1.47-3.9q2.22-2,4.51-3.92a2.23,2.23,0,1,1,2.9,3.38c-1.51,1.29-3,2.59-4.46,3.88A2.26,2.26,0,0,1,1301.3,694.52Zm9-7.73a2.23,2.23,0,0,1-1.42-3.95q2.27-1.89,4.61-3.79a2.23,2.23,0,0,1,2.81,3.47q-2.32,1.88-4.57,3.75A2.23,2.23,0,0,1,1310.33,686.79Zm9.2-7.53a2.23,2.23,0,0,1-1.43-3.94c1.5-1.26,3-2.55,4.44-3.84a2.23,2.23,0,1,1,3,3.32c-1.48,1.33-3,2.65-4.54,3.94A2.24,2.24,0,0,1,1319.53,679.26Zm8.86-7.92a2.23,2.23,0,0,1-1.54-3.84c1.41-1.35,2.82-2.74,4.17-4.13a2.23,2.23,0,0,1,3.19,3.12c-1.39,1.42-2.83,2.85-4.28,4.23A2.24,2.24,0,0,1,1328.39,671.34Zm8.31-8.5a2.19,2.19,0,0,1-1.5-.58,2.23,2.23,0,0,1-.14-3.15c1.31-1.44,2.62-2.92,3.88-4.4a2.23,2.23,0,1,1,3.39,2.9c-1.29,1.51-2.63,3-4,4.51A2.24,2.24,0,0,1,1336.7,662.84Zm7.71-9a2.22,2.22,0,0,1-1.75-3.61c1.21-1.53,2.41-3.1,3.56-4.66a2.23,2.23,0,1,1,3.59,2.64c-1.18,1.61-2.41,3.22-3.65,4.79A2.25,2.25,0,0,1,1344.41,653.8Zm7-9.57a2.24,2.24,0,0,1-1.84-3.49c1.1-1.6,2.18-3.25,3.21-4.9a2.23,2.23,0,1,1,3.78,2.38c-1.07,1.69-2.18,3.38-3.31,5A2.23,2.23,0,0,1,1351.45,644.23Zm6.33-10.06a2.13,2.13,0,0,1-1.11-.3,2.21,2.21,0,0,1-.81-3c1-1.68,1.93-3.41,2.84-5.13a2.23,2.23,0,0,1,3.94,2.1c-.94,1.76-1.93,3.54-2.93,5.26A2.21,2.21,0,0,1,1357.78,634.17Zm5.58-10.48a2.29,2.29,0,0,1-1-.22,2.24,2.24,0,0,1-1-3c.85-1.76,1.68-3.54,2.46-5.31a2.23,2.23,0,1,1,4.08,1.8c-.8,1.82-1.65,3.65-2.53,5.45A2.21,2.21,0,0,1,1363.36,623.69Zm4.79-10.86a2.17,2.17,0,0,1-.82-.16,2.22,2.22,0,0,1-1.25-2.89c.72-1.81,1.42-3.65,2.07-5.48a2.23,2.23,0,0,1,4.2,1.5c-.67,1.88-1.39,3.78-2.13,5.63A2.23,2.23,0,0,1,1368.15,612.83Zm4-11.18a2.22,2.22,0,0,1-2.12-2.9c.59-1.86,1.16-3.75,1.68-5.62a2.23,2.23,0,0,1,4.29,1.2c-.54,1.93-1.12,3.87-1.72,5.77A2.23,2.23,0,0,1,1372.15,601.65Zm3.22-11.44a2.33,2.33,0,0,1-.53-.06,2.23,2.23,0,0,1-1.64-2.69c.46-1.89.89-3.82,1.29-5.73a2.23,2.23,0,1,1,4.36.91c-.4,2-.85,3.94-1.32,5.87A2.23,2.23,0,0,1,1375.37,590.21Zm2.42-11.63a1.58,1.58,0,0,1-.38,0,2.23,2.23,0,0,1-1.82-2.58c.33-1.91.64-3.86.91-5.8a2.23,2.23,0,0,1,4.42.62c-.28,2-.6,4-.94,6A2.23,2.23,0,0,1,1377.79,578.58Zm1.66-11.78h-.25a2.23,2.23,0,0,1-2-2.46c.21-1.92.39-3.89.54-5.85a2.23,2.23,0,0,1,4.45.34c-.16,2-.35,4-.56,6A2.23,2.23,0,0,1,1379.45,566.8Zm.91-11.86h-.1a2.24,2.24,0,0,1-2.13-2.33c.09-1.94.16-3.92.19-5.88a2.23,2.23,0,1,1,4.46.08c0,2-.1,4-.19,6A2.24,2.24,0,0,1,1380.36,554.94Zm.2-11.89a2.22,2.22,0,0,1-2.22-2.2c0-2-.08-3.93-.16-5.89a2.23,2.23,0,0,1,4.46-.18c.08,2,.13,4,.15,6a2.23,2.23,0,0,1-2.2,2.26Zm-.47-11.9a2.21,2.21,0,0,1-2.22-2.07c-.13-1.94-.29-3.91-.48-5.87a2.23,2.23,0,0,1,4.44-.42c.19,2,.35,4,.48,6a2.22,2.22,0,0,1-2.07,2.37ZM1379,519.32a2.23,2.23,0,0,1-2.21-2c-.23-1.94-.5-3.9-.78-5.84a2.23,2.23,0,1,1,4.41-.64c.29,2,.56,4,.8,5.94a2.22,2.22,0,0,1-2,2.48A1.23,1.23,0,0,1,1379,519.32Zm-1.72-11.76a2.24,2.24,0,0,1-2.2-1.85c-.33-1.91-.69-3.86-1.07-5.79a2.23,2.23,0,0,1,4.37-.87c.39,2,.76,4,1.1,5.9a2.25,2.25,0,0,1-1.82,2.58Zm-2.31-11.66a2.23,2.23,0,0,1-2.17-1.75c-.42-1.91-.88-3.84-1.35-5.74a2.23,2.23,0,0,1,4.33-1.07c.48,1.94.94,3.9,1.37,5.84a2.22,2.22,0,0,1-1.69,2.66A2.05,2.05,0,0,1,1374.94,495.9Zm-2.85-11.55a2.23,2.23,0,0,1-2.15-1.64c-.51-1.88-1-3.79-1.6-5.67a2.23,2.23,0,1,1,4.27-1.27c.57,1.92,1.12,3.86,1.64,5.77a2.24,2.24,0,0,1-1.57,2.74A2.38,2.38,0,0,1,1372.09,484.35Zm-3.37-11.42a2.24,2.24,0,0,1-2.13-1.55c-.59-1.86-1.22-3.75-1.86-5.61a2.23,2.23,0,1,1,4.22-1.46c.65,1.9,1.29,3.82,1.89,5.71a2.23,2.23,0,0,1-1.44,2.81A2.33,2.33,0,0,1,1368.72,472.93Zm-3.88-11.28a2.23,2.23,0,0,1-2.09-1.46c-.68-1.84-1.39-3.7-2.1-5.53a2.23,2.23,0,0,1,4.15-1.63c.72,1.86,1.44,3.75,2.13,5.62a2.22,2.22,0,0,1-1.32,2.86A2.09,2.09,0,0,1,1364.84,461.65Zm-4.35-11.1a2.21,2.21,0,0,1-2.06-1.37c-.75-1.81-1.54-3.64-2.33-5.44a2.23,2.23,0,1,1,4.08-1.79c.8,1.82,1.6,3.68,2.36,5.51a2.22,2.22,0,0,1-1.2,2.92A2.15,2.15,0,0,1,1360.49,450.55Zm-4.81-10.9a2.23,2.23,0,0,1-2-1.29c-.83-1.78-1.68-3.57-2.54-5.33a2.23,2.23,0,1,1,4-2c.87,1.79,1.75,3.61,2.58,5.42a2.23,2.23,0,0,1-2,3.17ZM839,430.53a2.11,2.11,0,0,1-1.13-.32,2.22,2.22,0,0,1-.78-3c0-.08,1.14-1.91,3.36-5.14a2.23,2.23,0,1,1,3.67,2.53c-2.13,3.09-3.19,4.87-3.2,4.89A2.24,2.24,0,0,1,839,430.53ZM1350.45,429a2.25,2.25,0,0,1-2-1.2q-1.35-2.64-2.75-5.23a2.23,2.23,0,0,1,3.92-2.12q1.42,2.64,2.8,5.3a2.24,2.24,0,0,1-1,3A2.34,2.34,0,0,1,1350.45,429Zm-504.72-8.29a2.18,2.18,0,0,1-1.32-.44,2.22,2.22,0,0,1-.47-3.11c1.16-1.58,2.38-3.19,3.63-4.8a2.23,2.23,0,0,1,3.52,2.74c-1.23,1.58-2.43,3.16-3.57,4.7A2.22,2.22,0,0,1,845.73,420.66Zm499.06-2.17a2.23,2.23,0,0,1-1.94-1.14c-1-1.71-1.95-3.41-3-5.1a2.23,2.23,0,0,1,3.84-2.28q1.53,2.58,3,5.19a2.23,2.23,0,0,1-.84,3A2.32,2.32,0,0,1,1344.79,418.49Zm-491.74-7.23a2.24,2.24,0,0,1-1.73-3.64c1.25-1.52,2.54-3.07,3.86-4.61a2.23,2.23,0,0,1,3.38,2.9c-1.29,1.51-2.56,3-3.79,4.53A2.22,2.22,0,0,1,853.05,411.26Zm485.69-3a2.22,2.22,0,0,1-1.9-1.05c-1-1.67-2.09-3.34-3.16-5a2.23,2.23,0,0,1,3.75-2.42q1.62,2.52,3.2,5.06a2.23,2.23,0,0,1-.72,3.07A2.19,2.19,0,0,1,1338.74,408.25Zm-477.95-6a2.22,2.22,0,0,1-1.66-3.71c1.32-1.48,2.68-3,4-4.43a2.23,2.23,0,0,1,3.26,3c-1.34,1.43-2.67,2.9-4,4.36A2.23,2.23,0,0,1,860.79,402.21Zm471.5-3.93a2.24,2.24,0,0,1-1.85-1q-1.65-2.44-3.35-4.86a2.23,2.23,0,0,1,3.65-2.56q1.73,2.44,3.39,4.92a2.23,2.23,0,0,1-.6,3.1A2.28,2.28,0,0,1,1332.29,398.28ZM868.9,393.51a2.23,2.23,0,0,1-1.6-3.78c1.36-1.4,2.76-2.82,4.22-4.26a2.22,2.22,0,1,1,3.13,3.16q-2.14,2.13-4.15,4.2A2.24,2.24,0,0,1,868.9,393.51Zm456.56-4.94a2.2,2.2,0,0,1-1.8-.91c-1.17-1.58-2.34-3.16-3.53-4.71a2.23,2.23,0,1,1,3.54-2.71q1.82,2.37,3.58,4.78a2.23,2.23,0,0,1-1.79,3.55Zm-448.11-3.44a2.2,2.2,0,0,1-1.61-.69,2.23,2.23,0,0,1,.07-3.15c1.42-1.35,2.87-2.72,4.37-4.1a2.23,2.23,0,0,1,3,3.29c-1.48,1.35-2.92,2.7-4.31,4A2.2,2.2,0,0,1,877.35,385.13Zm440.9-6a2.23,2.23,0,0,1-1.74-.84c-1.22-1.53-2.47-3.06-3.71-4.56a2.23,2.23,0,1,1,3.43-2.85c1.26,1.52,2.53,3.08,3.76,4.63a2.23,2.23,0,0,1-1.74,3.62Zm-432.14-2.07a2.21,2.21,0,0,1-1.67-.75,2.23,2.23,0,0,1,.19-3.15q2.21-1.95,4.52-3.92a2.23,2.23,0,1,1,2.89,3.39c-1.52,1.3-3,2.59-4.46,3.87A2.18,2.18,0,0,1,886.11,377.08ZM1310.68,370a2.23,2.23,0,0,1-1.69-.77c-1.27-1.48-2.59-3-3.9-4.42a2.23,2.23,0,0,1,3.31-3c1.33,1.48,2.67,3,4,4.49a2.23,2.23,0,0,1-1.69,3.69Zm-415.52-.66a2.23,2.23,0,0,1-1.41-3.95c1.52-1.25,3.07-2.51,4.66-3.76a2.23,2.23,0,0,1,2.76,3.5c-1.56,1.24-3.1,2.47-4.6,3.7A2.2,2.2,0,0,1,895.16,369.37Zm9.33-7.38a2.23,2.23,0,0,1-1.35-4c1.57-1.19,3.16-2.39,4.79-3.58a2.23,2.23,0,1,1,2.64,3.59c-1.61,1.18-3.18,2.36-4.73,3.54A2.19,2.19,0,0,1,904.49,362Zm398.22-.79a2.21,2.21,0,0,1-1.62-.7c-1.34-1.43-2.72-2.86-4.09-4.25a2.23,2.23,0,0,1,3.18-3.12c1.39,1.41,2.79,2.87,4.16,4.32a2.22,2.22,0,0,1-1.63,3.75ZM914.08,355a2.23,2.23,0,0,1-1.29-4q2.43-1.71,4.92-3.4a2.23,2.23,0,1,1,2.51,3.68q-2.47,1.68-4.86,3.36A2.19,2.19,0,0,1,914.08,355Zm380.3-2.24a2.25,2.25,0,0,1-1.56-.63c-1.4-1.37-2.83-2.74-4.26-4.07a2.23,2.23,0,1,1,3-3.26c1.45,1.36,2.91,2.75,4.34,4.14a2.23,2.23,0,0,1-1.56,3.82Zm-370.46-4.44a2.23,2.23,0,0,1-1.23-4.09q2.49-1.62,5-3.23a2.23,2.23,0,1,1,2.38,3.77c-1.69,1.06-3.34,2.12-5,3.19A2.16,2.16,0,0,1,923.92,348.28Zm361.76-3.67a2.23,2.23,0,0,1-1.48-.56c-1.47-1.32-3-2.62-4.44-3.87a2.23,2.23,0,1,1,2.88-3.4c1.51,1.28,3,2.6,4.53,3.94a2.23,2.23,0,0,1-1.49,3.89ZM934,342a2.23,2.23,0,0,1-1.15-4.14q2.53-1.53,5.15-3a2.23,2.23,0,1,1,2.24,3.85q-2.58,1.5-5.09,3A2.17,2.17,0,0,1,934,342Zm342.65-5a2.21,2.21,0,0,1-1.41-.5c-1.52-1.23-3.07-2.46-4.62-3.65a2.23,2.23,0,0,1,2.72-3.53c1.58,1.21,3.16,2.47,4.71,3.72a2.23,2.23,0,0,1-1.4,4ZM944.27,336a2.23,2.23,0,0,1-1.08-4.18c1.72-1,3.48-1.91,5.25-2.86a2.23,2.23,0,1,1,2.1,3.93q-2.62,1.41-5.19,2.83A2.2,2.2,0,0,1,944.27,336Zm10.49-5.59a2.23,2.23,0,0,1-1-4.22c1.77-.9,3.55-1.79,5.36-2.67a2.23,2.23,0,1,1,1.95,4q-2.67,1.31-5.28,2.64A2.16,2.16,0,0,1,954.76,330.41Zm312.45-.76a2.24,2.24,0,0,1-1.32-.43c-1.58-1.16-3.2-2.31-4.79-3.41a2.23,2.23,0,0,1,2.54-3.67c1.62,1.13,3.27,2.3,4.89,3.48a2.23,2.23,0,0,1-1.32,4Zm-301.77-4.46a2.23,2.23,0,0,1-1-4.25c1.8-.84,3.61-1.67,5.45-2.49a2.23,2.23,0,0,1,1.81,4.07q-2.71,1.22-5.37,2.46A2.22,2.22,0,0,1,965.44,325.19Zm292-2.31a2.25,2.25,0,0,1-1.22-.36c-1.65-1.08-3.32-2.14-5-3.16a2.23,2.23,0,1,1,2.34-3.8c1.69,1,3.39,2.13,5.07,3.23a2.23,2.23,0,0,1-1.22,4.09Zm-281.15-2.54a2.23,2.23,0,0,1-.87-4.28c1.82-.77,3.66-1.54,5.52-2.29a2.23,2.23,0,1,1,1.68,4.13c-1.84.74-3.66,1.5-5.45,2.26A2.27,2.27,0,0,1,976.29,320.34Zm271-3.7a2.27,2.27,0,0,1-1.12-.3c-1.69-1-3.42-1.94-5.13-2.87a2.23,2.23,0,1,1,2.12-3.92c1.75.94,3.51,1.93,5.25,2.93a2.23,2.23,0,0,1-1.12,4.16Zm-260-.77a2.23,2.23,0,0,1-.81-4.3q2.78-1.08,5.6-2.11a2.23,2.23,0,0,1,1.54,4.19c-1.86.68-3.71,1.37-5.53,2.07A2.06,2.06,0,0,1,987.31,315.87Zm11.16-4.08a2.23,2.23,0,0,1-.73-4.34q2.81-1,5.66-1.91a2.23,2.23,0,1,1,1.39,4.23q-2.82.93-5.59,1.89A2.08,2.08,0,0,1,998.47,311.79Zm238.39-.8a2.23,2.23,0,0,1-1-.24c-1.75-.88-3.53-1.74-5.29-2.55a2.23,2.23,0,0,1,1.88-4.05c1.79.84,3.62,1.72,5.41,2.62a2.23,2.23,0,0,1-1,4.22Zm-227.1-2.92a2.23,2.23,0,0,1-.66-4.36c1.89-.58,3.8-1.16,5.72-1.72a2.23,2.23,0,0,1,1.26,4.28c-1.91.56-3.79,1.12-5.66,1.7A2.16,2.16,0,0,1,1009.76,308.07ZM1226.08,306a2.22,2.22,0,0,1-.87-.18c-1.8-.77-3.63-1.51-5.44-2.21a2.23,2.23,0,0,1,1.61-4.16c1.85.72,3.73,1.48,5.57,2.27a2.23,2.23,0,0,1-.87,4.28Zm-204.91-1.25a2.23,2.23,0,0,1-.59-4.38c1.91-.52,3.83-1,5.78-1.54a2.23,2.23,0,0,1,1.11,4.32c-1.92.5-3.83,1-5.71,1.52A2.46,2.46,0,0,1,1021.17,304.74Zm11.51-3a2.23,2.23,0,0,1-.52-4.4c1.92-.46,3.87-.91,5.82-1.35a2.23,2.23,0,0,1,1,4.36q-2.9.64-5.75,1.33A2.37,2.37,0,0,1,1032.68,301.78ZM1215,301.7a2.39,2.39,0,0,1-.74-.12c-1.85-.65-3.72-1.26-5.57-1.83a2.23,2.23,0,0,1,1.32-4.26c1.89.58,3.82,1.21,5.72,1.88a2.23,2.23,0,0,1-.73,4.33Zm-170.72-2.51a2.23,2.23,0,0,1-.45-4.41q2.91-.6,5.86-1.17a2.23,2.23,0,1,1,.83,4.38c-1.94.37-3.87.76-5.79,1.15A2.38,2.38,0,0,1,1044.28,299.19Zm159.36-1a2.38,2.38,0,0,1-.58-.08c-1.89-.51-3.8-1-5.68-1.41a2.23,2.23,0,0,1,1-4.35c1.93.44,3.9.93,5.85,1.46a2.23,2.23,0,0,1-.58,4.38ZM1056,297a2.23,2.23,0,0,1-.38-4.43c2-.34,3.92-.67,5.89-1a2.23,2.23,0,1,1,.7,4.4c-2,.31-3.9.64-5.82,1A1.72,1.72,0,0,1,1056,297Zm136.11-1.42a2.83,2.83,0,0,1-.41,0c-1.93-.37-3.87-.69-5.77-1a2.23,2.23,0,1,1,.64-4.41c2,.29,4,.62,6,1a2.23,2.23,0,0,1-.41,4.42Zm-124.37-.45a2.23,2.23,0,0,1-.32-4.43c2-.29,3.94-.55,5.93-.81a2.23,2.23,0,1,1,.56,4.42c-2,.26-3.91.52-5.85.8Zm112.62-1.26-.25,0-5.88-.6a2.23,2.23,0,1,1,.43-4.44c2,.19,3.94.39,5.93.61a2.23,2.23,0,0,1-.23,4.45Zm-100.83-.25a2.23,2.23,0,0,1-.25-4.44q3-.34,5.94-.63a2.23,2.23,0,1,1,.44,4.43c-2,.2-3.93.41-5.88.63Zm89-.9h-.2c-2-.17-3.94-.32-5.89-.47a2.23,2.23,0,1,1,.32-4.44q3,.21,6,.47a2.23,2.23,0,0,1-.18,4.45Zm-77.18-.26a2.23,2.23,0,0,1-.18-4.45q3-.25,6-.46a2.22,2.22,0,0,1,2.38,2.07,2.25,2.25,0,0,1-2.07,2.38q-3,.19-5.9.45Zm65.32-.61h-.14l-5.9-.33a2.23,2.23,0,1,1,.22-4.45q3,.13,6,.33a2.23,2.23,0,0,1-.14,4.45Zm-53.46-.22a2.23,2.23,0,0,1-.12-4.46c2-.11,4-.2,6-.29a2.23,2.23,0,0,1,.18,4.46q-3,.12-5.9.29Zm41.59-.36h-.08q-3-.12-5.91-.18a2.23,2.23,0,0,1,.1-4.46l6,.18a2.23,2.23,0,0,1-.08,4.46ZM1115,291.1a2.23,2.23,0,0,1-.06-4.46c2-.05,4-.1,6-.12h0a2.23,2.23,0,0,1,0,4.46q-3,0-5.91.13Zm17.83-.15h0l-5.14,0h-.77a2.23,2.23,0,0,1,0-4.45h.78l5.19,0a2.23,2.23,0,0,1,0,4.46Z" transform="translate(-298.27 -286.46)"/><path class="cls-20" d="M2660.19,1408.79s-120.39.19-304,.58c-2.74-1.17-4.21-1.85-4.21-1.85s20.75-113.55,128.42-137.92,108.94-128.42,176.18-149.17c55.31-17,104.73,5.48,138.31-.29C2847.93,1288,2660.19,1408.79,2660.19,1408.79Z" transform="translate(-298.27 -286.46)"/><rect class="cls-21" x="98.81" y="1121.06" width="2440.3" height="9.44" rx="3.4"/><path class="cls-22" d="M1062.06,994.86l-3.91,4.21c-9.3,10.08-34.56,37.49-62.36,69-6.55,7.44-13.31,15.18-20.06,22.91-10.08,11.65-20,23.29-29.17,34.55l-.1.1c-2.84,3.32-5.48,6.56-8.12,9.78-5.48,6.76-10.57,13.22-15.27,19.29-14.09,18.4-24,33.28-25.84,40.81-11.26,47.09,10.67,179.62,16.35,212H606c9.3-67.34,22.22-162.48,23.89-177,2.54-22.81-77-120.69-78.4-192.14S597.42,916,604.86,845.69c3.62-33.09-.49-76.15-5.78-112.86-2.74-19.48-6-36.9-8.51-50.11a18.36,18.36,0,0,1,4.89-16.54,16,16,0,0,1,3.53-2.84A18,18,0,0,1,616.31,662c17.62,7.54,37.2,27.5,42.29,77.32,0,0,14.78,9.3,38.66,24.47,9.69,6.07,20.85,13.12,33.18,21,9.5,6,19.68,12.43,30.34,19.18.69.4,1.38.89,2.06,1.28,4.31,2.74,8.52,5.48,13,8.32h.1c1.56,1,3.13,2,4.79,3q4.26,2.79,8.81,5.58a12.56,12.56,0,0,0,1.86,1.08c19.38,12.33,39.64,25.25,60.1,38.27h.1c3.33,1.95,6.65,4.11,10,6.26,2.55,1.67,5.19,3.23,7.83,4.9,3.23,2.15,6.56,4.2,9.89,6.26h.1c23.19,14.68,45.9,29.17,67.14,42.58,3.33,2.15,6.66,4.21,9.89,6.26,2.64,1.67,5.18,3.33,7.73,4.9,3.43,2.15,6.56,4.2,9.79,6.36h.1c40.52,25.55,71.84,45.51,83.29,52.85C1060.4,993.78,1062.06,994.76,1062.06,994.86Z" transform="translate(-298.27 -286.46)"/><path class="cls-23" d="M614.75,715.63a16,16,0,0,1-13.51,16.84l-2.13.32c-2.79-19.39-6-36.87-8.52-50.09-1.26-6.47-3.19-12.67-2.64-19.29,13.38-6.55,18.53,9.28,20.18,15.7C610.88,689.55,614,703.6,614.75,715.63Z" transform="translate(-298.27 -286.46)"/><path class="cls-24" d="M975.73,1091c-10.08,11.65-20,23.29-29.17,34.55l-.1.1c-2.84,3.32-5.48,6.56-8.12,9.78-5.48,6.76-10.57,13.22-15.27,19.29-14.09,18.4-24,33.28-25.84,40.81-11.26,47.09,10.67,179.62,16.35,212H713.51c37.1-55.3,41.89-152.69,42.18-197.42.1-11.26,3.72-24.77,9.6-39.06,11.16-27.6,30.34-58.53,48-84.08,16.25-23.68,31.22-42.67,37.29-50.21v-.1c2-2.25,2.94-3.52,2.94-3.52l110.6-4.7h.1l1.47,7.83,1.17,6.66,5.09,27.6Z" transform="translate(-298.27 -286.46)"/><path class="cls-25" d="M1053.77,1141.19l-331,34.21a19,19,0,0,1-20.82-16.92l-68.41-662a19,19,0,0,1,16.92-20.82l331-34.21a19,19,0,0,1,20.82,16.92l68.41,662A19,19,0,0,1,1053.77,1141.19Z" transform="translate(-298.27 -286.46)"/><path class="cls-18" d="M1089.52,1137.5l-331,34.21a19,19,0,0,1-20.82-16.92l-68.42-662A19,19,0,0,1,686.18,472l331-34.22A19,19,0,0,1,1038,454.7l68.41,662A19,19,0,0,1,1089.52,1137.5Z" transform="translate(-298.27 -286.46)"/><path class="cls-26" d="M912.59,479.13a3.76,3.76,0,0,0-4.12-3.34l-95.86,9.91a3.75,3.75,0,0,0,.77,7.46l95.87-9.91A3.76,3.76,0,0,0,912.59,479.13Z" transform="translate(-298.27 -286.46)"/><path class="cls-26" d="M795.59,487.46a3.75,3.75,0,1,0,4.11,3.34A3.76,3.76,0,0,0,795.59,487.46Z" transform="translate(-298.27 -286.46)"/><path class="cls-27" d="M948.63,1113a24.18,24.18,0,1,0-21.57,26.54A24.17,24.17,0,0,0,948.63,1113Z" transform="translate(-298.27 -286.46)"/><rect class="cls-28" x="732.17" y="508.91" width="308.23" height="568.97" transform="translate(-375.14 -191.15) rotate(-5.9)"/><rect class="cls-29" x="758.02" y="1010.54" width="308.23" height="66.05" transform="translate(-400.72 -187.17) rotate(-5.9)"/><path class="cls-30" d="M854.17,1039.77l158.23-16.35a3.34,3.34,0,1,0-.68-6.65l-158.24,16.35a3.35,3.35,0,0,0-3,3.67h0A3.35,3.35,0,0,0,854.17,1039.77Z" transform="translate(-298.27 -286.46)"/><path class="cls-30" d="M1016.89,1034.32a3.35,3.35,0,0,0-3.67-3L855,1047.69a3.34,3.34,0,1,0,.69,6.65L1013.91,1038A3.35,3.35,0,0,0,1016.89,1034.32Z" transform="translate(-298.27 -286.46)"/><path class="cls-25" d="M829.3,1025.4a19.24,19.24,0,0,0-1.66-6.27,22.28,22.28,0,0,0-23.1-13.89,22.56,22.56,0,0,0-19.87,18.3,24.72,24.72,0,0,0-.3,6.56c1.28,12.33,26.63,37.58,26.63,37.58S830.57,1037.83,829.3,1025.4ZM807.86,1038a10.53,10.53,0,0,1-11.54-9.39,11.06,11.06,0,0,1,1.36-6.46,10.68,10.68,0,0,1,8-5.19,10.27,10.27,0,0,1,8.91,3.42,10.51,10.51,0,0,1-6.76,17.62Z" transform="translate(-298.27 -286.46)"/><rect class="cls-25" x="754.15" y="596.82" width="177.72" height="146.54" transform="matrix(-0.99, 0.1, -0.1, -0.99, 1452.17, 963.5)"/><rect class="cls-30" x="842.61" y="589.13" width="149.6" height="146.54" transform="translate(-361.5 -188.65) rotate(-5.9)"/><polygon class="cls-27" points="697.26 404.16 701.08 441.13 552.27 456.51 537.21 310.74 697.26 404.16"/><polygon class="cls-30" points="460.17 428.67 488.18 425.77 484.89 418.14 486.78 412.26 458.77 415.15 460.17 428.67"/><polygon class="cls-30" points="454.1 369.96 482.11 367.06 478.83 359.43 480.71 353.55 452.7 356.44 454.1 369.96"/><polygon class="cls-27" points="691.19 345.45 663.18 348.35 664.83 340.21 661.78 334.83 689.79 331.94 691.19 345.45"/><path class="cls-31" d="M788.78,793.62a20.32,20.32,0,0,0-2.94-1.57,20,20,0,0,0-9.1-1.27,18.8,18.8,0,0,0-16,13.11,17.7,17.7,0,0,0-.78,7.54,18.86,18.86,0,0,0,20.65,16.74,17.3,17.3,0,0,0,10.77-5,18.21,18.21,0,0,0,6-15.67A18.6,18.6,0,0,0,788.78,793.62Zm.78,28.48a16.59,16.59,0,0,1-27.31-10.86,15.9,15.9,0,0,1,.59-6.07A16.31,16.31,0,0,1,777,792.93a14.67,14.67,0,0,1,7.73,1.18,12.18,12.18,0,0,1,3.23,1.66,16.57,16.57,0,0,1,1.57,26.33Z" transform="translate(-298.27 -286.46)"/><polygon class="cls-25" points="469.57 514.48 481.48 533 497.43 487.15 480.09 519.52 469.57 514.48"/><path class="cls-31" d="M804.54,876.52a18.83,18.83,0,0,0-8.62-14A29.07,29.07,0,0,0,793,861a20.11,20.11,0,0,0-9.11-1.27,18.8,18.8,0,1,0,20.66,16.83Zm-17,18.4a16.57,16.57,0,1,1-3.33-33,15.6,15.6,0,0,1,7.73,1.07,12.52,12.52,0,0,1,3.23,1.67,16.44,16.44,0,0,1,7.24,12A16.72,16.72,0,0,1,787.51,894.92Z" transform="translate(-298.27 -286.46)"/><polygon class="cls-25" points="476.7 583.4 488.6 601.93 504.56 556.08 487.21 588.44 476.7 583.4"/><path class="cls-31" d="M811.68,945.43a18.79,18.79,0,1,0-16.74,20.65A18.86,18.86,0,0,0,811.68,945.43Zm-17,18.4a16.58,16.58,0,1,1,14.78-18.2A16.58,16.58,0,0,1,794.65,963.83Z" transform="translate(-298.27 -286.46)"/><path class="cls-31" d="M1001.83,783.46l-177,18.29a3.28,3.28,0,0,1-3.59-2.92l-.08-.72a3.29,3.29,0,0,1,2.92-3.6l177-18.29a3.29,3.29,0,0,1,3.6,2.92l.07.72A3.29,3.29,0,0,1,1001.83,783.46Z" transform="translate(-298.27 -286.46)"/><path class="cls-31" d="M1003.16,796.35l-177,18.29a3.28,3.28,0,0,1-3.59-2.92l-.08-.72a3.3,3.3,0,0,1,2.92-3.6l177-18.29A3.29,3.29,0,0,1,1006,792l.07.72A3.29,3.29,0,0,1,1003.16,796.35Z" transform="translate(-298.27 -286.46)"/><path class="cls-31" d="M1009,852.5,832,870.79a3.29,3.29,0,0,1-3.6-2.92l-.07-.72a3.28,3.28,0,0,1,2.92-3.6l177-18.29a3.28,3.28,0,0,1,3.6,2.92l.08.72A3.31,3.31,0,0,1,1009,852.5Z" transform="translate(-298.27 -286.46)"/><path class="cls-31" d="M1010.29,865.39l-177,18.29a3.3,3.3,0,0,1-3.6-2.92l-.07-.72a3.28,3.28,0,0,1,2.92-3.6l177-18.29a3.28,3.28,0,0,1,3.59,2.92l.08.72A3.3,3.3,0,0,1,1010.29,865.39Z" transform="translate(-298.27 -286.46)"/><path class="cls-31" d="M1016.1,921.53l-177,18.3a3.28,3.28,0,0,1-3.59-2.92l-.08-.73a3.28,3.28,0,0,1,2.92-3.59l177-18.3a3.3,3.3,0,0,1,3.6,2.93l.07.72A3.28,3.28,0,0,1,1016.1,921.53Z" transform="translate(-298.27 -286.46)"/><path class="cls-31" d="M1017.43,934.42l-177,18.3a3.28,3.28,0,0,1-3.59-2.93l-.08-.72a3.28,3.28,0,0,1,2.92-3.59l177-18.3a3.3,3.3,0,0,1,3.6,2.93l.07.72A3.28,3.28,0,0,1,1017.43,934.42Z" transform="translate(-298.27 -286.46)"/><path class="cls-22" d="M1047.48,546.76s48-42.69,79.56-18.46-70.9,102.27-70.9,102.27Z" transform="translate(-298.27 -286.46)"/><path class="cls-22" d="M1103.07,722l-55.84,30.88a33.71,33.71,0,0,1-45.7-13.15l-9.12-16.48a33.72,33.72,0,0,1,13.15-45.71l55.83-30.89a33.74,33.74,0,0,1,45.71,13.15l9.12,16.49A33.74,33.74,0,0,1,1103.07,722Z" transform="translate(-298.27 -286.46)"/><path class="cls-22" d="M1112.73,815.52l-55.83,30.89a33.74,33.74,0,0,1-45.71-13.15l-9.12-16.49a33.73,33.73,0,0,1,13.15-45.7l55.84-30.89a33.72,33.72,0,0,1,45.7,13.15l9.12,16.49A33.71,33.71,0,0,1,1112.73,815.52Z" transform="translate(-298.27 -286.46)"/><path class="cls-22" d="M1122.14,906.54l-55.83,30.89a33.74,33.74,0,0,1-45.71-13.15l-9.12-16.49a33.74,33.74,0,0,1,13.15-45.71l55.83-30.88a33.73,33.73,0,0,1,45.71,13.15l9.12,16.48A33.73,33.73,0,0,1,1122.14,906.54Z" transform="translate(-298.27 -286.46)"/><path class="cls-23" d="M995,701.16c8.67-6.52,20.49-14.71,31.31-19.88a16,16,0,0,1,20.71,6.11l12.24,20.45a15.12,15.12,0,0,1-5,20.65,268.86,268.86,0,0,1-33.25,17.67,18.63,18.63,0,0,1-23.56-8L990.08,725A18.44,18.44,0,0,1,995,701.16Z" transform="translate(-298.27 -286.46)"/><path class="cls-23" d="M1005,797.29c8.66-6.52,20.48-14.72,31.31-19.89a16,16,0,0,1,20.7,6.11L1069.23,804a15.12,15.12,0,0,1-5,20.65A271.39,271.39,0,0,1,1031,842.29a18.62,18.62,0,0,1-23.56-8L1000,821.11A18.43,18.43,0,0,1,1005,797.29Z" transform="translate(-298.27 -286.46)"/><path class="cls-23" d="M1016.06,887.38c8.66-6.52,20.48-14.72,31.31-19.89a16,16,0,0,1,20.7,6.11l12.24,20.46a15.12,15.12,0,0,1-5,20.65,270.65,270.65,0,0,1-33.24,17.67,18.63,18.63,0,0,1-23.56-8l-7.43-13.18A18.43,18.43,0,0,1,1016.06,887.38Z" transform="translate(-298.27 -286.46)"/><polygon class="cls-32" points="1019.75 899.38 1148.82 919.7 1063.84 859.96 1059.2 878.65 1027.67 883.89 1019.75 899.38"/><polygon class="cls-30" points="1148.82 919.7 1041.99 862.65 936.58 855.83 1148.82 919.7"/><polygon class="cls-30" points="1063.84 859.96 1148.82 919.7 1083.69 827.31 1063.84 859.96"/><polygon class="cls-32" points="874.61 116.56 774.37 64.91 864 66.64 857.7 82.02 876.99 101.74 874.61 116.56"/><polygon class="cls-30" points="774.37 64.91 877.84 79.65 954.73 128.63 774.37 64.91"/><polygon class="cls-30" points="864 66.64 774.37 64.91 866.81 33.78 864 66.64"/></svg>