<?xml version="1.0" encoding="UTF-8"?>
<!DOCTYPE svg PUBLIC "-//W3C//DTD SVG 1.1//EN" "http://www.w3.org/Graphics/SVG/1.1/DTD/svg11.dtd">
<!-- Creator: CorelDRAW X7 -->
<svg xmlns="http://www.w3.org/2000/svg" xml:space="preserve" width="0.433071in" height="0.433071in" version="1.1" style="shape-rendering:geometricPrecision; text-rendering:geometricPrecision; image-rendering:optimizeQuality; fill-rule:evenodd; clip-rule:evenodd"
viewBox="0 0 433 433"
 xmlns:xlink="http://www.w3.org/1999/xlink">
 <defs>
  <style type="text/css">
   <![CDATA[
    .fil0 {fill:#FEFEFE;fill-rule:nonzero}
   ]]>
  </style>
 </defs>
 <g id="Layer_x0020_1">
  <metadata id="CorelCorpID_0Corel-Layer"/>
  <g id="_888054496">
   <path class="fil0" d="M279 96c-1,-1 -3,-2 -4,-2 -2,0 -4,1 -5,2l-10 10c-2,2 -2,7 0,9 2,2 5,3 8,1l0 24c0,3 3,6 7,6 3,0 6,-3 6,-6l0 -24c3,1 6,1 8,-1 3,-2 3,-7 0,-9l-10 -10z"/>
   <path class="fil0" d="M327 96c-3,-3 -7,-3 -9,0l-10 10c-3,2 -3,7 0,9 2,2 5,2 8,1l0 24c0,3 3,6 6,6 4,0 7,-3 7,-6l0 -24c3,2 6,1 8,-1 2,-2 2,-7 0,-9l-10 -10z"/>
   <path class="fil0" d="M94 25c13,0 25,10 27,22l-55 0c3,-12 14,-22 28,-22zm0 57c-14,0 -25,-9 -28,-22l55 0c-2,13 -14,22 -27,22zm0 13c20,0 37,-15 41,-35l28 0c3,0 6,-3 6,-6 0,-4 -3,-7 -6,-7l-28 0c-4,-20 -21,-35 -41,-35 -23,0 -42,19 -42,42 0,23 19,41 42,41z"/>
   <path class="fil0" d="M379 183l-94 0c-3,-9 -11,-15 -21,-15l-47 0 0 -141 1 -1 43 0 0 37c0,3 1,5 3,6 3,1 5,1 7,-1l12 -9 11 9c3,2 6,2 9,0l11 -9 11 9c2,2 5,2 7,1 3,-1 4,-3 4,-6l0 -37 43 0 1 1 0 114 -14 0c-4,0 -7,3 -7,6 0,4 3,7 7,7l14 0 0 27 -1 2zm-115 17l-91 0 -28 -24c-2,-1 -5,-2 -7,0 -2,1 -4,3 -4,5l0 82c0,2 1,4 3,5l66 56 0 82c0,5 -5,10 -10,10 -5,0 -10,-5 -10,-10l0 -70c0,-2 0,-4 -2,-6l-83 -58c-2,-1 -4,-1 -7,0 -2,0 -3,2 -3,5l-16 120c0,4 -4,8 -9,8 -6,0 -11,-5 -10,-11l14 -123 0 -1 0 -110c0,-18 12,-33 29,-35 11,-2 22,2 30,11l0 0 53 43c1,1 2,2 4,2 30,0 51,0 81,0 5,0 10,4 10,9 0,5 -5,10 -10,10zm59 -174l0 23 -5 -4c-2,-2 -6,-2 -8,0l-12 10 -11 -10c-1,-1 -3,-1 -4,-1 -2,0 -3,0 -4,1l-5 4 0 -23 49 0zm56 -13c-89,0 -69,0 -161,0 -8,0 -14,7 -14,14l0 141 -19 0 -50 -41c-10,-12 -25,-18 -41,-15 -23,3 -40,23 -40,48l0 110 -14 123c-1,13 9,25 23,25 11,0 21,-8 22,-20l14 -109 72 50 0 67c0,13 9,23 22,23 12,0 23,-10 23,-23l0 -85c0,-2 -1,-4 -3,-5l-66 -56 0 -65 20 16c1,1 2,2 4,2l93 0c11,0 20,-8 22,-17l93 0c8,0 14,-7 14,-15l0 -154c0,-7 -6,-14 -14,-14z"/>
  </g>
 </g>
</svg>
