<?xml version="1.0" encoding="UTF-8"?>
<!DOCTYPE svg PUBLIC "-//W3C//DTD SVG 1.1//EN" "http://www.w3.org/Graphics/SVG/1.1/DTD/svg11.dtd">
<!-- Creator: CorelDRAW X7 -->
<svg xmlns="http://www.w3.org/2000/svg" xml:space="preserve" width="0.433071in" height="0.433071in" version="1.1" style="shape-rendering:geometricPrecision; text-rendering:geometricPrecision; image-rendering:optimizeQuality; fill-rule:evenodd; clip-rule:evenodd"
viewBox="0 0 433 433"
 xmlns:xlink="http://www.w3.org/1999/xlink">
 <defs>
  <style type="text/css">
   <![CDATA[
    .fil0 {fill:#FEFEFE;fill-rule:nonzero}
   ]]>
  </style>
 </defs>
 <g id="Layer_x0020_1">
  <metadata id="CorelCorpID_0Corel-Layer"/>
  <path class="fil0" d="M95 21l38 0 -36 55 -65 0 63 -55zm306 55l-64 0 -37 -55 38 0 63 55zm-14 302l0 -255 25 -25 0 305 -25 -25zm-332 9l296 0 27 0 25 25 -373 0 25 -25zm-34 -289l25 25 0 255 -25 25 0 -305zm357 16l-323 0 -25 -25 373 0 -25 25zm-4 228l-273 -215 273 0 0 215zm-315 -184l273 216 -273 0 0 -216zm295 216l-295 -232 0 -15 21 0 294 232 0 15 -20 0zm-70 -353l37 55 -60 0 -12 -55 35 0zm-49 0l12 55 -61 0 12 -55 37 0zm-50 0l-12 55 -61 0 36 -55 37 0zm238 57l-78 -68c-2,-1 -3,-2 -5,-2l-247 0c-2,0 -4,1 -5,2l-78 68c-1,1 -2,3 -2,5l0 335c0,4 3,7 7,7l403 0c4,0 7,-3 7,-7l0 -335c0,-2 -1,-4 -2,-5z"/>
 </g>
</svg>
