<?xml version="1.0" encoding="UTF-8"?>
<!DOCTYPE svg PUBLIC "-//W3C//DTD SVG 1.1//EN" "http://www.w3.org/Graphics/SVG/1.1/DTD/svg11.dtd">
<!-- Creator: CorelDRAW X7 -->
<svg xmlns="http://www.w3.org/2000/svg" xml:space="preserve" width="0.433071in" height="0.433071in" version="1.1" style="shape-rendering:geometricPrecision; text-rendering:geometricPrecision; image-rendering:optimizeQuality; fill-rule:evenodd; clip-rule:evenodd"
viewBox="0 0 433 433"
 xmlns:xlink="http://www.w3.org/1999/xlink">
 <defs>
  <style type="text/css">
   <![CDATA[
    .fil0 {fill:#FEFEFE;fill-rule:nonzero}
   ]]>
  </style>
 </defs>
 <g id="Layer_x0020_1">
  <metadata id="CorelCorpID_0Corel-Layer"/>
  <g id="_852900400">
   <path class="fil0" d="M40 368c-11,0 -19,-9 -19,-20 0,-10 8,-19 19,-19 10,0 19,9 19,19 0,11 -9,20 -19,20zm121 -26l-90 0c-2,-13 -12,-23 -25,-25l0 -212c0,-11 -8,-20 -19,-20l-8 0c-4,0 -7,3 -7,7 0,4 3,6 7,6l8 0c3,0 6,3 6,7l0 212c-14,3 -25,16 -25,31 0,18 14,33 32,33 15,0 28,-11 31,-26l90 0c4,0 7,-3 7,-7 0,-3 -3,-6 -7,-6z"/>
   <path class="fil0" d="M83 316l0 -128 42 0 0 40c0,2 1,4 3,5 2,2 4,2 6,0l17 -10 17 10c2,2 4,2 6,0 2,-1 4,-3 4,-5l0 -40 41 0 0 128 -136 0zm82 -128l0 28 -10 -7c-2,0 -3,-1 -4,-1 -1,0 -2,1 -3,1l-11 7 0 -28 28 0zm54 -13c-46,0 -85,0 -136,0 -7,0 -13,5 -13,13l0 128c0,7 6,13 13,13l136 0c7,0 13,-6 13,-13l0 -128c0,-8 -6,-13 -13,-13z"/>
   <path class="fil0" d="M42 342l-5 0c-3,0 -6,3 -6,6 0,4 3,7 6,7l5 0c4,0 7,-3 7,-7 0,-3 -3,-6 -7,-6z"/>
   <path class="fil0" d="M131 267l-25 0c-4,0 -7,2 -7,6 0,4 3,7 7,7l25 0c3,0 6,-3 6,-7 0,-4 -3,-6 -6,-6z"/>
   <path class="fil0" d="M131 292l-25 0c-4,0 -7,3 -7,7 0,3 3,6 7,6l25 0c3,0 6,-3 6,-6 0,-4 -3,-7 -6,-7z"/>
   <path class="fil0" d="M371 368l0 -29c0,-3 -3,-6 -6,-6l-41 0c-3,0 -6,3 -6,6l0 29 -54 0 0 -129 48 0 0 40c0,2 1,5 3,6 2,1 5,1 7,0l16 -11 17 11c2,1 5,1 6,0 2,-1 4,-4 4,-6l0 -40 47 0 0 129 -41 0zm-40 0l0 -22 27 0 0 22 -27 0zm21 -129l0 28 -10 -6c-1,-1 -3,-1 -4,-1 -1,0 -2,0 -3,1l-10 6 0 -28 27 0zm60 -13c-46,0 -102,0 -148,0 -7,0 -13,6 -13,13l0 129c0,7 6,13 13,13l148 0c8,0 13,-6 13,-13l0 -129c0,-7 -5,-13 -13,-13z"/>
   <path class="fil0" d="M358 297l-40 0c-4,0 -6,3 -6,6 0,4 2,7 6,7l40 0c4,0 7,-3 7,-7 0,-3 -3,-6 -7,-6z"/>
   <path class="fil0" d="M365 194l0 -28c0,-4 -3,-7 -7,-7l-40 0c-4,0 -6,3 -6,7l0 28 -48 0 0 -129 48 0 0 41c0,2 1,4 3,5 2,2 5,2 7,0l16 -10 17 10c2,2 5,2 6,0 2,-1 4,-3 4,-5l0 -41 47 0 0 129 -47 0zm-40 0l0 -22 27 0 0 22 -27 0zm27 -129l0 29 -10 -7c-1,0 -3,-1 -4,-1 -1,0 -2,1 -3,1l-10 7 0 -29 27 0zm60 -13c-46,0 -102,0 -148,0 -7,0 -13,6 -13,13l0 129c0,7 6,13 13,13 47,0 102,0 148,0 8,0 13,-6 13,-13l0 -129c0,-7 -5,-13 -13,-13z"/>
   <path class="fil0" d="M358 123l-40 0c-4,0 -6,3 -6,7 0,3 2,6 6,6l40 0c4,0 7,-3 7,-6 0,-4 -3,-7 -7,-7z"/>
  </g>
 </g>
</svg>
