<?xml version="1.0" encoding="UTF-8"?>
<!DOCTYPE svg PUBLIC "-//W3C//DTD SVG 1.1//EN" "http://www.w3.org/Graphics/SVG/1.1/DTD/svg11.dtd">
<!-- Creator: CorelDRAW X7 -->
<svg xmlns="http://www.w3.org/2000/svg" xml:space="preserve" width="0.19685in" height="0.19685in" version="1.1" style="shape-rendering:geometricPrecision; text-rendering:geometricPrecision; image-rendering:optimizeQuality; fill-rule:evenodd; clip-rule:evenodd"
viewBox="0 0 197 197"
 xmlns:xlink="http://www.w3.org/1999/xlink">
 <defs>
  <style type="text/css">
   <![CDATA[
    .fil0 {fill:#435365}
   ]]>
  </style>
 </defs>
 <g id="Layer_x0020_1">
  <metadata id="CorelCorpID_0Corel-Layer"/>
  <g id="_919875568">
   <path class="fil0" d="M100 161c-13,0 -26,-4 -36,-11l-25 8 8 -24c-8,-10 -12,-24 -12,-38 0,-2 0,-4 0,-6 3,-33 31,-58 65,-58 34,0 62,26 65,59 0,2 0,4 0,5 0,36 -29,65 -65,65zm77 -67c-1,-41 -35,-74 -77,-74 -42,0 -76,32 -77,73 -1,1 -1,2 -1,3 0,15 5,28 12,40l-14 41 42 -13c12,6 24,9 38,9 42,0 77,-34 77,-77l0 -2z"/>
   <path class="fil0" d="M135 112c-2,-1 -11,-6 -13,-6 -1,-1 -3,-1 -4,1 -1,2 -5,6 -6,7 -1,1 -2,1 -4,1 -2,-1 -8,-3 -15,-10 -6,-5 -10,-11 -11,-13 -1,-2 0,-3 1,-4l3 -3 1 -1 1 -2c0,-1 0,-2 -1,-3 0,-1 -4,-11 -5,-14 -2,-4 -3,-4 -5,-4 0,0 -2,0 -3,0 -2,0 -4,1 -5,3 -2,2 -7,6 -7,15 0,3 0,5 1,7 2,6 6,12 7,13 1,1 13,21 32,28 20,8 20,5 23,5 3,0 11,-5 13,-9 1,-4 1,-8 1,-9 -1,-1 -2,-1 -4,-2z"/>
  </g>
 </g>
</svg>
