<?xml version="1.0" encoding="UTF-8"?>
<!DOCTYPE svg PUBLIC "-//W3C//DTD SVG 1.1//EN" "http://www.w3.org/Graphics/SVG/1.1/DTD/svg11.dtd">
<!-- Creator: CorelDRAW X7 -->
<svg xmlns="http://www.w3.org/2000/svg" xml:space="preserve" width="0.0533307in" height="0.0533307in" version="1.1" style="shape-rendering:geometricPrecision; text-rendering:geometricPrecision; image-rendering:optimizeQuality; fill-rule:evenodd; clip-rule:evenodd"
viewBox="0 0 53 53"
 xmlns:xlink="http://www.w3.org/1999/xlink">
 <defs>
  <style type="text/css">
   <![CDATA[
    .fil0 {fill:#256EA6}
    .fil1 {fill:#FEFEFE;fill-rule:nonzero}
   ]]>
  </style>
 </defs>
 <g id="Layer_x0020_1">
  <metadata id="CorelCorpID_0Corel-Layer"/>
  <rect class="fil0" width="53.3307" height="53.3307" rx="10" ry="10"/>
  <path class="fil1" d="M10 35l0 -17 5 0c6,0 9,4 9,9 0,4 -3,8 -9,8l-5 0zm-4 -20l0 24 9 0c8,0 12,-6 12,-12 0,-6 -4,-12 -12,-12l-9 0z"/>
  <path id="1" class="fil1" d="M32 18l7 0c4,0 4,6 0,6l-7 0 0 -6zm-3 -3l0 24 11 0c5,0 7,-4 7,-8 0,-2 -1,-4 -4,-6 3,-1 3,-4 2,-6 -1,-3 -3,-4 -6,-4l-10 0zm3 13l8 0c2,0 3,2 3,4 0,1 -1,3 -3,3l-8 0 0 -7z"/>
 </g>
</svg>
