<?xml version="1.0" encoding="UTF-8"?>
<!DOCTYPE svg PUBLIC "-//W3C//DTD SVG 1.1//EN" "http://www.w3.org/Graphics/SVG/1.1/DTD/svg11.dtd">
<!-- Creator: CorelDRAW X7 -->
<svg xmlns="http://www.w3.org/2000/svg" xml:space="preserve" width="5.2in" height="3in" version="1.1" style="shape-rendering:geometricPrecision; text-rendering:geometricPrecision; image-rendering:optimizeQuality; fill-rule:evenodd; clip-rule:evenodd"
viewBox="0 0 5200 3000"
 xmlns:xlink="http://www.w3.org/1999/xlink">
 <defs>
  <style type="text/css">
   <![CDATA[
    .fil0 {fill:#FEFEFE;fill-rule:nonzero}
    .fil6 {fill:#F5939B;fill-rule:nonzero}
    .fil9 {fill:#F7D0CD;fill-rule:nonzero}
    .fil14 {fill:#EA6D6E;fill-rule:nonzero}
    .fil5 {fill:#F1F1F3;fill-rule:nonzero}
    .fil8 {fill:#EA8585;fill-rule:nonzero}
    .fil10 {fill:#C8C7E4;fill-rule:nonzero}
    .fil2 {fill:#C0D0EB;fill-rule:nonzero}
    .fil1 {fill:#ABA7D2;fill-rule:nonzero}
    .fil11 {fill:#7570B2;fill-rule:nonzero}
    .fil3 {fill:#6B69AE;fill-rule:nonzero}
    .fil12 {fill:#6160A2;fill-rule:nonzero}
    .fil13 {fill:#2D2E36;fill-rule:nonzero}
    .fil4 {fill:#30303C;fill-rule:nonzero}
    .fil7 {fill:#2D2D40;fill-rule:nonzero}
    .fil15 {fill:#34315B;fill-rule:nonzero}
   ]]>
  </style>
 </defs>
 <g id="Layer_x0020_1">
  <metadata id="CorelCorpID_0Corel-Layer"/>
  <g id="_940864848">
   <path class="fil0" d="M5151 1594c-15,-201 -148,-620 -205,-813 -57,-194 -185,-375 -372,-451 -174,-70 -371,-42 -551,7 -181,48 -359,117 -546,127 -369,18 -690,-198 -1044,-259 -385,-66 -610,-90 -992,-5 -201,46 -514,272 -652,437 -152,181 -476,271 -614,558 -377,787 139,1453 353,1455 312,2 1152,-163 1464,-161l2791 0c0,0 438,-23 368,-895z"/>
   <polygon class="fil1" points="3476,2640 3848,2640 3848,816 3476,816 "/>
   <polygon class="fil1" points="1050,2640 1422,2640 1422,816 1050,816 "/>
   <polygon class="fil2" points="3955,2640 4327,2640 4327,1310 3955,1310 "/>
   <polygon class="fil2" points="3747,2640 4119,2640 4119,1090 3747,1090 "/>
   <polygon class="fil2" points="3246,2640 3618,2640 3618,1310 3246,1310 "/>
   <polygon class="fil1" points="1400,2640 1771,2640 1771,1310 1400,1310 "/>
   <polygon class="fil2" points="2555,2640 2992,2640 2992,1090 2555,1090 "/>
   <polygon class="fil1" points="3307,816 2935,965 2935,2640 3307,2640 "/>
   <polygon class="fil1" points="2098,816 1726,965 1726,2640 2098,2640 "/>
   <polygon class="fil1" points="4319,2640 4838,2640 4838,1007 4319,1007 "/>
   <polygon class="fil1" points="4405,1159 4753,1159 4753,893 4405,893 "/>
   <polygon class="fil1" points="4487,943 4670,943 4670,707 4487,707 "/>
   <polygon class="fil1" points="4563,752 4595,752 4595,488 4563,488 "/>
   <polygon class="fil1" points="2082,2640 2601,2640 2601,1007 2082,1007 "/>
   <polygon class="fil1" points="2167,1159 2515,1159 2515,893 2167,893 "/>
   <polygon class="fil1" points="2250,943 2433,943 2433,707 2250,707 "/>
   <polygon class="fil1" points="2325,752 2357,752 2357,488 2325,488 "/>
   <polygon class="fil2" points="4275,1540 4327,1540 4327,1426 4275,1426 "/>
   <polygon class="fil1" points="3137,1089 3188,1089 3188,975 3137,975 "/>
   <polygon class="fil2" points="2927,1470 2978,1470 2978,1356 2927,1356 "/>
   <polygon class="fil1" points="4553,865 4605,865 4605,752 4553,752 "/>
   <polygon class="fil1" points="4589,1394 4641,1394 4641,1280 4589,1280 "/>
   <polygon class="fil2" points="3716,1203 3768,1203 3768,1090 3716,1090 "/>
   <path class="fil3" d="M1029 545c98,14 187,66 198,177 9,105 -71,209 -31,313 40,107 157,143 114,276 -15,47 -39,93 -38,142 2,104 104,167 153,248 64,105 40,250 -45,336 -161,164 -435,105 -639,89 -118,-9 -224,-69 -254,-192 -34,-143 56,-212 112,-324 54,-110 -13,-239 -14,-362 -2,-137 108,-213 129,-339 14,-91 -37,-185 14,-271 27,-45 77,-73 129,-86 51,-12 113,-16 172,-7z"/>
   <path class="fil4" d="M970 2640c-3,0 -7,-4 -7,-7l0 -1808c0,-4 4,-7 7,-7 4,0 7,3 7,7l0 1808c0,3 -3,7 -7,7z"/>
   <path class="fil4" d="M970 1643c-2,0 -5,-2 -6,-4l-198 -434c-2,-4 0,-8 3,-10 4,-1 8,0 9,4l199 434c1,3 0,7 -4,9l-3 1z"/>
   <path class="fil4" d="M970 1956c-1,0 -2,0 -4,-1 -3,-2 -4,-7 -1,-10l195 -281c2,-3 6,-3 10,-1 3,2 4,6 1,9l-195 281c-1,2 -4,3 -6,3z"/>
   <path class="fil5" d="M3115 550c10,16 2,38 -13,48 -16,9 -36,8 -53,-1 -8,-5 -16,-11 -25,-13 -24,-5 -52,23 -74,7 -19,-14 -10,-27 4,-38 43,-33 114,11 161,-3z"/>
   <path class="fil5" d="M1617 759c10,16 2,38 -13,48 -16,9 -36,7 -53,-1 -8,-5 -16,-11 -25,-13 -24,-5 -52,23 -74,7 -19,-14 -10,-27 5,-38 43,-33 113,11 160,-3z"/>
   <path class="fil5" d="M4805 598c10,15 2,37 -14,47 -15,10 -36,8 -52,-1 -8,-4 -16,-11 -26,-13 -23,-5 -51,24 -73,7 -19,-14 -10,-27 4,-38 43,-33 114,11 161,-2z"/>
   <path class="fil5" d="M4164 498c10,16 2,38 -13,47 -16,10 -37,8 -53,0 -8,-5 -16,-11 -26,-13 -23,-5 -51,23 -73,7 -19,-15 -10,-27 4,-38 43,-33 114,11 161,-3z"/>
   <path class="fil5" d="M1792 496c-22,12 -50,16 -76,21 -19,3 -39,6 -58,9 -44,7 -90,14 -132,2 -31,-8 -57,-26 -88,-32 -31,-7 -64,-1 -96,-3 -9,0 -19,-1 -27,-4 -18,-7 -29,-24 -26,-39 3,-16 20,-29 40,-30 26,-3 57,12 75,-3 7,-6 9,-13 13,-20 9,-12 26,-20 43,-25 53,-17 98,-5 152,1 36,4 69,-3 105,-5 46,-3 93,2 110,42 12,30 -3,67 -35,86z"/>
   <path class="fil5" d="M3653 695c-16,9 -36,12 -56,15 -14,3 -29,5 -43,7 -32,6 -66,11 -97,2 -23,-6 -42,-19 -66,-24 -23,-5 -47,-1 -71,-2 -7,0 -14,-1 -20,-3 -13,-5 -21,-17 -19,-29 2,-12 15,-21 30,-22 19,-2 42,9 55,-3 5,-4 7,-9 10,-14 6,-9 19,-15 32,-19 39,-12 72,-4 112,1 27,3 52,-2 78,-4 34,-2 69,2 81,32 9,22 -2,49 -26,63z"/>
   <path class="fil5" d="M2353 362c-9,4 -19,6 -29,7 -7,2 -14,3 -21,4 -16,3 -34,5 -49,1 -11,-3 -21,-10 -33,-12 -11,-3 -23,-1 -35,-1 -4,0 -7,-1 -10,-2 -7,-2 -11,-9 -10,-14 1,-6 8,-11 15,-12 10,0 21,5 28,-1 2,-2 3,-4 5,-7 3,-4 9,-7 15,-9 20,-6 37,-2 57,0 13,2 25,-1 39,-2 17,-1 34,1 40,16 5,11 -1,25 -12,32z"/>
   <path class="fil1" d="M5153 2614c0,-133 -1076,-241 -2403,-241 -1328,0 -2404,108 -2404,241 0,133 1076,241 2404,241 1327,0 2403,-108 2403,-241z"/>
   <path class="fil3" d="M4822 2736l-1 0c-1,0 -2,-1 -2,-3 14,-418 48,-719 95,-849 2,-3 2,-5 3,-6 0,-1 1,-2 3,-2 2,0 3,2 2,4 0,1 -1,3 -2,6 -47,129 -81,430 -96,848 0,1 -1,2 -2,2z"/>
   <path class="fil3" d="M4962 1850c-6,15 -45,49 -49,48 -4,-2 -10,-54 -4,-69 6,-14 22,-21 37,-16 15,6 22,23 16,37z"/>
   <path class="fil3" d="M4885 1911c8,13 12,67 8,69 -4,3 -50,-25 -58,-39 -9,-14 -4,-32 9,-40 14,-8 32,-4 41,10z"/>
   <path class="fil3" d="M4962 1985c-15,6 -68,-3 -69,-7 -2,-4 35,-43 51,-48 15,-5 31,3 36,19 6,15 -3,31 -18,36z"/>
   <path class="fil3" d="M4819 2203c17,21 33,109 27,114 -7,5 -88,-33 -104,-55 -17,-21 -13,-52 9,-68 21,-17 51,-13 68,9z"/>
   <path class="fil3" d="M4962 2313c-25,12 -115,7 -118,0 -3,-7 52,-77 77,-89 25,-11 53,0 65,24 11,25 0,54 -24,65z"/>
   <path class="fil3" d="M4777 2317c25,21 68,123 62,130 -6,7 -113,-16 -139,-37 -25,-21 -29,-59 -8,-85 21,-25 59,-29 85,-8z"/>
   <path class="fil3" d="M4976 2459c-31,11 -140,-6 -143,-15 -3,-9 74,-88 105,-98 31,-11 65,6 76,37 10,31 -6,65 -38,76z"/>
   <path class="fil3" d="M4768 2455c25,21 68,122 62,129 -6,8 -113,-16 -138,-37 -26,-21 -30,-59 -8,-84 21,-26 58,-29 84,-8z"/>
   <path class="fil3" d="M4968 2596c-32,11 -141,-5 -144,-14 -3,-9 74,-88 105,-99 32,-11 65,6 76,38 11,31 -6,65 -37,75z"/>
   <path class="fil3" d="M4717 2638c32,10 110,87 108,96 -3,9 -111,28 -143,18 -32,-9 -49,-43 -39,-75 9,-31 43,-49 74,-39z"/>
   <path class="fil3" d="M4963 2731c-30,15 -139,12 -144,4 -3,-9 62,-97 92,-111 30,-15 65,-2 80,27 14,30 2,66 -28,80z"/>
   <path class="fil3" d="M4864 2001c9,14 13,69 9,71 -4,3 -51,-26 -59,-40 -8,-14 -4,-32 10,-40 14,-9 32,-4 40,9z"/>
   <path class="fil3" d="M4941 2079c-15,5 -69,-3 -70,-8 -2,-4 36,-43 52,-48 15,-5 32,3 37,18 5,16 -3,33 -19,38z"/>
   <path class="fil3" d="M4837 2088c14,19 26,95 20,99 -5,4 -74,-31 -88,-49 -13,-19 -9,-45 10,-59 18,-14 45,-10 58,9z"/>
   <path class="fil3" d="M4957 2196c-22,7 -99,-5 -101,-11 -2,-7 52,-62 74,-69 22,-8 46,4 53,26 8,22 -4,46 -26,54z"/>
   <path class="fil3" d="M4392 752c84,12 160,56 169,151 8,90 -60,179 -26,268 34,92 134,123 98,236 -13,40 -34,80 -33,122 2,88 89,143 131,212 55,90 34,214 -38,287 -139,141 -373,90 -547,77 -101,-8 -192,-60 -218,-165 -29,-122 48,-181 96,-277 47,-94 -11,-205 -12,-310 -2,-117 93,-182 110,-289 13,-78 -31,-159 13,-232 23,-39 66,-63 110,-74 43,-10 97,-14 147,-6z"/>
   <path class="fil3" d="M633 2573c0,0 297,17 359,-5 62,-22 126,-132 78,-185 -38,-43 -88,-5 -116,-42 -27,-37 67,-163 -135,-142 -202,21 -94,177 -147,158 -103,-37 -244,132 -39,216z"/>
   <path class="fil3" d="M532 2702l1 0c1,0 2,-2 2,-3 -122,-427 -234,-729 -316,-850 -2,-2 -3,-4 -4,-5 -1,-2 -3,-2 -4,-2 -2,1 -2,3 -1,4 0,2 2,4 4,7 81,120 193,421 315,847 0,2 2,3 3,2z"/>
   <path class="fil3" d="M161 1827c10,13 59,39 63,36 4,-3 -4,-58 -14,-71 -10,-14 -28,-17 -42,-7 -14,9 -17,28 -7,42z"/>
   <path class="fil3" d="M256 1869c-5,16 5,72 10,73 4,2 44,-38 49,-55 5,-16 -4,-33 -20,-38 -16,-5 -34,4 -39,20z"/>
   <path class="fil3" d="M196 1966c17,1 69,-21 70,-26 0,-5 -48,-35 -66,-36 -16,-1 -31,11 -33,28 -1,17 12,32 29,34z"/>
   <path class="fil3" d="M399 2152c-12,27 -6,122 2,125 7,3 81,-57 92,-83 12,-26 0,-57 -26,-68 -26,-12 -57,0 -68,26z"/>
   <path class="fil3" d="M280 2303c28,5 119,-22 121,-30 2,-8 -74,-67 -102,-72 -28,-5 -55,13 -60,41 -6,29 13,56 41,61z"/>
   <path class="fil3" d="M471 2260c-20,28 -39,143 -31,149 8,6 113,-46 134,-74 21,-28 14,-68 -14,-89 -28,-21 -68,-14 -89,14z"/>
   <path class="fil3" d="M302 2457c35,2 143,-42 144,-52 1,-10 -98,-72 -133,-75 -35,-3 -66,23 -69,58 -3,35 23,66 58,69z"/>
   <path class="fil3" d="M516 2399c-21,28 -39,143 -32,149 9,6 113,-46 134,-74 21,-28 15,-68 -13,-88 -29,-21 -69,-15 -89,13z"/>
   <path class="fil3" d="M346 2596c35,3 143,-42 144,-52 1,-10 -98,-72 -133,-75 -35,-3 -66,23 -68,58 -3,35 23,66 57,69z"/>
   <path class="fil3" d="M615 2574c-30,19 -91,118 -86,127 5,8 121,0 151,-18 30,-18 40,-57 22,-87 -19,-30 -57,-40 -87,-22z"/>
   <path class="fil3" d="M386 2733c34,8 146,-23 148,-33 2,-10 -88,-84 -122,-91 -35,-7 -68,15 -75,49 -8,34 14,68 49,75z"/>
   <path class="fil3" d="M300 1957c-5,17 5,73 9,75 5,1 46,-39 51,-56 5,-17 -4,-34 -21,-39 -16,-6 -33,4 -39,20z"/>
   <path class="fil3" d="M241 2057c17,1 70,-21 71,-26 0,-5 -49,-36 -66,-37 -17,-1 -33,12 -34,29 -1,17 12,32 29,34z"/>
   <path class="fil3" d="M350 2039c-9,23 -2,105 5,107 6,3 69,-50 78,-73 9,-23 -2,-49 -24,-58 -23,-9 -49,1 -59,24z"/>
   <path class="fil3" d="M255 2180c25,2 100,-29 101,-36 0,-7 -69,-51 -94,-52 -25,-2 -46,16 -48,40 -2,25 17,47 41,48z"/>
   <path class="fil6" d="M2344 1098l-6 0c-305,0 -591,144 -773,389l-178 240c-20,27 -46,48 -75,62l-318 157c-56,27 -92,84 -92,147l0 258c0,42 34,76 77,76l1414 0 -49 -1329z"/>
   <path class="fil7" d="M1817 2385l416 0 0 -359 33 -21 0 -651 -179 0c-136,0 -261,68 -334,183l-103 161 0 394c17,8 168,86 167,293zm421 5l-426 0 0 -2c3,-217 -164,-291 -165,-292l-2 -1 0 -399 1 0 103 -162c74,-116 201,-185 338,-185l184 0 0 658 -33 21 0 362z"/>
   <path class="fil0" d="M1789 1811l266 0c82,0 148,-67 148,-149l0 -181c0,-29 -23,-52 -52,-52l-63 0c-101,0 -198,43 -266,119l-48 54 -10 182c-1,14 11,27 25,27z"/>
   <path class="fil7" d="M1701 1609l-51 0c-1,0 -2,2 -2,3l0 196c0,1 1,3 2,3l51 0c2,0 3,-2 3,-3l0 -196c0,-1 -1,-3 -3,-3z"/>
   <path class="fil0" d="M1448 1790l352 -396 -159 0c-28,29 -54,60 -79,93l-178 240c-11,15 -24,28 -39,39l103 24z"/>
   <path class="fil0" d="M940 2123c0,0 25,-102 76,-134 51,-32 145,-39 145,-21 0,19 -74,88 -74,111 0,23 9,44 9,44l-156 0z"/>
   <path class="fil4" d="M975 2264c0,0 6,29 15,29 10,0 31,-61 29,-69 -2,-7 -54,-3 -55,-1 -2,1 11,41 11,41z"/>
   <path class="fil8" d="M2073 1936c0,-25 23,-45 51,-45 29,0 52,20 52,45 0,25 -23,45 -52,45 -28,0 -51,-20 -51,-45z"/>
   <polygon class="fil9" points="2033,1918 2219,1918 2221,1920 2221,1947 2219,1949 2033,1949 2031,1947 2031,1920 "/>
   <path class="fil6" d="M4481 1040l-2158 0c-5,0 -9,3 -9,8l0 1370c0,5 4,9 9,9l2158 0c4,0 8,-4 8,-9l0 -1370c0,-5 -4,-8 -8,-8z"/>
   <polygon class="fil7" points="860,2449 4489,2449 4489,2324 860,2324 "/>
   <path class="fil4" d="M1250 2388c0,-142 115,-257 257,-257 142,0 257,115 257,257 0,142 -115,257 -257,257 -142,0 -257,-115 -257,-257z"/>
   <path class="fil10" d="M1331 2388c0,97 79,176 176,176 98,0 176,-79 176,-176 0,-97 -78,-176 -176,-176 -97,0 -176,79 -176,176zm-18 0c0,-107 87,-195 194,-195 108,0 195,88 195,195 0,107 -87,195 -195,195 -107,0 -194,-88 -194,-195z"/>
   <path class="fil10" d="M1446 2388c0,-34 28,-61 61,-61 34,0 61,27 61,61 0,34 -27,61 -61,61 -33,0 -61,-27 -61,-61z"/>
   <polygon class="fil10" points="1498,2342 1476,2209 1538,2209 1516,2342 "/>
   <polygon class="fil10" points="1462,2362 1359,2276 1406,2235 1476,2350 "/>
   <polygon class="fil10" points="1454,2407 1320,2419 1324,2357 1455,2389 "/>
   <polygon class="fil10" points="1552,2362 1655,2276 1608,2235 1538,2350 "/>
   <polygon class="fil10" points="1498,2440 1476,2572 1538,2572 1516,2440 "/>
   <polygon class="fil10" points="1462,2419 1359,2505 1406,2546 1476,2431 "/>
   <polygon class="fil10" points="1552,2419 1655,2505 1608,2546 1538,2431 "/>
   <polygon class="fil10" points="1561,2407 1694,2419 1690,2357 1559,2389 "/>
   <path class="fil4" d="M3380 2388c0,-142 115,-257 258,-257 142,0 257,115 257,257 0,142 -115,257 -257,257 -143,0 -258,-115 -258,-257z"/>
   <path class="fil10" d="M3461 2388c0,97 79,176 177,176 97,0 176,-79 176,-176 0,-97 -79,-176 -176,-176 -98,0 -177,79 -177,176zm-18 0c0,-107 87,-195 195,-195 107,0 194,88 194,195 0,107 -87,195 -194,195 -108,0 -195,-88 -195,-195z"/>
   <path class="fil10" d="M3577 2388c0,-34 27,-61 61,-61 33,0 61,27 61,61 0,34 -28,61 -61,61 -34,0 -61,-27 -61,-61z"/>
   <polygon class="fil10" points="3628,2342 3607,2209 3669,2209 3647,2342 "/>
   <polygon class="fil10" points="3592,2362 3490,2276 3536,2235 3607,2350 "/>
   <polygon class="fil10" points="3584,2407 3450,2419 3455,2357 3585,2389 "/>
   <polygon class="fil10" points="3682,2362 3785,2276 3739,2235 3669,2350 "/>
   <polygon class="fil10" points="3628,2440 3607,2572 3669,2572 3647,2440 "/>
   <polygon class="fil10" points="3592,2419 3490,2505 3536,2546 3607,2431 "/>
   <polygon class="fil10" points="3682,2419 3785,2505 3739,2546 3669,2431 "/>
   <polygon class="fil10" points="3691,2407 3825,2419 3820,2357 3689,2389 "/>
   <polygon class="fil0" points="2444,1491 3259,1491 3259,1449 2393,1449 "/>
   <polygon class="fil0" points="2444,1609 3259,1609 3259,1567 2393,1567 "/>
   <path class="fil0" d="M2494 1340c30,0 46,-18 46,-56 0,-38 -16,-54 -46,-54l-11 0 0 110 11 0zm-39 -133l41 0c45,0 73,26 73,77 0,51 -28,78 -72,78l-42 0 0 -155z"/>
   <polygon class="fil0" points="2603,1207 2703,1207 2703,1230 2631,1230 2631,1270 2692,1270 2692,1293 2631,1293 2631,1339 2705,1339 2705,1362 2603,1362 "/>
   <polygon class="fil0" points="2750,1207 2777,1207 2777,1339 2850,1339 2850,1362 2750,1362 "/>
   <polygon class="fil0" points="2884,1339 2921,1339 2921,1230 2884,1230 2884,1207 2986,1207 2986,1230 2949,1230 2949,1339 2986,1339 2986,1362 2884,1362 "/>
   <path class="fil0" d="M3013 1207l29 0 22 78c5,18 8,33 13,50l1 0c6,-17 9,-32 14,-50l22 -78 28 0 -48 155 -33 0 -48 -155z"/>
   <polygon class="fil0" points="3173,1207 3272,1207 3272,1230 3201,1230 3201,1270 3261,1270 3261,1293 3201,1293 3201,1339 3275,1339 3275,1362 3173,1362 "/>
   <path class="fil0" d="M3377 1278l49 84 -31 0 -37 -68 19 -16zm-17 2c21,0 33,-9 33,-27 0,-18 -12,-24 -33,-24l-21 0 0 51 21 0zm-49 -73l52 0c32,0 57,12 57,46 0,34 -25,49 -57,49l-24 0 0 60 -28 0 0 -155z"/>
   <path class="fil0" d="M3491 1308l-51 -101 29 0 19 42c6,12 11,23 16,36l1 0c6,-13 12,-24 17,-36l19 -42 28 0 -51 101 0 54 -27 0 0 -54z"/>
   <polygon class="fil3" points="2741,2695 3228,2695 3228,2387 2741,2387 "/>
   <polygon class="fil11" points="2922,2695 3409,2695 3409,2387 2922,2387 "/>
   <polygon class="fil0" points="2957,2668 3067,2668 3067,2630 2957,2630 "/>
   <polygon class="fil12" points="2741,2695 2824,2541 2922,2695 "/>
   <polygon class="fil12" points="2741,2387 2824,2591 2922,2387 "/>
   <polygon class="fil3" points="2448,2391 3034,2391 3034,2021 2448,2021 "/>
   <polygon class="fil11" points="2666,2391 3252,2391 3252,2021 2666,2021 "/>
   <polygon class="fil0" points="2708,2359 2840,2359 2840,2314 2708,2314 "/>
   <polygon class="fil12" points="2448,2391 2547,2206 2666,2391 "/>
   <polygon class="fil11" points="2448,2021 2547,2267 2666,2021 "/>
   <polygon class="fil3" points="2212,2696 2695,2696 2695,2391 2212,2391 "/>
   <polygon class="fil11" points="2392,2696 2875,2696 2875,2391 2392,2391 "/>
   <polygon class="fil0" points="2426,2669 2535,2669 2535,2632 2426,2632 "/>
   <polygon class="fil12" points="2212,2696 2294,2543 2392,2696 "/>
   <polygon class="fil11" points="2212,2391 2294,2593 2392,2391 "/>
   <polygon class="fil11" points="2718,2021 3106,2021 3106,1776 2718,1776 "/>
   <polygon class="fil10" points="2862,2021 3250,2021 3250,1776 2862,1776 "/>
   <polygon class="fil0" points="2890,1999 2978,1999 2978,1969 2890,1969 "/>
   <polygon class="fil12" points="2718,2021 2784,1898 2862,2021 "/>
   <polygon class="fil1" points="2718,1776 2784,1938 2862,1776 "/>
   <path class="fil9" d="M3960 1623l-58 99c0,0 87,43 89,39 2,-4 59,-95 59,-95l-90 -43z"/>
   <path class="fil0" d="M3998 2662l20 -84 45 0 -15 92c0,0 -39,5 -50,-8z"/>
   <path class="fil6" d="M4049 2664c0,0 -22,6 -51,-2 0,0 -87,27 -87,52 0,0 -5,7 33,10 39,2 99,7 100,6 2,-1 20,-8 5,-66z"/>
   <path class="fil0" d="M4046 2730c-2,1 -62,-4 -101,-6 -39,-3 -34,-10 -34,-10 0,-1 0,-3 1,-5l142 6c-1,12 -7,15 -8,15z"/>
   <path class="fil0" d="M4247 2667l3 -86 44 -9 3 93c0,0 -37,13 -50,2z"/>
   <path class="fil6" d="M4297 2659c0,0 -20,10 -50,8 0,0 -80,44 -75,69 0,0 -3,8 35,3 38,-6 98,-13 99,-14 2,-1 18,-12 -9,-66z"/>
   <path class="fil0" d="M4308 2725c-2,1 -62,8 -100,14 -39,5 -36,-3 -36,-3 -1,-2 -1,-3 0,-5l141 -23c0,13 -4,16 -5,17z"/>
   <path class="fil11" d="M4286 1934l32 711 -90 0c0,0 -83,-424 -101,-555l-42 552 -111 0c0,0 14,-718 21,-720 8,-2 291,12 291,12z"/>
   <path class="fil0" d="M4242 1458c0,0 126,49 134,91 9,41 -26,160 -26,160l-40 -21 -17 286c0,0 -305,-24 -305,-29 0,-6 28,-271 28,-271l-72 -44c0,0 92,-159 145,-167 53,-9 101,-10 101,-10l52 5z"/>
   <path class="fil9" d="M4393 1637l-90 6c0,0 12,85 -10,109 -32,35 -118,60 -118,60l6 38c0,0 162,-16 189,-72 27,-57 23,-141 23,-141z"/>
   <path class="fil8" d="M4149 1329c0,0 -5,-10 -10,-7 -12,8 -2,21 5,24l5 -17z"/>
   <path class="fil9" d="M4151 1296l0 0 0 -2c5,-41 44,-70 85,-62 34,7 59,38 57,73 0,13 -4,24 -10,35 -9,15 -16,29 -24,40 -13,18 -18,40 -18,62l1 17c-46,18 -64,-6 -64,-6l4 -31c0,-4 -3,-8 -7,-9l0 0c-53,-10 -27,-92 -24,-117z"/>
   <path class="fil13" d="M4219 1343c1,-4 4,-7 7,-6 4,0 7,4 6,7 0,4 -4,7 -7,6 -4,0 -7,-4 -6,-7z"/>
   <path class="fil13" d="M4162 1324c0,-4 4,-7 7,-6 4,0 6,4 6,7 0,4 -4,6 -7,6 -4,-1 -7,-4 -6,-7z"/>
   <path class="fil13" d="M4244 1335l2 0c2,-1 3,-3 2,-5 -3,-6 -12,-16 -27,-10 -3,0 -4,3 -3,5 1,2 3,3 5,2 13,-4 18,6 18,6 0,1 2,2 3,2z"/>
   <path class="fil13" d="M4183 1317l2 0c2,-1 3,-3 2,-5 -2,-6 -11,-16 -27,-10 -2,0 -3,3 -2,5 0,2 3,3 5,2 12,-5 17,6 17,6 1,1 2,2 3,2z"/>
   <polygon class="fil8" points="4298,1317 4273,1363 4261,1358 4261,1296 "/>
   <path class="fil9" d="M4259 1357c1,-2 4,-4 6,-5 5,-1 14,-2 19,5 8,9 -13,30 -29,17 0,0 -4,-6 4,-17z"/>
   <path class="fil14" d="M4182 1362c6,4 12,1 12,1l1 -1 -2 -1c0,1 -7,3 -12,-3 -1,-1 -2,-2 -2,-3 1,0 1,-1 3,-2 3,-3 9,-8 12,-20l-1 -2 -1 1c-3,12 -8,16 -12,19 -2,1 -3,2 -3,4 0,2 0,3 2,4 1,2 2,3 3,3z"/>
   <path class="fil0" d="M4207 1378c0,0 -27,0 -43,-10 0,0 1,21 17,24 15,4 26,-14 26,-14z"/>
   <path class="fil8" d="M4166 1270c0,0 -12,6 -20,49 0,0 6,-48 12,-53 6,-4 8,4 8,4z"/>
   <path class="fil11" d="M4162 1259c0,0 26,-56 95,-32 70,24 41,90 41,90 0,0 -45,-26 -55,-30 -10,-4 -81,-28 -81,-28z"/>
   <path class="fil12" d="M4267 1299c0,0 -72,-62 -127,-55 -54,7 14,35 14,35 0,0 10,-20 113,20z"/>
   <polygon class="fil7" points="3994,1684 3829,1716 3828,1718 3872,1946 3874,1947 4038,1916 4040,1914 3996,1686 "/>
   <polygon class="fil10" points="3947,1682 3879,1695 3882,1709 3949,1696 "/>
   <path class="fil10" d="M3924 1686c-1,-6 -7,-10 -13,-9 -7,1 -10,7 -9,14 1,6 7,10 13,9 6,-2 10,-8 9,-14z"/>
   <path class="fil9" d="M3846 1868c0,0 38,-20 36,-26 -3,-6 -36,3 -35,3 0,0 33,-16 33,-24 -1,-9 -38,4 -38,4 0,0 32,-12 31,-18 -1,-6 -32,2 -33,0 -1,-2 27,-7 27,-15 0,-7 -40,-1 -43,6 -3,8 3,13 3,13 0,0 -4,13 2,18 0,0 1,19 9,21 0,0 -6,15 8,18z"/>
   <polygon class="fil15" points="4109,1885 4100,1882 4141,1757 4151,1760 "/>
   <polygon class="fil15" points="4100,1896 4100,1882 4109,1885 "/>
   <path class="fil9" d="M4183 1813c0,0 -32,-15 -44,-17l-5 13c0,0 -16,4 -24,6 -5,1 -12,3 -12,9 1,6 14,4 14,4 0,0 -17,4 -16,9 1,10 25,5 25,5 0,0 -22,3 -24,6 -3,3 -3,10 9,10 13,0 19,-2 19,-2 0,0 -24,8 -26,10 -3,2 -5,6 14,4 19,-2 60,-14 77,-27l-7 -30z"/>
   <path class="fil9" d="M4129 1793c0,0 -12,-7 -13,-5 -1,3 5,14 9,16l4 -11z"/>
   <path class="fil0" d="M4365 1529c0,0 22,18 32,48 10,30 0,126 0,126l-118 0 5 -104 81 -70z"/>
  </g>
 </g>
</svg>
